<?xml version="1.0" encoding="utf-8"?>
<!-- Generator: Adobe Illustrator 16.0.0, SVG Export Plug-In . SVG Version: 6.00 Build 0)  -->
<!DOCTYPE svg PUBLIC "-//W3C//DTD SVG 1.1//EN" "http://www.w3.org/Graphics/SVG/1.1/DTD/svg11.dtd">
<svg version="1.1" id="api-svg" xmlns="http://www.w3.org/2000/svg" xmlns:xlink="http://www.w3.org/1999/xlink" x="0px" y="0px"
	 width="299px" height="82px" viewBox="0 0 299 82" enable-background="new 0 0 299 82" xml:space="preserve">
<g>
	<path fill="none" stroke="#000000" stroke-width="2" stroke-miterlimit="10" d="M146.62,41.184
		c0.288-0.288,0.612-0.335,0.972-0.144c0.36,0.192,0.492,0.48,0.396,0.864c-0.048,0.192-0.12,0.349-0.216,0.468
		c-0.097,0.12-0.192,0.229-0.288,0.324c-0.385,0.385-0.745,0.781-1.08,1.188c-0.336,0.409-0.673,0.805-1.008,1.188
		c-0.817,0.913-1.632,1.825-2.448,2.736c-0.817,0.912-1.704,1.752-2.664,2.52c-0.672,0.576-1.452,1.044-2.34,1.404
		c-0.889,0.36-1.789,0.324-2.7-0.108c-1.008-0.432-1.573-1.14-1.692-2.124c-0.12-0.983-0.108-1.955,0.036-2.916
		c-0.673,0.864-1.429,1.692-2.268,2.484c-0.84,0.792-1.74,1.453-2.7,1.98c-0.816,0.385-1.728,0.637-2.736,0.756
		c-1.008,0.12-1.92-0.083-2.736-0.612c-0.673-0.432-1.141-1.008-1.404-1.728c-0.264-0.72-0.396-1.463-0.396-2.232
		c0.047-0.911,0.228-1.8,0.54-2.664c0.312-0.864,0.684-1.703,1.116-2.52c0.527-1.104,1.176-2.124,1.944-3.06
		c0.768-0.936,1.608-1.811,2.52-2.628c0.72-0.671,1.487-1.307,2.304-1.908c0.815-0.6,1.68-1.116,2.592-1.548
		c1.104-0.527,2.268-0.923,3.492-1.188c1.224-0.263,2.459-0.324,3.708-0.18c0.24,0.048,0.456,0.084,0.648,0.108
		c0.191,0.025,0.407,0.084,0.648,0.18c0.288,0.097,0.456,0.252,0.504,0.468c0.047,0.216,0.036,0.457-0.036,0.72
		c-0.072,0.264-0.18,0.528-0.324,0.792c-0.144,0.264-0.241,0.468-0.288,0.612c-0.432,0.961-0.876,1.897-1.332,2.808
		c-0.457,0.912-0.948,1.848-1.476,2.808c-0.144,0.288-0.3,0.576-0.468,0.864c-0.169,0.288-0.349,0.576-0.54,0.864
		c-0.144,0.288-0.288,0.565-0.432,0.828c-0.144,0.265-0.264,0.565-0.36,0.9c-0.192,0.529-0.373,1.069-0.54,1.62
		c-0.169,0.552-0.3,1.116-0.396,1.692c-0.097,0.432-0.156,0.9-0.18,1.404c-0.024,0.504,0.083,0.972,0.324,1.404
		c0.144,0.288,0.384,0.493,0.72,0.612c0.335,0.12,0.672,0.132,1.008,0.036c0.383-0.096,0.744-0.227,1.08-0.396
		c0.335-0.167,0.648-0.371,0.936-0.612c0.383-0.335,0.767-0.672,1.152-1.008c0.384-0.335,0.744-0.695,1.08-1.08
		c0.959-0.96,1.872-1.944,2.736-2.952C144.893,43.2,145.756,42.192,146.62,41.184z M126.82,49.968c0.815-0.239,1.548-0.6,2.196-1.08
		c0.648-0.479,1.26-1.008,1.836-1.584c0.671-0.672,1.307-1.416,1.908-2.232c0.6-0.815,1.164-1.631,1.692-2.448
		c0.191-0.24,0.348-0.479,0.468-0.72c0.119-0.239,0.227-0.479,0.324-0.72l0.648-1.368c0.191-0.479,0.383-0.936,0.576-1.368
		c0.191-0.432,0.407-0.864,0.648-1.296c0.384-0.671,0.756-1.332,1.116-1.98s0.731-1.307,1.116-1.98
		c-1.104-0.144-2.208-0.096-3.312,0.144c-1.104,0.241-2.136,0.601-3.096,1.08c-0.961,0.48-1.836,1.033-2.628,1.656
		c-0.792,0.625-1.548,1.296-2.268,2.016c-0.864,0.817-1.656,1.705-2.376,2.664c-0.72,0.961-1.321,1.992-1.8,3.096
		c-0.288,0.672-0.529,1.416-0.72,2.232c-0.192,0.817-0.192,1.609,0,2.376c0.096,0.336,0.227,0.648,0.396,0.936
		c0.167,0.288,0.419,0.504,0.756,0.648c0.384,0.144,0.803,0.192,1.26,0.144C126.016,50.137,126.436,50.065,126.82,49.968z"/>
	<path fill="none" stroke="#000000" stroke-width="2" stroke-miterlimit="10" d="M170.812,41.256
		c0.288-0.335,0.636-0.36,1.044-0.072c0.407,0.288,0.492,0.625,0.252,1.008c-0.144,0.241-0.312,0.457-0.504,0.648
		c-0.192,0.192-0.385,0.409-0.576,0.648c-0.192,0.192-0.372,0.373-0.54,0.54c-0.168,0.169-0.324,0.373-0.468,0.612
		c-1.105,1.152-2.353,2.28-3.744,3.384c-1.537,1.152-3.204,2.124-5.004,2.916s-3.685,1.285-5.652,1.476
		c-1.249,0.144-2.568,0.097-3.96-0.144l-1.152-0.216c-0.529-0.191-0.72-0.54-0.576-1.044c0.144-0.504,0.479-0.684,1.008-0.54
		c0.479,0.144,0.959,0.216,1.44,0.216c0.24,0,0.443-0.011,0.612-0.036c0.167-0.023,0.348-0.06,0.54-0.108
		c0.768-0.144,1.536-0.407,2.304-0.792c0.72-0.384,1.404-0.828,2.052-1.332c0.648-0.504,1.26-1.067,1.836-1.692
		c1.055-1.152,1.98-2.459,2.772-3.924c0.792-1.464,1.379-2.963,1.764-4.5c0.191-0.576,0.335-1.199,0.432-1.872
		c0.047-0.432,0.083-0.888,0.108-1.368c0.024-0.479-0.061-0.911-0.252-1.296c-0.192-0.384-0.516-0.528-0.972-0.432
		c-0.457,0.097-0.828,0.216-1.116,0.36c-0.625,0.241-1.213,0.553-1.764,0.936c-0.552,0.385-1.092,0.792-1.62,1.224
		c-0.673,0.576-1.332,1.188-1.98,1.836c-0.648,0.648-1.285,1.309-1.908,1.98c-0.673,0.817-1.321,1.645-1.944,2.484
		c-0.625,0.841-1.224,1.717-1.8,2.628c-0.624,0.96-1.152,1.896-1.584,2.808c-0.097,0.144-0.18,0.277-0.252,0.396
		c-0.072,0.121-0.133,0.252-0.18,0.396l-0.36,0.792l-0.648,1.584c-0.912,2.16-1.825,4.308-2.736,6.444
		c-0.913,2.135-1.849,4.285-2.808,6.444c-0.384,0.863-0.756,1.727-1.116,2.592c-0.36,0.863-0.731,1.703-1.116,2.52
		c-0.096,0.24-0.204,0.443-0.324,0.611c-0.119,0.168-0.299,0.252-0.54,0.252c-0.527-0.096-0.792-0.385-0.792-0.863
		c0-0.193,0.036-0.373,0.108-0.541c0.072-0.168,0.156-0.322,0.252-0.467l0.432-0.936l4.104-9.504l8.424-20.016
		c-0.673,0.769-1.345,1.524-2.016,2.268c-0.673,0.745-1.344,1.524-2.016,2.34c-0.192,0.241-0.42,0.409-0.684,0.504
		c-0.264,0.097-0.516,0-0.756-0.288c-0.336-0.335-0.312-0.72,0.072-1.152l3.888-4.464c0.624-0.671,1.224-1.343,1.8-2.016
		c0.576-0.671,1.152-1.343,1.728-2.016c0.288-0.335,0.635-0.372,1.044-0.108c0.407,0.265,0.515,0.588,0.324,0.972
		c-0.097,0.192-0.168,0.36-0.216,0.504c-0.048,0.144-0.097,0.288-0.144,0.432c-0.385,0.961-0.769,1.884-1.152,2.772
		c-0.385,0.889-0.769,1.812-1.152,2.772c1.008-1.248,2.088-2.459,3.24-3.636c1.152-1.176,2.423-2.196,3.816-3.06
		c0.335-0.191,0.72-0.407,1.152-0.648c0.432-0.24,0.875-0.432,1.332-0.576c0.456-0.144,0.9-0.204,1.332-0.18
		c0.432,0.025,0.839,0.157,1.224,0.396c0.576,0.385,0.936,0.925,1.08,1.62c0.144,0.696,0.191,1.357,0.144,1.98
		c-0.048,0.913-0.18,1.825-0.396,2.736c-0.216,0.912-0.493,1.776-0.828,2.592c-0.72,1.825-1.668,3.564-2.844,5.22
		c-1.177,1.656-2.604,3.037-4.284,4.14c2.639-0.671,5.004-1.847,7.092-3.528C167.175,45.192,169.083,43.32,170.812,41.256z"/>
	<path fill="none" stroke="#000000" stroke-width="2" stroke-miterlimit="10" d="M184.347,41.184
		c0.288,0.241,0.372,0.493,0.252,0.756c-0.121,0.265-0.252,0.517-0.396,0.756l-1.296,1.44c-0.624,0.72-1.249,1.44-1.872,2.16
		c-0.624,0.72-1.272,1.417-1.944,2.088c-0.529,0.529-1.056,1.021-1.584,1.476c-0.529,0.457-1.104,0.876-1.728,1.26
		c-0.432,0.241-0.925,0.457-1.476,0.648c-0.552,0.192-1.068,0.168-1.548-0.072c-0.385-0.191-0.648-0.468-0.792-0.828
		c-0.144-0.36-0.241-0.731-0.288-1.116c-0.097-0.815-0.048-1.607,0.144-2.376c0.191-0.767,0.407-1.512,0.648-2.232
		c0.384-1.104,0.803-2.184,1.26-3.24c0.456-1.055,0.947-2.135,1.476-3.24l-3.24,3.816c-0.385,0.432-0.781,0.493-1.188,0.18
		c-0.408-0.312-0.421-0.731-0.036-1.26l1.08-1.296l4.896-5.616l1.584-1.872c0.24-0.335,0.528-0.479,0.864-0.432
		c0.239,0.097,0.419,0.241,0.54,0.432c0.119,0.192,0.131,0.408,0.036,0.648c-0.048,0.144-0.108,0.288-0.18,0.432
		c-0.072,0.144-0.157,0.288-0.252,0.432c-0.817,1.537-1.597,3.072-2.34,4.608c-0.745,1.537-1.452,3.121-2.124,4.752
		c-0.288,0.673-0.552,1.357-0.792,2.052c-0.241,0.696-0.457,1.404-0.648,2.124c-0.144,0.625-0.192,1.2-0.144,1.728
		c0,0.097,0.011,0.264,0.036,0.504c0.023,0.241,0.108,0.36,0.252,0.36c0.191,0.048,0.396,0.025,0.612-0.072
		c0.216-0.096,0.396-0.191,0.54-0.288c0.576-0.335,1.152-0.744,1.728-1.224c0.576-0.527,1.116-1.055,1.62-1.584
		c0.504-0.527,1.019-1.055,1.548-1.584c0.96-1.055,1.872-2.111,2.736-3.168c0.239-0.24,0.54-0.576,0.9-1.008
		C183.591,40.896,183.962,40.849,184.347,41.184z M182.619,22.536c-0.384-0.191-0.601-0.504-0.648-0.936
		c-0.048-0.432,0.024-0.828,0.216-1.188c0.191-0.36,0.468-0.636,0.828-0.828c0.36-0.191,0.731-0.191,1.116,0
		c0.384,0.241,0.6,0.565,0.648,0.972c0.047,0.408-0.025,0.792-0.216,1.152c-0.192,0.36-0.468,0.637-0.828,0.828
		C183.375,22.729,183.003,22.729,182.619,22.536z"/>
</g>
<g>
</g>
<g>
</g>
<g>
</g>
<g>
</g>
<g>
</g>
<g>
</g>
</svg>
