<?xml version="1.0" encoding="utf-8"?>
<!-- Generator: Adobe Illustrator 16.0.0, SVG Export Plug-In . SVG Version: 6.00 Build 0)  -->
<!DOCTYPE svg PUBLIC "-//W3C//DTD SVG 1.1//EN" "http://www.w3.org/Graphics/SVG/1.1/DTD/svg11.dtd">
<svg version="1.1" id="selector-svg" xmlns="http://www.w3.org/2000/svg" xmlns:xlink="http://www.w3.org/1999/xlink" x="0px" y="0px"
	 width="299px" height="82px" viewBox="0 0 299 82" enable-background="new 0 0 299 82" xml:space="preserve">
<g>
	<path fill="none" stroke="#000000" stroke-width="2" stroke-miterlimit="10" d="M103.421,41.328c0.335-0.432,0.72-0.492,1.152-0.18
		c0.432,0.313,0.504,0.684,0.216,1.116c-0.288,0.385-0.565,0.745-0.828,1.08c-0.264,0.336-0.565,0.696-0.9,1.08
		c-0.673,0.769-1.368,1.501-2.088,2.196c-0.72,0.696-1.489,1.356-2.304,1.98c-1.584,1.249-3.373,2.244-5.364,2.988
		c-1.992,0.745-4.021,0.876-6.084,0.396c-1.008-0.24-1.956-0.612-2.844-1.116c-0.889-0.504-1.717-1.116-2.484-1.836
		c-0.191-0.144-0.396-0.324-0.612-0.54c-0.216-0.216-0.348-0.443-0.396-0.684c0-0.24,0.061-0.443,0.18-0.612
		c0.121-0.167,0.3-0.252,0.54-0.252c0.288-0.047,0.529,0.036,0.72,0.252c0.191,0.216,0.384,0.421,0.576,0.612
		c0.384,0.385,0.792,0.72,1.224,1.008c0.864,0.625,1.751,1.08,2.664,1.368c0.239,0.097,0.492,0.168,0.756,0.216
		c0.263,0.048,0.515,0.097,0.756,0.144c0.24,0.048,0.468,0.084,0.684,0.108c0.216,0.025,0.443,0.013,0.684-0.036
		c0.671-0.144,1.211-0.443,1.62-0.9c0.407-0.456,0.731-0.996,0.972-1.62c0.288-0.816,0.468-1.656,0.54-2.52
		c0.072-0.864,0.108-1.728,0.108-2.592c0-1.152-0.048-2.315-0.144-3.492c-0.097-1.176-0.097-2.364,0-3.564
		c-1.44,1.776-2.905,3.456-4.392,5.04l-1.296,1.368c-0.097,0.144-0.252,0.229-0.468,0.252c-0.216,0.025-0.396-0.036-0.54-0.18
		c-0.241-0.191-0.349-0.396-0.324-0.612c0.023-0.216,0.108-0.432,0.252-0.648s0.312-0.407,0.504-0.576
		c0.191-0.167,0.36-0.324,0.504-0.468c1.104-1.248,2.184-2.508,3.24-3.78c1.055-1.271,2.135-2.531,3.24-3.78l0.864-1.008
		c0.335-0.384,0.695-0.432,1.08-0.144c0.384,0.288,0.479,0.625,0.288,1.008c-0.097,0.241-0.241,0.444-0.432,0.612
		c-0.192,0.168-0.336,0.372-0.432,0.612c-0.192,0.432-0.313,0.889-0.36,1.368c-0.049,0.48-0.097,0.984-0.144,1.512
		c-0.048,1.201-0.025,2.401,0.072,3.6c0.096,1.2,0.119,2.401,0.072,3.6c0,1.008-0.072,2.052-0.216,3.132s-0.48,2.077-1.008,2.988
		c1.152-0.432,2.232-0.996,3.24-1.692c1.008-0.695,1.968-1.451,2.88-2.268C100.974,44.424,102.317,42.912,103.421,41.328z"/>
	<path fill="none" stroke="#000000" stroke-width="2" stroke-miterlimit="10" d="M119.981,41.112
		c0.335,0.288,0.407,0.601,0.216,0.936c-0.192,0.336-0.385,0.625-0.576,0.864l-1.728,1.944c-0.529,0.529-1.044,1.044-1.548,1.548
		c-0.504,0.504-1.044,1.021-1.62,1.548c-1.152,0.96-2.46,1.848-3.924,2.664c-1.464,0.816-2.988,1.128-4.572,0.936
		c-0.769-0.095-1.452-0.347-2.052-0.756c-0.601-0.407-1.069-0.972-1.404-1.692c-0.385-0.815-0.552-1.692-0.504-2.628
		c0.047-0.936,0.167-1.836,0.36-2.7c0.432-1.824,1.127-3.575,2.088-5.256c0.96-1.68,2.135-3.143,3.528-4.392
		c0.576-0.527,1.199-1.008,1.872-1.44c0.671-0.432,1.392-0.72,2.16-0.864c0.816-0.144,1.644-0.083,2.484,0.18
		c0.839,0.265,1.404,0.828,1.692,1.692c0.191,0.673,0.191,1.296,0,1.872c-0.192,0.576-0.468,1.128-0.828,1.656
		c-0.36,0.529-0.792,1.008-1.296,1.44s-0.997,0.817-1.476,1.152c-0.817,0.529-1.656,0.972-2.52,1.332
		c-0.864,0.36-1.753,0.684-2.664,0.972c-0.288,0.097-0.576,0.18-0.864,0.252c-0.288,0.072-0.576,0.156-0.864,0.252l-0.864,0.216
		c-0.097,0-0.169,0.013-0.216,0.036c-0.048,0.025-0.12,0.036-0.216,0.036c-0.048,0-0.072,0.048-0.072,0.144
		c0,0.097-0.025,0.144-0.072,0.144c-0.385,1.249-0.576,2.448-0.576,3.6c0.047,0.385,0.12,0.792,0.216,1.224
		c0.096,0.432,0.288,0.817,0.576,1.152c0.576,0.48,1.176,0.72,1.8,0.72c0.671,0.097,1.343,0.036,2.016-0.18
		c0.671-0.216,1.319-0.468,1.944-0.756c0.815-0.479,1.607-1.019,2.376-1.62c0.767-0.6,1.512-1.235,2.232-1.908
		c0.432-0.384,0.852-0.803,1.26-1.26c0.407-0.456,0.803-0.9,1.188-1.332l1.296-1.584C119.164,40.824,119.549,40.777,119.981,41.112z
		 M112.781,33.408c-0.817,0.097-1.573,0.396-2.268,0.9c-0.697,0.504-1.309,1.044-1.836,1.62c-1.296,1.44-2.401,3.144-3.312,5.112
		c1.487-0.384,2.988-0.888,4.5-1.512c1.512-0.623,2.795-1.487,3.852-2.592c0.672-0.672,1.08-1.368,1.224-2.088
		c0.096-0.672-0.108-1.104-0.612-1.296C113.825,33.361,113.309,33.312,112.781,33.408z"/>
	<path fill="none" stroke="#000000" stroke-width="2" stroke-miterlimit="10" d="M138.701,10.584
		c0.815,0.385,1.248,1.069,1.296,2.052c0.047,0.984-0.072,1.836-0.36,2.556c-0.241,0.625-0.516,1.224-0.828,1.8
		c-0.313,0.576-0.637,1.128-0.972,1.656c-0.817,1.393-1.692,2.736-2.628,4.032c-0.936,1.296-1.884,2.592-2.844,3.888
		c-1.2,1.632-2.4,3.24-3.6,4.824c-1.201,1.584-2.424,3.168-3.672,4.752c-0.192,0.192-0.36,0.432-0.504,0.72l-0.288,0.864
		l-0.648,1.728c-0.432,1.2-0.792,2.304-1.08,3.312c-0.288,0.96-0.504,1.896-0.648,2.808c-0.097,0.529-0.144,1.068-0.144,1.62
		c0,0.553,0.12,1.093,0.36,1.62c0.335,0.817,0.888,1.116,1.656,0.9c0.768-0.216,1.572-0.659,2.412-1.332
		c0.839-0.671,1.62-1.392,2.34-2.16c0.72-0.768,1.199-1.296,1.44-1.584l2.232-2.448c0.144-0.144,0.299-0.335,0.468-0.576
		c0.167-0.24,0.36-0.443,0.576-0.612c0.216-0.167,0.432-0.275,0.648-0.324c0.216-0.047,0.419,0.048,0.612,0.288
		c0.191,0.241,0.24,0.468,0.144,0.684c-0.097,0.216-0.216,0.421-0.36,0.612c-0.241,0.241-0.457,0.48-0.648,0.72
		c-0.192,0.241-0.385,0.48-0.576,0.72l-2.376,2.52c-0.625,0.673-1.26,1.332-1.908,1.98s-1.332,1.236-2.052,1.764
		c-0.529,0.385-1.057,0.72-1.584,1.008c-0.529,0.288-1.128,0.408-1.8,0.36c-1.104,0-1.896-0.432-2.376-1.296
		c-0.48-0.864-0.745-1.775-0.792-2.736c-0.048-1.152,0.083-2.304,0.396-3.456c0.312-1.152,0.66-2.279,1.044-3.384
		c-0.241,0.288-0.468,0.576-0.684,0.864c-0.216,0.288-0.444,0.576-0.684,0.864c-0.241,0.241-0.529,0.36-0.864,0.36
		c-0.336,0-0.552-0.191-0.648-0.576c-0.097-0.335,0.024-0.684,0.36-1.044c0.335-0.36,0.6-0.659,0.792-0.9l1.728-2.232
		c0.24-0.239,0.443-0.479,0.612-0.72c0.167-0.24,0.371-0.479,0.612-0.72c0.096-0.096,0.191-0.216,0.288-0.36
		c0.096-0.144,0.167-0.288,0.216-0.432c0.096-0.096,0.155-0.216,0.18-0.36c0.023-0.144,0.083-0.288,0.18-0.432
		c0.335-0.864,0.659-1.715,0.972-2.556c0.312-0.839,0.66-1.667,1.044-2.484c0.528-1.296,1.044-2.592,1.548-3.888
		c0.504-1.296,1.044-2.567,1.62-3.816c0.383-0.864,0.792-1.728,1.224-2.592c0.432-0.864,0.864-1.728,1.296-2.592
		c0.383-0.768,0.803-1.523,1.26-2.268c0.456-0.744,0.972-1.451,1.548-2.124c0.479-0.624,1.14-1.199,1.98-1.728
		C137.056,10.2,137.884,10.152,138.701,10.584z M137.909,15.192c0.191-0.383,0.36-0.888,0.504-1.512
		c0.144-0.624,0.047-1.127-0.288-1.512c-0.097-0.144-0.241-0.216-0.432-0.216c-0.192,0-0.36,0.024-0.504,0.072
		c-0.673,0.288-1.249,0.756-1.728,1.404c-0.48,0.648-0.912,1.285-1.296,1.908c-0.432,0.673-0.828,1.357-1.188,2.052
		c-0.36,0.696-0.709,1.404-1.044,2.124c-0.529,1.056-1.033,2.1-1.512,3.132c-0.48,1.033-0.936,2.077-1.368,3.132l-2.16,5.4
		c1.104-1.487,2.207-2.963,3.312-4.428c1.104-1.464,2.184-2.939,3.24-4.428c0.816-1.152,1.608-2.315,2.376-3.492
		C136.588,17.652,137.285,16.441,137.909,15.192z"/>
	<path fill="none" stroke="#000000" stroke-width="2" stroke-miterlimit="10" d="M149.573,41.112
		c0.335,0.288,0.407,0.601,0.216,0.936c-0.192,0.336-0.385,0.625-0.576,0.864l-1.728,1.944c-0.529,0.529-1.044,1.044-1.548,1.548
		c-0.504,0.504-1.044,1.021-1.62,1.548c-1.152,0.96-2.46,1.848-3.924,2.664c-1.464,0.816-2.988,1.128-4.572,0.936
		c-0.769-0.095-1.452-0.347-2.052-0.756c-0.601-0.407-1.069-0.972-1.404-1.692c-0.385-0.815-0.552-1.692-0.504-2.628
		c0.047-0.936,0.167-1.836,0.36-2.7c0.432-1.824,1.127-3.575,2.088-5.256c0.96-1.68,2.135-3.143,3.528-4.392
		c0.576-0.527,1.199-1.008,1.872-1.44c0.671-0.432,1.392-0.72,2.16-0.864c0.816-0.144,1.644-0.083,2.484,0.18
		c0.839,0.265,1.404,0.828,1.692,1.692c0.191,0.673,0.191,1.296,0,1.872c-0.192,0.576-0.468,1.128-0.828,1.656
		c-0.36,0.529-0.792,1.008-1.296,1.44s-0.997,0.817-1.476,1.152c-0.817,0.529-1.656,0.972-2.52,1.332
		c-0.864,0.36-1.753,0.684-2.664,0.972c-0.288,0.097-0.576,0.18-0.864,0.252c-0.288,0.072-0.576,0.156-0.864,0.252l-0.864,0.216
		c-0.097,0-0.169,0.013-0.216,0.036c-0.048,0.025-0.12,0.036-0.216,0.036c-0.048,0-0.072,0.048-0.072,0.144
		c0,0.097-0.025,0.144-0.072,0.144c-0.385,1.249-0.576,2.448-0.576,3.6c0.047,0.385,0.12,0.792,0.216,1.224
		c0.096,0.432,0.288,0.817,0.576,1.152c0.576,0.48,1.176,0.72,1.8,0.72c0.671,0.097,1.343,0.036,2.016-0.18
		c0.671-0.216,1.319-0.468,1.944-0.756c0.815-0.479,1.607-1.019,2.376-1.62c0.767-0.6,1.512-1.235,2.232-1.908
		c0.432-0.384,0.852-0.803,1.26-1.26c0.407-0.456,0.803-0.9,1.188-1.332l1.296-1.584C148.756,40.824,149.141,40.777,149.573,41.112z
		 M142.373,33.408c-0.817,0.097-1.573,0.396-2.268,0.9c-0.697,0.504-1.309,1.044-1.836,1.62c-1.296,1.44-2.401,3.144-3.312,5.112
		c1.487-0.384,2.988-0.888,4.5-1.512c1.512-0.623,2.795-1.487,3.852-2.592c0.672-0.672,1.08-1.368,1.224-2.088
		c0.096-0.672-0.108-1.104-0.612-1.296C143.417,33.361,142.9,33.312,142.373,33.408z"/>
	<path fill="none" stroke="#000000" stroke-width="2" stroke-miterlimit="10" d="M165.557,41.184
		c0.191-0.24,0.443-0.312,0.756-0.216c0.312,0.097,0.515,0.288,0.612,0.576c0.096,0.241,0.072,0.444-0.072,0.612
		c-0.144,0.169-0.288,0.324-0.432,0.468l-2.736,2.88c-1.44,1.393-3,2.676-4.68,3.852c-1.681,1.177-3.553,1.933-5.616,2.268
		c-0.912,0.144-1.825,0.156-2.736,0.036c-0.913-0.12-1.705-0.564-2.376-1.332c-0.529-0.624-0.864-1.308-1.008-2.052
		c-0.144-0.744-0.168-1.5-0.072-2.268c0.144-1.919,0.708-3.768,1.692-5.544c0.983-1.775,2.099-3.359,3.348-4.752
		c0.671-0.671,1.392-1.343,2.16-2.016c0.767-0.671,1.631-1.104,2.592-1.296c0.767-0.096,1.451,0.048,2.052,0.432
		c0.6,0.385,1.02,0.936,1.26,1.656c0.047,0.144,0.108,0.349,0.18,0.612c0.072,0.264,0.095,0.529,0.072,0.792
		c-0.025,0.264-0.097,0.468-0.216,0.612c-0.121,0.144-0.349,0.192-0.684,0.144c-0.336-0.096-0.529-0.252-0.576-0.468
		c-0.048-0.216-0.097-0.443-0.144-0.684c-0.097-0.479-0.288-0.864-0.576-1.152c-0.288-0.288-0.625-0.396-1.008-0.324
		c-0.385,0.072-0.745,0.205-1.08,0.396c-0.528,0.241-0.997,0.565-1.404,0.972c-0.408,0.408-0.804,0.804-1.188,1.188
		c-1.488,1.632-2.689,3.36-3.6,5.184c-0.385,0.72-0.684,1.476-0.9,2.268s-0.349,1.597-0.396,2.412
		c-0.048,0.673,0.036,1.344,0.252,2.016c0.216,0.673,0.659,1.152,1.332,1.44c0.432,0.192,0.9,0.288,1.404,0.288
		c0.504,0,0.996-0.047,1.476-0.144c1.055-0.24,2.016-0.551,2.88-0.936c1.872-0.815,3.564-1.968,5.076-3.456
		C162.713,44.161,164.164,42.672,165.557,41.184z"/>
	<path fill="none" stroke="#000000" stroke-width="2" stroke-miterlimit="10" d="M181.937,41.004
		c0.312,0.072,0.516,0.252,0.612,0.54c0.096,0.241,0,0.552-0.288,0.936c-0.241,0.241-0.468,0.504-0.684,0.792
		s-0.444,0.552-0.684,0.792c-0.816,0.961-1.62,1.933-2.412,2.916c-0.792,0.984-1.692,1.884-2.7,2.7
		c-0.72,0.576-1.537,1.044-2.448,1.404c-0.912,0.36-1.848,0.396-2.808,0.108c-0.72-0.191-1.272-0.563-1.656-1.116
		c-0.385-0.551-0.625-1.164-0.72-1.836c-0.097-0.72-0.121-1.44-0.072-2.16c0.047-0.72,0.144-1.416,0.288-2.088
		c0.24-1.104,0.504-2.184,0.792-3.24c0.288-1.055,0.623-2.112,1.008-3.168c-0.48,0.673-0.96,1.357-1.44,2.052
		c-0.48,0.696-0.984,1.38-1.512,2.052c-0.192,0.241-0.421,0.493-0.684,0.756c-0.265,0.265-0.565,0.252-0.9-0.036
		c-0.385-0.24-0.48-0.528-0.288-0.864c0.191-0.335,0.407-0.623,0.648-0.864c0.959-1.296,1.883-2.604,2.772-3.924
		c0.888-1.319,1.739-2.675,2.556-4.068h-3.24c-0.336,0-0.588-0.119-0.756-0.36c-0.169-0.24-0.18-0.504-0.036-0.792
		c0.096-0.24,0.252-0.372,0.468-0.396c0.216-0.024,0.443-0.036,0.684-0.036h3.816l0.72-1.512c0.672-1.343,1.307-2.711,1.908-4.104
		c0.6-1.392,1.188-2.783,1.764-4.176c0.144-0.384,0.42-0.551,0.828-0.504c0.407,0.048,0.636,0.288,0.684,0.72
		c0.047,0.241,0.011,0.48-0.108,0.72c-0.121,0.241-0.229,0.457-0.324,0.648l-1.08,2.736c-0.385,0.913-0.756,1.812-1.116,2.7
		c-0.36,0.889-0.732,1.812-1.116,2.772h4.968c0.288,0,0.648-0.011,1.08-0.036c0.432-0.023,0.72,0.133,0.864,0.468
		c0.144,0.288,0.119,0.552-0.072,0.792c-0.192,0.241-0.432,0.36-0.72,0.36h-6.768c-0.097,0-0.205,0.205-0.324,0.612
		c-0.121,0.409-0.205,0.661-0.252,0.756l-0.576,1.512l-1.152,3.168c-0.336,0.961-0.637,1.933-0.9,2.916
		c-0.264,0.984-0.493,1.98-0.684,2.988c-0.097,0.673-0.18,1.368-0.252,2.088c-0.072,0.72,0.036,1.393,0.324,2.016
		c0.191,0.48,0.479,0.781,0.864,0.9c0.384,0.12,0.792,0.144,1.224,0.072c0.432-0.072,0.864-0.204,1.296-0.396
		c0.432-0.191,0.792-0.407,1.08-0.648c0.96-0.671,1.824-1.463,2.592-2.376c0.767-0.911,1.536-1.847,2.304-2.808l1.872-2.232
		C181.372,41.017,181.624,40.932,181.937,41.004z"/>
	<path fill="none" stroke="#000000" stroke-width="2" stroke-miterlimit="10" d="M202.996,41.184
		c0.384,0.385,0.432,0.768,0.145,1.152c-0.289,0.385-0.553,0.696-0.793,0.936l-1.943,1.944c-0.529,0.48-1.105,0.925-1.728,1.332
		c-0.625,0.409-1.272,0.732-1.944,0.972c-0.385,0.097-0.792,0.18-1.224,0.252c-0.432,0.072-0.864,0.061-1.296-0.036
		c-0.241-0.047-0.457-0.083-0.648-0.108c-0.192-0.023-0.409-0.083-0.648-0.18c-0.288-0.096-0.504-0.191-0.648-0.288l-0.648,0.648
		c-0.768,0.816-1.608,1.548-2.52,2.196c-0.912,0.648-1.92,1.092-3.024,1.332c-1.008,0.241-1.98,0.192-2.916-0.144
		c-0.936-0.335-1.668-0.983-2.196-1.944c-0.385-0.767-0.601-1.595-0.648-2.484c-0.048-0.888,0-1.739,0.144-2.556
		c0.335-1.775,0.947-3.467,1.836-5.076c0.888-1.607,1.955-3.06,3.204-4.356c0.72-0.72,1.487-1.415,2.304-2.088
		c0.191-0.096,0.396-0.24,0.612-0.432c0.216-0.191,0.443-0.288,0.684-0.288c0.528,0.097,0.792,0.385,0.792,0.864
		c-0.048,0.288-0.168,0.504-0.36,0.648c-0.192,0.144-0.385,0.288-0.576,0.432c-0.432,0.288-0.816,0.601-1.152,0.936
		c-0.817,0.672-1.537,1.393-2.16,2.16c-0.576,0.769-1.104,1.548-1.584,2.34c-0.48,0.792-0.889,1.645-1.224,2.556
		c-0.288,0.72-0.529,1.453-0.72,2.196c-0.192,0.745-0.264,1.524-0.216,2.34c0.047,0.961,0.335,1.8,0.864,2.52
		c0.528,0.72,1.32,1.008,2.376,0.864c1.104-0.144,2.148-0.564,3.132-1.26c0.983-0.695,1.836-1.451,2.556-2.268
		c-0.624-0.576-1.08-1.26-1.368-2.052c-0.288-0.792-0.457-1.62-0.504-2.484c-0.048-0.864,0-1.728,0.144-2.592
		c0.144-0.864,0.335-1.68,0.576-2.448c0.24-0.816,0.576-1.631,1.008-2.448c0.432-0.815,1.008-1.487,1.728-2.016
		c0.768-0.527,1.572-0.731,2.412-0.612c0.839,0.12,1.476,0.588,1.908,1.404c0.527,0.961,0.767,2.052,0.72,3.276
		c-0.048,1.224-0.264,2.34-0.648,3.348c-0.385,1.105-0.876,2.185-1.476,3.24c-0.601,1.056-1.26,2.041-1.98,2.952
		c0.768,0.288,1.523,0.36,2.268,0.216c0.744-0.144,1.451-0.432,2.124-0.864c0.911-0.623,1.728-1.319,2.448-2.088l1.512-1.584
		c0.144-0.24,0.335-0.419,0.576-0.54C202.516,40.885,202.756,40.944,202.996,41.184z M191.908,45.072
		c0.767-1.008,1.416-1.967,1.944-2.88c0.624-1.008,1.127-2.076,1.512-3.204c0.384-1.127,0.528-2.315,0.432-3.564
		c-0.048-0.383-0.121-0.779-0.216-1.188c-0.097-0.407-0.336-0.731-0.72-0.972c-0.336-0.144-0.673-0.132-1.008,0.036
		c-0.336,0.169-0.624,0.373-0.864,0.612c-0.673,0.72-1.188,1.573-1.548,2.556c-0.36,0.984-0.612,1.957-0.756,2.916
		c-0.144,0.961-0.156,1.969-0.036,3.024C190.768,43.464,191.188,44.352,191.908,45.072z"/>
	<path fill="none" stroke="#000000" stroke-width="2" stroke-miterlimit="10" d="M221.211,40.752c0.191,0,0.36,0.072,0.504,0.216
		c0.145,0.144,0.24,0.324,0.289,0.54c0.047,0.216-0.025,0.421-0.217,0.612l-0.72,0.864l-2.521,2.808
		c-0.672,0.817-1.367,1.609-2.088,2.376c-0.72,0.769-1.488,1.488-2.304,2.16c-0.528,0.432-1.069,0.84-1.62,1.224
		c-0.553,0.385-1.164,0.625-1.836,0.72c-0.529,0.048-0.972-0.023-1.332-0.216c-0.359-0.191-0.648-0.468-0.863-0.828
		c-0.217-0.36-0.36-0.756-0.433-1.188c-0.071-0.432-0.085-0.864-0.036-1.296c0.191-1.152,0.588-2.256,1.188-3.312
		c0.601-1.055,1.213-2.063,1.837-3.024c0.335-0.528,0.659-1.056,0.972-1.584c0.312-0.528,0.636-1.08,0.973-1.656
		c0.191-0.384,0.406-0.815,0.647-1.296c0.239-0.479,0.335-0.936,0.288-1.368c-0.049-0.24-0.359-0.348-0.936-0.324
		c-0.576,0.024-0.961,0.036-1.152,0.036c-0.48-0.047-0.925-0.144-1.332-0.288c-0.408-0.144-0.709-0.479-0.9-1.008
		c-0.816,1.008-1.645,1.98-2.484,2.916s-1.668,1.884-2.483,2.844l-1.368,1.44c-0.192,0.192-0.385,0.336-0.576,0.432
		c-0.191,0.097-0.408,0.072-0.647-0.072c-0.288-0.144-0.433-0.335-0.433-0.576c0-0.239,0.096-0.479,0.289-0.72
		c0.19-0.24,0.396-0.468,0.611-0.684s0.396-0.396,0.54-0.54c0.72-0.767,1.428-1.536,2.124-2.304
		c0.695-0.767,1.379-1.559,2.052-2.376l2.304-2.808l1.08-1.224c0.24-0.335,0.552-0.419,0.937-0.252
		c0.384,0.168,0.552,0.444,0.504,0.828c-0.048,0.241-0.144,0.48-0.288,0.72c-0.145,0.241-0.264,0.48-0.359,0.72
		c-0.049,0.144-0.098,0.276-0.145,0.396c-0.049,0.12-0.072,0.252-0.072,0.396c-0.049,0.192-0.061,0.312-0.035,0.36
		c0.023,0.048,0.154,0.097,0.396,0.144c0.479,0.048,0.947,0.048,1.403,0c0.456-0.047,0.9,0.025,1.332,0.216
		c0.528,0.192,0.889,0.504,1.08,0.936s0.24,0.889,0.145,1.368c-0.192,0.96-0.576,1.92-1.152,2.88
		c-0.287,0.576-0.601,1.128-0.936,1.656c-0.336,0.528-0.673,1.056-1.008,1.584c-0.529,0.864-1.057,1.752-1.584,2.664
		c-0.529,0.913-0.912,1.872-1.152,2.88c-0.049,0.288-0.061,0.648-0.036,1.08c0.024,0.432,0.228,0.696,0.612,0.792
		c0.239,0.097,0.491,0.072,0.756-0.072c0.264-0.144,0.492-0.263,0.684-0.36c0.768-0.479,1.464-1.032,2.088-1.656
		c0.623-0.623,1.248-1.271,1.873-1.944l4.967-5.544C220.826,40.849,221.02,40.752,221.211,40.752z"/>
</g>
<g>
</g>
<g>
</g>
<g>
</g>
<g>
</g>
<g>
</g>
<g>
</g>
</svg>
