<?xml version="1.0" encoding="utf-8"?>
<!-- Generator: Adobe Illustrator 16.0.0, SVG Export Plug-In . SVG Version: 6.00 Build 0)  -->
<!DOCTYPE svg PUBLIC "-//W3C//DTD SVG 1.1//EN" "http://www.w3.org/Graphics/SVG/1.1/DTD/svg11.dtd">
<svg version="1.1" id="Layer_1" xmlns="http://www.w3.org/2000/svg" xmlns:xlink="http://www.w3.org/1999/xlink" x="0px" y="0px"
	 width="299px" height="82px" viewBox="0 0 299 82" enable-background="new 0 0 299 82" xml:space="preserve">
<g>
	<path fill="none" stroke="#000000" stroke-width="2" stroke-miterlimit="10" d="M99.785,10.584
		c0.815,0.385,1.248,1.069,1.296,2.052c0.047,0.984-0.072,1.836-0.36,2.556c-0.241,0.625-0.516,1.224-0.828,1.8
		c-0.313,0.576-0.637,1.128-0.972,1.656c-0.817,1.393-1.692,2.736-2.628,4.032c-0.936,1.296-1.884,2.592-2.844,3.888
		c-1.2,1.632-2.4,3.24-3.6,4.824c-1.201,1.584-2.424,3.168-3.672,4.752c-0.192,0.192-0.36,0.432-0.504,0.72l-0.288,0.864
		l-0.648,1.728c-0.432,1.2-0.792,2.304-1.08,3.312c-0.288,0.96-0.504,1.896-0.648,2.808c-0.097,0.529-0.144,1.068-0.144,1.62
		c0,0.553,0.12,1.093,0.36,1.62c0.335,0.817,0.888,1.116,1.656,0.9c0.768-0.216,1.572-0.659,2.412-1.332
		c0.839-0.671,1.62-1.392,2.34-2.16c0.72-0.768,1.199-1.296,1.44-1.584l2.232-2.448c0.144-0.144,0.299-0.335,0.468-0.576
		c0.167-0.24,0.36-0.443,0.576-0.612c0.216-0.167,0.432-0.275,0.648-0.324c0.216-0.047,0.419,0.048,0.612,0.288
		c0.191,0.241,0.24,0.468,0.144,0.684c-0.097,0.216-0.216,0.421-0.36,0.612c-0.241,0.241-0.457,0.48-0.648,0.72
		c-0.192,0.241-0.385,0.48-0.576,0.72l-2.376,2.52c-0.625,0.673-1.26,1.332-1.908,1.98s-1.332,1.236-2.052,1.764
		c-0.529,0.385-1.057,0.72-1.584,1.008c-0.529,0.288-1.128,0.408-1.8,0.36c-1.104,0-1.896-0.432-2.376-1.296
		c-0.48-0.864-0.745-1.775-0.792-2.736c-0.048-1.152,0.083-2.304,0.396-3.456c0.312-1.152,0.66-2.279,1.044-3.384
		c-0.241,0.288-0.468,0.576-0.684,0.864c-0.216,0.288-0.444,0.576-0.684,0.864c-0.241,0.241-0.529,0.36-0.864,0.36
		c-0.336,0-0.552-0.191-0.648-0.576c-0.097-0.335,0.024-0.684,0.36-1.044c0.335-0.36,0.6-0.659,0.792-0.9l1.728-2.232
		c0.24-0.239,0.443-0.479,0.612-0.72c0.167-0.24,0.371-0.479,0.612-0.72c0.096-0.096,0.191-0.216,0.288-0.36
		c0.096-0.144,0.167-0.288,0.216-0.432c0.096-0.096,0.155-0.216,0.18-0.36c0.023-0.144,0.083-0.288,0.18-0.432
		c0.335-0.864,0.659-1.715,0.972-2.556c0.312-0.839,0.66-1.667,1.044-2.484c0.528-1.296,1.044-2.592,1.548-3.888
		c0.504-1.296,1.044-2.567,1.62-3.816c0.383-0.864,0.792-1.728,1.224-2.592c0.432-0.864,0.864-1.728,1.296-2.592
		c0.383-0.768,0.803-1.523,1.26-2.268c0.456-0.744,0.972-1.451,1.548-2.124c0.479-0.624,1.14-1.199,1.98-1.728
		C98.14,10.2,98.968,10.152,99.785,10.584z M98.993,15.192c0.191-0.383,0.36-0.888,0.504-1.512c0.144-0.624,0.047-1.127-0.288-1.512
		c-0.097-0.144-0.241-0.216-0.432-0.216c-0.192,0-0.36,0.024-0.504,0.072c-0.673,0.288-1.249,0.756-1.728,1.404
		c-0.48,0.648-0.912,1.285-1.296,1.908c-0.432,0.673-0.828,1.357-1.188,2.052c-0.36,0.696-0.709,1.404-1.044,2.124
		c-0.529,1.056-1.033,2.1-1.512,3.132c-0.48,1.033-0.936,2.077-1.368,3.132l-2.16,5.4c1.104-1.487,2.207-2.963,3.312-4.428
		c1.104-1.464,2.184-2.939,3.24-4.428c0.816-1.152,1.608-2.315,2.376-3.492C97.672,17.652,98.369,16.441,98.993,15.192z"/>
	<path fill="none" stroke="#000000" stroke-width="2" stroke-miterlimit="10" d="M107.705,41.184
		c0.288,0.241,0.372,0.493,0.252,0.756c-0.121,0.265-0.252,0.517-0.396,0.756l-1.296,1.44c-0.624,0.72-1.249,1.44-1.872,2.16
		c-0.624,0.72-1.272,1.417-1.944,2.088c-0.529,0.529-1.056,1.021-1.584,1.476c-0.529,0.457-1.104,0.876-1.728,1.26
		c-0.432,0.241-0.925,0.457-1.476,0.648c-0.552,0.192-1.068,0.168-1.548-0.072c-0.385-0.191-0.648-0.468-0.792-0.828
		c-0.144-0.36-0.241-0.731-0.288-1.116c-0.097-0.815-0.048-1.607,0.144-2.376c0.191-0.767,0.407-1.512,0.648-2.232
		c0.384-1.104,0.803-2.184,1.26-3.24c0.456-1.055,0.947-2.135,1.476-3.24l-3.24,3.816c-0.385,0.432-0.781,0.493-1.188,0.18
		c-0.408-0.312-0.421-0.731-0.036-1.26l1.08-1.296l4.896-5.616l1.584-1.872c0.24-0.335,0.528-0.479,0.864-0.432
		c0.239,0.097,0.419,0.241,0.54,0.432c0.119,0.192,0.131,0.408,0.036,0.648c-0.048,0.144-0.108,0.288-0.18,0.432
		c-0.072,0.144-0.157,0.288-0.252,0.432c-0.817,1.537-1.597,3.072-2.34,4.608c-0.745,1.537-1.452,3.121-2.124,4.752
		c-0.288,0.673-0.552,1.357-0.792,2.052c-0.241,0.696-0.457,1.404-0.648,2.124c-0.144,0.625-0.192,1.2-0.144,1.728
		c0,0.097,0.011,0.264,0.036,0.504c0.023,0.241,0.108,0.36,0.252,0.36c0.191,0.048,0.396,0.025,0.612-0.072
		c0.216-0.096,0.396-0.191,0.54-0.288c0.576-0.335,1.152-0.744,1.728-1.224c0.576-0.527,1.116-1.055,1.62-1.584
		c0.504-0.527,1.019-1.055,1.548-1.584c0.96-1.055,1.872-2.111,2.736-3.168c0.239-0.24,0.54-0.576,0.9-1.008
		C106.949,40.896,107.32,40.849,107.705,41.184z M105.977,22.536c-0.384-0.191-0.601-0.504-0.648-0.936
		c-0.048-0.432,0.024-0.828,0.216-1.188c0.191-0.36,0.468-0.636,0.828-0.828c0.36-0.191,0.731-0.191,1.116,0
		c0.384,0.241,0.6,0.565,0.648,0.972c0.047,0.408-0.025,0.792-0.216,1.152c-0.192,0.36-0.468,0.637-0.828,0.828
		C106.733,22.729,106.36,22.729,105.977,22.536z"/>
	<path fill="none" stroke="#000000" stroke-width="2" stroke-miterlimit="10" d="M120.017,41.256
		c0.144-0.191,0.335-0.299,0.576-0.324c0.239-0.024,0.456,0.061,0.648,0.252c0.288,0.385,0.263,0.792-0.072,1.224
		c-0.385,0.48-0.781,0.948-1.188,1.404c-0.408,0.457-0.828,0.9-1.26,1.332c-0.673,0.673-1.393,1.308-2.16,1.908
		c-0.769,0.601-1.584,1.116-2.448,1.548c-1.537,0.864-3.096,1.321-4.68,1.368c-0.241,0.049-0.457,0.072-0.648,0.072
		c-0.192,0-0.409,0-0.648,0c-0.288,0-0.504-0.023-0.648-0.072c-0.048,0.049-0.072,0.144-0.072,0.288
		c-0.097,0.385-0.12,0.792-0.072,1.224c0.047,0.432,0.096,0.84,0.144,1.224c0.144,1.104,0.299,2.232,0.468,3.384
		c0.167,1.152,0.288,2.304,0.36,3.456c0.072,1.152,0.072,2.293,0,3.42c-0.072,1.126-0.276,2.244-0.612,3.347
		c-0.432,1.393-1.152,2.664-2.16,3.816c-1.008,1.152-2.28,1.752-3.816,1.801c-0.911,0-1.703-0.252-2.376-0.756
		c-0.671-0.504-1.127-1.188-1.368-2.053c-0.144-0.672-0.155-1.355-0.036-2.051c0.12-0.697,0.252-1.381,0.396-2.053
		c0.432-1.824,0.997-3.625,1.692-5.4c0.696-1.776,1.404-3.552,2.124-5.328l5.112-11.736c-0.385,0.049-0.648-0.095-0.792-0.432
		c-0.144-0.335-0.097-0.648,0.144-0.936l0.72-0.792l0.864-0.864c0.096-0.191,0.228-0.36,0.396-0.504
		c0.168-0.144,0.299-0.335,0.396-0.576c0.288-0.576,0.6-1.248,0.936-2.016l1.08-2.592c0.959-2.448,1.944-4.86,2.952-7.236
		c1.008-2.376,2.016-4.788,3.024-7.236c0.383-0.912,0.767-1.812,1.152-2.7c0.384-0.888,0.767-1.788,1.152-2.7
		c0.384-0.815,0.864-1.559,1.44-2.232c0.576-0.671,1.319-1.127,2.232-1.368c0.671-0.24,1.355-0.263,2.052-0.072
		c0.695,0.192,1.284,0.576,1.764,1.152c0.576,0.672,0.864,1.464,0.864,2.376c0,0.912-0.12,1.776-0.36,2.592
		c-0.48,1.393-1.116,2.725-1.908,3.996c-0.792,1.272-1.62,2.509-2.484,3.708c-1.056,1.488-2.148,2.952-3.276,4.392
		c-1.128,1.44-2.268,2.88-3.42,4.32l-3.312,3.816l-1.512,1.728l-0.648,0.72c-0.288,0.336-0.48,0.648-0.576,0.936
		c-0.673,1.537-1.332,3.048-1.98,4.536c-0.648,1.488-1.308,3-1.98,4.536c0.144-0.335,0.384-0.528,0.72-0.576
		c0.335-0.047,0.671-0.072,1.008-0.072c0.288,0,0.576,0,0.864,0s0.6-0.023,0.936-0.072c1.104-0.144,2.232-0.479,3.384-1.008
		c1.392-0.671,2.652-1.572,3.78-2.7C118.012,43.549,119.056,42.408,120.017,41.256z M106.697,62.065
		c0.047-1.105,0.011-2.209-0.108-3.313c-0.12-1.104-0.252-2.208-0.396-3.312c-0.097-0.529-0.168-1.044-0.216-1.548
		c-0.048-0.504-0.097-1.02-0.144-1.548c-0.144-0.816-0.144-1.656,0-2.52c-0.625,1.393-1.236,2.796-1.836,4.212
		c-0.601,1.415-1.165,2.844-1.692,4.284c-0.432,1.104-0.852,2.208-1.26,3.312c-0.407,1.104-0.756,2.207-1.044,3.312
		c-0.096,0.336-0.167,0.672-0.216,1.008c-0.047,0.336-0.096,0.695-0.144,1.08c-0.096,0.385-0.144,0.756-0.144,1.117
		c0,0.359,0.097,0.73,0.288,1.115c0.288,0.576,0.745,0.9,1.368,0.973c0.624,0.07,1.2-0.014,1.728-0.252
		c0.72-0.289,1.332-0.732,1.836-1.332c0.504-0.602,0.9-1.273,1.188-2.018c0.288-0.744,0.491-1.512,0.612-2.303
		C106.636,63.539,106.697,62.784,106.697,62.065z M112.385,34.776c1.343-1.584,2.675-3.179,3.996-4.788
		c1.32-1.607,2.604-3.251,3.852-4.932c0.576-0.768,1.14-1.548,1.692-2.34c0.551-0.792,1.091-1.595,1.62-2.412
		c0.384-0.672,0.756-1.332,1.116-1.98c0.36-0.648,0.684-1.332,0.972-2.052c0.144-0.335,0.263-0.708,0.36-1.116
		c0.096-0.407,0.131-0.828,0.108-1.26c-0.025-0.432-0.121-0.815-0.288-1.152c-0.168-0.335-0.468-0.6-0.9-0.792
		c-0.72-0.335-1.417-0.263-2.088,0.216c-0.673,0.48-1.201,1.008-1.584,1.584c-0.241,0.385-0.457,0.804-0.648,1.26
		c-0.192,0.457-0.385,0.9-0.576,1.332l-1.152,2.736c-0.48,1.104-0.936,2.208-1.368,3.312c-0.432,1.104-0.889,2.208-1.368,3.312
		L112.385,34.776z"/>
	<path fill="none" stroke="#000000" stroke-width="2" stroke-miterlimit="10" d="M136.576,41.112
		c0.335,0.288,0.407,0.601,0.216,0.936c-0.192,0.336-0.385,0.625-0.576,0.864l-1.728,1.944c-0.529,0.529-1.044,1.044-1.548,1.548
		c-0.504,0.504-1.044,1.021-1.62,1.548c-1.152,0.96-2.46,1.848-3.924,2.664c-1.464,0.816-2.988,1.128-4.572,0.936
		c-0.769-0.095-1.452-0.347-2.052-0.756c-0.601-0.407-1.069-0.972-1.404-1.692c-0.385-0.815-0.552-1.692-0.504-2.628
		c0.047-0.936,0.167-1.836,0.36-2.7c0.432-1.824,1.127-3.575,2.088-5.256c0.96-1.68,2.135-3.143,3.528-4.392
		c0.576-0.527,1.199-1.008,1.872-1.44c0.671-0.432,1.392-0.72,2.16-0.864c0.816-0.144,1.644-0.083,2.484,0.18
		c0.839,0.265,1.404,0.828,1.692,1.692c0.191,0.673,0.191,1.296,0,1.872c-0.192,0.576-0.468,1.128-0.828,1.656
		c-0.36,0.529-0.792,1.008-1.296,1.44s-0.997,0.817-1.476,1.152c-0.817,0.529-1.656,0.972-2.52,1.332
		c-0.864,0.36-1.753,0.684-2.664,0.972c-0.288,0.097-0.576,0.18-0.864,0.252c-0.288,0.072-0.576,0.156-0.864,0.252l-0.864,0.216
		c-0.097,0-0.169,0.013-0.216,0.036c-0.048,0.025-0.12,0.036-0.216,0.036c-0.048,0-0.072,0.048-0.072,0.144
		c0,0.097-0.025,0.144-0.072,0.144c-0.385,1.249-0.576,2.448-0.576,3.6c0.047,0.385,0.12,0.792,0.216,1.224
		c0.096,0.432,0.288,0.817,0.576,1.152c0.576,0.48,1.176,0.72,1.8,0.72c0.671,0.097,1.343,0.036,2.016-0.18
		c0.671-0.216,1.319-0.468,1.944-0.756c0.815-0.479,1.607-1.019,2.376-1.62c0.767-0.6,1.512-1.235,2.232-1.908
		c0.432-0.384,0.852-0.803,1.26-1.26c0.407-0.456,0.803-0.9,1.188-1.332l1.296-1.584C135.759,40.824,136.144,40.777,136.576,41.112z
		 M129.376,33.408c-0.817,0.097-1.573,0.396-2.268,0.9c-0.697,0.504-1.309,1.044-1.836,1.62c-1.296,1.44-2.401,3.144-3.312,5.112
		c1.487-0.384,2.988-0.888,4.5-1.512c1.512-0.623,2.795-1.487,3.852-2.592c0.672-0.672,1.08-1.368,1.224-2.088
		c0.096-0.672-0.108-1.104-0.612-1.296C130.42,33.361,129.903,33.312,129.376,33.408z"/>
	<path fill="none" stroke="#000000" stroke-width="2" stroke-miterlimit="10" d="M152.56,41.184c0.191-0.24,0.443-0.312,0.756-0.216
		c0.312,0.097,0.515,0.288,0.612,0.576c0.096,0.241,0.072,0.444-0.072,0.612c-0.144,0.169-0.288,0.324-0.432,0.468l-2.736,2.88
		c-1.44,1.393-3,2.676-4.68,3.852c-1.681,1.177-3.553,1.933-5.616,2.268c-0.912,0.144-1.825,0.156-2.736,0.036
		c-0.913-0.12-1.705-0.564-2.376-1.332c-0.529-0.624-0.864-1.308-1.008-2.052c-0.144-0.744-0.168-1.5-0.072-2.268
		c0.144-1.919,0.708-3.768,1.692-5.544c0.983-1.775,2.099-3.359,3.348-4.752c0.671-0.671,1.392-1.343,2.16-2.016
		c0.767-0.671,1.631-1.104,2.592-1.296c0.767-0.096,1.451,0.048,2.052,0.432c0.6,0.385,1.02,0.936,1.26,1.656
		c0.047,0.144,0.108,0.349,0.18,0.612c0.072,0.264,0.095,0.529,0.072,0.792c-0.025,0.264-0.097,0.468-0.216,0.612
		c-0.121,0.144-0.349,0.192-0.684,0.144c-0.336-0.096-0.529-0.252-0.576-0.468c-0.048-0.216-0.097-0.443-0.144-0.684
		c-0.097-0.479-0.288-0.864-0.576-1.152c-0.288-0.288-0.625-0.396-1.008-0.324c-0.385,0.072-0.745,0.205-1.08,0.396
		c-0.528,0.241-0.997,0.565-1.404,0.972c-0.408,0.408-0.804,0.804-1.188,1.188c-1.488,1.632-2.689,3.36-3.6,5.184
		c-0.385,0.72-0.684,1.476-0.9,2.268s-0.349,1.597-0.396,2.412c-0.048,0.673,0.036,1.344,0.252,2.016
		c0.216,0.673,0.659,1.152,1.332,1.44c0.432,0.192,0.9,0.288,1.404,0.288c0.504,0,0.996-0.047,1.476-0.144
		c1.055-0.24,2.016-0.551,2.88-0.936c1.872-0.815,3.564-1.968,5.076-3.456C149.716,44.161,151.167,42.672,152.56,41.184z"/>
	<path fill="none" stroke="#000000" stroke-width="2" stroke-miterlimit="10" d="M179.992,41.256
		c0.191-0.239,0.419-0.348,0.684-0.324c0.263,0.024,0.468,0.156,0.612,0.396c0.191,0.288,0.204,0.552,0.036,0.792
		c-0.169,0.241-0.349,0.48-0.54,0.72l-2.664,3.024c-0.961,0.961-1.92,1.92-2.88,2.88c-0.961,0.96-1.969,1.896-3.024,2.808
		l-1.44,1.296c-0.241,0.192-0.409,0.432-0.504,0.72c-0.097,0.288-0.192,0.551-0.288,0.792c-0.097,0.24-0.192,0.479-0.288,0.72
		c-0.097,0.24-0.192,0.479-0.288,0.72c-0.144,0.432-0.3,0.864-0.468,1.296c-0.168,0.432-0.349,0.864-0.54,1.296
		c-0.432,1.056-0.864,2.099-1.296,3.132c-0.432,1.031-0.889,2.052-1.368,3.06c-0.385,0.814-0.817,1.619-1.296,2.412
		c-0.48,0.791-1.033,1.523-1.656,2.195c-0.529,0.623-1.165,1.164-1.908,1.619c-0.745,0.457-1.548,0.709-2.412,0.758
		c-1.008,0.096-1.825-0.205-2.448-0.9c-0.625-0.697-0.936-1.549-0.936-2.557c0.047-1.393,0.468-2.699,1.26-3.924
		c0.792-1.224,1.644-2.316,2.556-3.275c0.816-0.865,1.667-1.682,2.556-2.449c0.888-0.768,1.811-1.512,2.772-2.232l2.952-2.376
		l1.44-1.296c0.096-0.096,0.204-0.18,0.324-0.252c0.12-0.072,0.204-0.155,0.252-0.252l0.216-0.504c0.72-1.823,1.44-3.624,2.16-5.4
		c0.72-1.775,1.463-3.575,2.232-5.4c-1.105,1.488-2.245,2.941-3.42,4.356c-1.177,1.417-2.46,2.725-3.852,3.924
		c-0.576,0.528-1.213,1.008-1.908,1.44c-0.696,0.432-1.452,0.72-2.268,0.864c-0.385,0.097-0.768,0.097-1.152,0
		c-0.385-0.096-0.72-0.263-1.008-0.504c-0.288-0.24-0.493-0.515-0.612-0.828c-0.12-0.312-0.18-0.659-0.18-1.044
		c-0.048-0.479-0.024-0.947,0.072-1.404c0.096-0.456,0.191-0.924,0.288-1.404l1.152-3.456c0.384-1.008,0.767-2.027,1.152-3.06
		c0.384-1.032,0.672-2.1,0.864-3.204c0.096-0.335,0.155-0.684,0.18-1.044c0.024-0.36-0.036-0.684-0.18-0.972
		s-0.36-0.432-0.648-0.432s-0.553,0.048-0.792,0.144c-0.336,0.144-0.637,0.336-0.9,0.576c-0.265,0.241-0.54,0.48-0.828,0.72
		c-0.336,0.385-0.673,0.732-1.008,1.044c-0.336,0.313-0.648,0.661-0.936,1.044l-2.88,3.384l-1.08,1.296
		c-0.241,0.241-0.529,0.36-0.864,0.36c-0.336,0-0.552-0.191-0.648-0.576c-0.097-0.288-0.048-0.528,0.144-0.72
		c0.191-0.191,0.36-0.383,0.504-0.576l1.152-1.368c0.672-0.767,1.32-1.523,1.944-2.268c0.623-0.744,1.271-1.451,1.944-2.124
		c0.527-0.527,1.08-1.044,1.656-1.548c0.576-0.504,1.224-0.828,1.944-0.972c0.72-0.144,1.392-0.023,2.016,0.36
		c0.672,0.529,1.008,1.272,1.008,2.232c0.096,1.104-0.036,2.208-0.396,3.312c-0.36,1.104-0.732,2.16-1.116,3.168
		c-0.385,1.008-0.768,2.028-1.152,3.06c-0.385,1.033-0.696,2.077-0.936,3.132c-0.048,0.288-0.084,0.612-0.108,0.972
		c-0.025,0.36,0.036,0.66,0.18,0.9c0.144,0.192,0.36,0.277,0.648,0.252c0.288-0.024,0.527-0.06,0.72-0.108
		c0.576-0.191,1.116-0.456,1.62-0.792c0.504-0.335,0.972-0.695,1.404-1.08c1.343-1.199,2.58-2.495,3.708-3.888
		c1.127-1.392,2.243-2.808,3.348-4.248c0.528-0.767,1.055-1.523,1.584-2.268c0.528-0.744,1.055-1.523,1.584-2.34
		c0.096-0.191,0.204-0.371,0.324-0.54c0.119-0.167,0.252-0.348,0.396-0.54c0.095-0.191,0.204-0.36,0.324-0.504
		c0.119-0.144,0.299-0.216,0.54-0.216c0.335-0.047,0.563,0.072,0.684,0.36c0.119,0.288,0.131,0.576,0.036,0.864l-6.12,15.192
		c1.392-1.296,2.772-2.64,4.14-4.032C177.436,44.256,178.743,42.793,179.992,41.256z M166.888,57.816
		c0.144-0.432,0.299-0.853,0.468-1.26c0.168-0.409,0.348-0.828,0.54-1.26c-1.2,0.96-2.412,1.919-3.636,2.88
		c-1.224,0.959-2.389,1.991-3.492,3.096c-0.673,0.672-1.321,1.404-1.944,2.195c-0.625,0.793-1.128,1.645-1.512,2.557
		c-0.241,0.479-0.432,1.02-0.576,1.619s-0.072,1.164,0.216,1.693c0.24,0.432,0.612,0.648,1.116,0.648
		c0.504,0,0.947-0.098,1.332-0.289c0.624-0.191,1.224-0.576,1.8-1.152c0.671-0.623,1.224-1.309,1.656-2.051
		c0.432-0.746,0.839-1.502,1.224-2.27c0.528-1.055,1.02-2.111,1.476-3.167C166.011,60,166.456,58.919,166.888,57.816z"/>
	<path fill="none" stroke="#000000" stroke-width="2" stroke-miterlimit="10" d="M197.055,41.184
		c0.191-0.24,0.443-0.312,0.756-0.216c0.312,0.097,0.515,0.288,0.612,0.576c0.096,0.241,0.072,0.444-0.072,0.612
		c-0.144,0.169-0.288,0.324-0.432,0.468l-2.736,2.88c-1.44,1.393-3,2.676-4.68,3.852c-1.681,1.177-3.553,1.933-5.616,2.268
		c-0.912,0.144-1.825,0.156-2.736,0.036c-0.913-0.12-1.705-0.564-2.376-1.332c-0.529-0.624-0.864-1.308-1.008-2.052
		c-0.144-0.744-0.168-1.5-0.072-2.268c0.144-1.919,0.708-3.768,1.692-5.544c0.983-1.775,2.099-3.359,3.348-4.752
		c0.671-0.671,1.392-1.343,2.16-2.016c0.767-0.671,1.631-1.104,2.592-1.296c0.767-0.096,1.451,0.048,2.052,0.432
		c0.6,0.385,1.02,0.936,1.26,1.656c0.047,0.144,0.108,0.349,0.18,0.612c0.072,0.264,0.095,0.529,0.072,0.792
		c-0.025,0.264-0.097,0.468-0.216,0.612c-0.121,0.144-0.349,0.192-0.684,0.144c-0.336-0.096-0.529-0.252-0.576-0.468
		c-0.048-0.216-0.097-0.443-0.144-0.684c-0.097-0.479-0.288-0.864-0.576-1.152c-0.288-0.288-0.625-0.396-1.008-0.324
		c-0.385,0.072-0.745,0.205-1.08,0.396c-0.528,0.241-0.997,0.565-1.404,0.972c-0.408,0.408-0.804,0.804-1.188,1.188
		c-1.488,1.632-2.689,3.36-3.6,5.184c-0.385,0.72-0.684,1.476-0.9,2.268s-0.349,1.597-0.396,2.412
		c-0.048,0.673,0.036,1.344,0.252,2.016c0.216,0.673,0.659,1.152,1.332,1.44c0.432,0.192,0.9,0.288,1.404,0.288
		c0.504,0,0.996-0.047,1.476-0.144c1.055-0.24,2.016-0.551,2.88-0.936c1.872-0.815,3.564-1.968,5.076-3.456
		C194.211,44.161,195.663,42.672,197.055,41.184z"/>
	<path fill="none" stroke="#000000" stroke-width="2" stroke-miterlimit="10" d="M216.855,10.584
		c0.815,0.385,1.248,1.069,1.296,2.052c0.048,0.984-0.072,1.836-0.36,2.556c-0.24,0.625-0.516,1.224-0.828,1.8
		c-0.312,0.576-0.637,1.128-0.972,1.656c-0.817,1.393-1.692,2.736-2.628,4.032c-0.936,1.296-1.885,2.592-2.844,3.888
		c-1.201,1.632-2.4,3.24-3.6,4.824c-1.201,1.584-2.425,3.168-3.673,4.752c-0.192,0.192-0.36,0.432-0.504,0.72l-0.288,0.864
		l-0.648,1.728c-0.432,1.2-0.791,2.304-1.08,3.312c-0.288,0.96-0.504,1.896-0.648,2.808c-0.097,0.529-0.144,1.068-0.144,1.62
		c0,0.553,0.12,1.093,0.36,1.62c0.335,0.817,0.888,1.116,1.656,0.9c0.768-0.216,1.572-0.659,2.412-1.332
		c0.84-0.671,1.62-1.392,2.34-2.16c0.721-0.768,1.199-1.296,1.439-1.584l2.232-2.448c0.145-0.144,0.299-0.335,0.469-0.576
		c0.167-0.24,0.359-0.443,0.576-0.612c0.215-0.167,0.432-0.275,0.647-0.324c0.216-0.047,0.419,0.048,0.612,0.288
		c0.191,0.241,0.239,0.468,0.144,0.684c-0.097,0.216-0.216,0.421-0.36,0.612c-0.24,0.241-0.457,0.48-0.647,0.72
		c-0.192,0.241-0.385,0.48-0.576,0.72l-2.376,2.52c-0.625,0.673-1.26,1.332-1.908,1.98s-1.332,1.236-2.052,1.764
		c-0.528,0.385-1.057,0.72-1.584,1.008c-0.528,0.288-1.128,0.408-1.8,0.36c-1.105,0-1.897-0.432-2.376-1.296
		c-0.48-0.864-0.745-1.775-0.792-2.736c-0.048-1.152,0.083-2.304,0.396-3.456c0.312-1.152,0.66-2.279,1.044-3.384
		c-0.241,0.288-0.468,0.576-0.684,0.864c-0.216,0.288-0.444,0.576-0.684,0.864c-0.241,0.241-0.529,0.36-0.864,0.36
		c-0.336,0-0.552-0.191-0.648-0.576c-0.097-0.335,0.024-0.684,0.36-1.044c0.335-0.36,0.6-0.659,0.792-0.9l1.728-2.232
		c0.24-0.239,0.443-0.479,0.612-0.72c0.167-0.24,0.371-0.479,0.612-0.72c0.096-0.096,0.191-0.216,0.287-0.36
		s0.168-0.288,0.217-0.432c0.096-0.096,0.154-0.216,0.18-0.36c0.023-0.144,0.084-0.288,0.18-0.432
		c0.336-0.864,0.66-1.715,0.973-2.556c0.312-0.839,0.659-1.667,1.043-2.484c0.528-1.296,1.045-2.592,1.549-3.888
		c0.504-1.296,1.044-2.567,1.62-3.816c0.384-0.864,0.792-1.728,1.224-2.592c0.432-0.864,0.864-1.728,1.297-2.592
		c0.383-0.768,0.803-1.523,1.26-2.268c0.455-0.744,0.972-1.451,1.547-2.124c0.48-0.624,1.141-1.199,1.98-1.728
		C215.211,10.2,216.039,10.152,216.855,10.584z M216.063,15.192c0.19-0.383,0.36-0.888,0.504-1.512
		c0.144-0.624,0.048-1.127-0.288-1.512c-0.097-0.144-0.24-0.216-0.432-0.216c-0.193,0-0.36,0.024-0.504,0.072
		c-0.674,0.288-1.249,0.756-1.729,1.404c-0.48,0.648-0.912,1.285-1.296,1.908c-0.433,0.673-0.828,1.357-1.188,2.052
		c-0.359,0.696-0.709,1.404-1.043,2.124c-0.529,1.056-1.033,2.1-1.513,3.132c-0.48,1.033-0.937,2.077-1.368,3.132l-2.16,5.4
		c1.104-1.487,2.207-2.963,3.312-4.428c1.104-1.464,2.184-2.939,3.24-4.428c0.815-1.152,1.607-2.315,2.375-3.492
		C214.742,17.652,215.439,16.441,216.063,15.192z"/>
	<path fill="none" stroke="#000000" stroke-width="2" stroke-miterlimit="10" d="M227.727,41.112
		c0.336,0.288,0.408,0.601,0.217,0.936c-0.192,0.336-0.385,0.625-0.576,0.864l-1.729,1.944c-0.528,0.529-1.043,1.044-1.547,1.548
		c-0.505,0.504-1.045,1.021-1.621,1.548c-1.151,0.96-2.46,1.848-3.924,2.664c-1.465,0.816-2.988,1.128-4.572,0.936
		c-0.768-0.095-1.451-0.347-2.051-0.756c-0.602-0.407-1.069-0.972-1.404-1.692c-0.385-0.815-0.553-1.692-0.504-2.628
		c0.047-0.936,0.167-1.836,0.359-2.7c0.432-1.824,1.127-3.575,2.088-5.256c0.96-1.68,2.135-3.143,3.528-4.392
		c0.575-0.527,1.199-1.008,1.872-1.44c0.672-0.432,1.392-0.72,2.16-0.864c0.815-0.144,1.643-0.083,2.484,0.18
		c0.838,0.265,1.403,0.828,1.691,1.692c0.191,0.673,0.191,1.296,0,1.872c-0.192,0.576-0.469,1.128-0.828,1.656
		c-0.359,0.529-0.792,1.008-1.296,1.44s-0.997,0.817-1.476,1.152c-0.817,0.529-1.656,0.972-2.521,1.332s-1.753,0.684-2.664,0.972
		c-0.288,0.097-0.575,0.18-0.864,0.252c-0.287,0.072-0.576,0.156-0.863,0.252l-0.864,0.216c-0.097,0-0.169,0.013-0.216,0.036
		c-0.049,0.025-0.121,0.036-0.217,0.036c-0.048,0-0.071,0.048-0.071,0.144c0,0.097-0.024,0.144-0.072,0.144
		c-0.385,1.249-0.576,2.448-0.576,3.6c0.048,0.385,0.12,0.792,0.216,1.224s0.289,0.817,0.576,1.152
		c0.576,0.48,1.176,0.72,1.801,0.72c0.671,0.097,1.343,0.036,2.016-0.18c0.672-0.216,1.319-0.468,1.943-0.756
		c0.816-0.479,1.607-1.019,2.377-1.62c0.767-0.6,1.512-1.235,2.231-1.908c0.433-0.384,0.852-0.803,1.261-1.26
		c0.406-0.456,0.803-0.9,1.188-1.332l1.296-1.584C226.91,40.824,227.295,40.777,227.727,41.112z M220.527,33.408
		c-0.816,0.097-1.572,0.396-2.268,0.9c-0.697,0.504-1.309,1.044-1.836,1.62c-1.297,1.44-2.401,3.144-3.312,5.112
		c1.486-0.384,2.988-0.888,4.5-1.512c1.512-0.623,2.795-1.487,3.852-2.592c0.672-0.672,1.08-1.368,1.225-2.088
		c0.096-0.672-0.108-1.104-0.612-1.296C221.571,33.361,221.055,33.312,220.527,33.408z"/>
</g>
<g>
</g>
<g>
</g>
<g>
</g>
<g>
</g>
<g>
</g>
<g>
</g>
</svg>
