<?xml version="1.0" encoding="utf-8"?>
<!-- Generator: Adobe Illustrator 16.0.0, SVG Export Plug-In . SVG Version: 6.00 Build 0)  -->
<!DOCTYPE svg PUBLIC "-//W3C//DTD SVG 1.1//EN" "http://www.w3.org/Graphics/SVG/1.1/DTD/svg11.dtd">
<svg version="1.1" id="core-svg" xmlns="http://www.w3.org/2000/svg" xmlns:xlink="http://www.w3.org/1999/xlink" x="0px" y="0px"
	 width="299px" height="82px" viewBox="0 0 299 82" enable-background="new 0 0 299 82" xml:space="preserve">
<g>
	<path fill="none" stroke="#000000" stroke-width="2" stroke-miterlimit="10" d="M134.489,41.184
		c0.191-0.24,0.443-0.312,0.756-0.216c0.312,0.097,0.515,0.288,0.612,0.576c0.096,0.241,0.072,0.444-0.072,0.612
		c-0.144,0.169-0.288,0.324-0.432,0.468l-2.736,2.88c-1.44,1.393-3,2.676-4.68,3.852c-1.681,1.177-3.553,1.933-5.616,2.268
		c-0.912,0.144-1.825,0.156-2.736,0.036c-0.913-0.12-1.705-0.564-2.376-1.332c-0.529-0.624-0.864-1.308-1.008-2.052
		c-0.144-0.744-0.168-1.5-0.072-2.268c0.144-1.919,0.708-3.768,1.692-5.544c0.983-1.775,2.099-3.359,3.348-4.752
		c0.671-0.671,1.392-1.343,2.16-2.016c0.767-0.671,1.631-1.104,2.592-1.296c0.767-0.096,1.451,0.048,2.052,0.432
		c0.6,0.385,1.02,0.936,1.26,1.656c0.047,0.144,0.108,0.349,0.18,0.612c0.072,0.264,0.095,0.529,0.072,0.792
		c-0.025,0.264-0.097,0.468-0.216,0.612c-0.121,0.144-0.349,0.192-0.684,0.144c-0.336-0.096-0.529-0.252-0.576-0.468
		c-0.048-0.216-0.097-0.443-0.144-0.684c-0.097-0.479-0.288-0.864-0.576-1.152c-0.288-0.288-0.625-0.396-1.008-0.324
		c-0.385,0.072-0.745,0.205-1.08,0.396c-0.528,0.241-0.997,0.565-1.404,0.972c-0.408,0.408-0.804,0.804-1.188,1.188
		c-1.488,1.632-2.689,3.36-3.6,5.184c-0.385,0.72-0.684,1.476-0.9,2.268s-0.349,1.597-0.396,2.412
		c-0.048,0.673,0.036,1.344,0.252,2.016c0.216,0.673,0.659,1.152,1.332,1.44c0.432,0.192,0.9,0.288,1.404,0.288
		c0.504,0,0.996-0.047,1.476-0.144c1.055-0.24,2.016-0.551,2.88-0.936c1.872-0.815,3.564-1.968,5.076-3.456
		C131.645,44.161,133.096,42.672,134.489,41.184z"/>
	<path fill="none" stroke="#000000" stroke-width="2" stroke-miterlimit="10" d="M156.305,41.184
		c0.384,0.385,0.432,0.768,0.144,1.152c-0.288,0.385-0.552,0.696-0.792,0.936l-1.944,1.944c-0.529,0.48-1.105,0.925-1.728,1.332
		c-0.625,0.409-1.272,0.732-1.944,0.972c-0.385,0.097-0.792,0.18-1.224,0.252c-0.432,0.072-0.864,0.061-1.296-0.036
		c-0.241-0.047-0.457-0.083-0.648-0.108c-0.192-0.023-0.409-0.083-0.648-0.18c-0.288-0.096-0.504-0.191-0.648-0.288l-0.648,0.648
		c-0.768,0.816-1.608,1.548-2.52,2.196c-0.912,0.648-1.92,1.092-3.024,1.332c-1.008,0.241-1.98,0.192-2.916-0.144
		c-0.936-0.335-1.668-0.983-2.196-1.944c-0.385-0.767-0.601-1.595-0.648-2.484c-0.048-0.888,0-1.739,0.144-2.556
		c0.335-1.775,0.947-3.467,1.836-5.076c0.888-1.607,1.955-3.06,3.204-4.356c0.72-0.72,1.487-1.415,2.304-2.088
		c0.191-0.096,0.396-0.24,0.612-0.432c0.216-0.191,0.443-0.288,0.684-0.288c0.528,0.097,0.792,0.385,0.792,0.864
		c-0.048,0.288-0.168,0.504-0.36,0.648c-0.192,0.144-0.385,0.288-0.576,0.432c-0.432,0.288-0.816,0.601-1.152,0.936
		c-0.817,0.672-1.537,1.393-2.16,2.16c-0.576,0.769-1.104,1.548-1.584,2.34c-0.48,0.792-0.889,1.645-1.224,2.556
		c-0.288,0.72-0.529,1.453-0.72,2.196c-0.192,0.745-0.264,1.524-0.216,2.34c0.047,0.961,0.335,1.8,0.864,2.52
		c0.528,0.72,1.32,1.008,2.376,0.864c1.104-0.144,2.148-0.564,3.132-1.26c0.983-0.695,1.836-1.451,2.556-2.268
		c-0.624-0.576-1.08-1.26-1.368-2.052c-0.288-0.792-0.457-1.62-0.504-2.484c-0.048-0.864,0-1.728,0.144-2.592
		c0.144-0.864,0.335-1.68,0.576-2.448c0.24-0.816,0.576-1.631,1.008-2.448c0.432-0.815,1.008-1.487,1.728-2.016
		c0.768-0.527,1.572-0.731,2.412-0.612c0.839,0.12,1.476,0.588,1.908,1.404c0.527,0.961,0.767,2.052,0.72,3.276
		c-0.048,1.224-0.264,2.34-0.648,3.348c-0.385,1.105-0.876,2.185-1.476,3.24c-0.601,1.056-1.26,2.041-1.98,2.952
		c0.768,0.288,1.523,0.36,2.268,0.216c0.744-0.144,1.451-0.432,2.124-0.864c0.911-0.623,1.728-1.319,2.448-2.088l1.512-1.584
		c0.144-0.24,0.335-0.419,0.576-0.54C155.825,40.885,156.064,40.944,156.305,41.184z M145.217,45.072
		c0.767-1.008,1.416-1.967,1.944-2.88c0.624-1.008,1.127-2.076,1.512-3.204c0.384-1.127,0.528-2.315,0.432-3.564
		c-0.048-0.383-0.121-0.779-0.216-1.188c-0.097-0.407-0.336-0.731-0.72-0.972c-0.336-0.144-0.673-0.132-1.008,0.036
		c-0.336,0.169-0.624,0.373-0.864,0.612c-0.673,0.72-1.188,1.573-1.548,2.556c-0.36,0.984-0.612,1.957-0.756,2.916
		c-0.144,0.961-0.156,1.969-0.036,3.024C144.076,43.464,144.497,44.352,145.217,45.072z"/>
	<path fill="none" stroke="#000000" stroke-width="2" stroke-miterlimit="10" d="M174.52,40.752c0.191,0,0.36,0.072,0.504,0.216
		c0.144,0.144,0.24,0.324,0.288,0.54c0.047,0.216-0.025,0.421-0.216,0.612l-0.72,0.864l-2.52,2.808
		c-0.673,0.817-1.368,1.609-2.088,2.376c-0.72,0.769-1.488,1.488-2.304,2.16c-0.529,0.432-1.069,0.84-1.62,1.224
		c-0.552,0.385-1.164,0.625-1.836,0.72c-0.529,0.048-0.972-0.023-1.332-0.216c-0.36-0.191-0.648-0.468-0.864-0.828
		s-0.36-0.756-0.432-1.188c-0.072-0.432-0.084-0.864-0.036-1.296c0.191-1.152,0.587-2.256,1.188-3.312
		c0.6-1.055,1.212-2.063,1.836-3.024c0.335-0.528,0.659-1.056,0.972-1.584c0.312-0.528,0.636-1.08,0.972-1.656
		c0.191-0.384,0.407-0.815,0.648-1.296c0.24-0.479,0.335-0.936,0.288-1.368c-0.048-0.24-0.36-0.348-0.936-0.324
		c-0.576,0.024-0.961,0.036-1.152,0.036c-0.48-0.047-0.925-0.144-1.332-0.288c-0.409-0.144-0.709-0.479-0.9-1.008
		c-0.817,1.008-1.645,1.98-2.484,2.916c-0.84,0.936-1.668,1.884-2.484,2.844l-1.368,1.44c-0.192,0.192-0.385,0.336-0.576,0.432
		c-0.192,0.097-0.409,0.072-0.648-0.072c-0.288-0.144-0.432-0.335-0.432-0.576c0-0.239,0.096-0.479,0.288-0.72
		c0.191-0.24,0.396-0.468,0.612-0.684s0.396-0.396,0.54-0.54c0.72-0.767,1.428-1.536,2.124-2.304
		c0.695-0.767,1.379-1.559,2.052-2.376l2.304-2.808l1.08-1.224c0.24-0.335,0.551-0.419,0.936-0.252
		c0.383,0.168,0.551,0.444,0.504,0.828c-0.048,0.241-0.144,0.48-0.288,0.72c-0.144,0.241-0.264,0.48-0.36,0.72
		c-0.048,0.144-0.097,0.276-0.144,0.396c-0.048,0.12-0.072,0.252-0.072,0.396c-0.049,0.192-0.061,0.312-0.036,0.36
		c0.023,0.048,0.155,0.097,0.396,0.144c0.479,0.048,0.947,0.048,1.404,0c0.456-0.047,0.9,0.025,1.332,0.216
		c0.528,0.192,0.888,0.504,1.08,0.936c0.191,0.432,0.24,0.889,0.144,1.368c-0.192,0.96-0.576,1.92-1.152,2.88
		c-0.288,0.576-0.601,1.128-0.936,1.656c-0.336,0.528-0.673,1.056-1.008,1.584c-0.529,0.864-1.056,1.752-1.584,2.664
		c-0.529,0.913-0.912,1.872-1.152,2.88c-0.048,0.288-0.061,0.648-0.036,1.08c0.024,0.432,0.228,0.696,0.612,0.792
		c0.239,0.097,0.491,0.072,0.756-0.072c0.263-0.144,0.492-0.263,0.684-0.36c0.767-0.479,1.463-1.032,2.088-1.656
		c0.623-0.623,1.248-1.271,1.872-1.944l4.968-5.544C174.135,40.849,174.328,40.752,174.52,40.752z"/>
	<path fill="none" stroke="#000000" stroke-width="2" stroke-miterlimit="10" d="M190.288,41.112
		c0.335,0.288,0.407,0.601,0.216,0.936c-0.192,0.336-0.385,0.625-0.576,0.864l-1.728,1.944c-0.529,0.529-1.044,1.044-1.548,1.548
		c-0.504,0.504-1.044,1.021-1.62,1.548c-1.152,0.96-2.46,1.848-3.924,2.664c-1.464,0.816-2.988,1.128-4.572,0.936
		c-0.769-0.095-1.452-0.347-2.052-0.756c-0.601-0.407-1.069-0.972-1.404-1.692c-0.385-0.815-0.552-1.692-0.504-2.628
		c0.047-0.936,0.167-1.836,0.36-2.7c0.432-1.824,1.127-3.575,2.088-5.256c0.96-1.68,2.135-3.143,3.528-4.392
		c0.576-0.527,1.199-1.008,1.872-1.44c0.671-0.432,1.392-0.72,2.16-0.864c0.816-0.144,1.644-0.083,2.484,0.18
		c0.839,0.265,1.404,0.828,1.692,1.692c0.191,0.673,0.191,1.296,0,1.872c-0.192,0.576-0.468,1.128-0.828,1.656
		c-0.36,0.529-0.792,1.008-1.296,1.44s-0.997,0.817-1.476,1.152c-0.817,0.529-1.656,0.972-2.52,1.332
		c-0.864,0.36-1.753,0.684-2.664,0.972c-0.288,0.097-0.576,0.18-0.864,0.252c-0.288,0.072-0.576,0.156-0.864,0.252l-0.864,0.216
		c-0.097,0-0.169,0.013-0.216,0.036c-0.048,0.025-0.12,0.036-0.216,0.036c-0.048,0-0.072,0.048-0.072,0.144
		c0,0.097-0.025,0.144-0.072,0.144c-0.385,1.249-0.576,2.448-0.576,3.6c0.047,0.385,0.12,0.792,0.216,1.224
		c0.096,0.432,0.288,0.817,0.576,1.152c0.576,0.48,1.176,0.72,1.8,0.72c0.671,0.097,1.343,0.036,2.016-0.18
		c0.671-0.216,1.319-0.468,1.944-0.756c0.815-0.479,1.607-1.019,2.376-1.62c0.767-0.6,1.512-1.235,2.232-1.908
		c0.432-0.384,0.852-0.803,1.26-1.26c0.407-0.456,0.803-0.9,1.188-1.332l1.296-1.584C189.471,40.824,189.855,40.777,190.288,41.112z
		 M183.088,33.408c-0.817,0.097-1.573,0.396-2.268,0.9c-0.697,0.504-1.309,1.044-1.836,1.62c-1.296,1.44-2.401,3.144-3.312,5.112
		c1.487-0.384,2.988-0.888,4.5-1.512c1.512-0.623,2.795-1.487,3.852-2.592c0.672-0.672,1.08-1.368,1.224-2.088
		c0.096-0.672-0.108-1.104-0.612-1.296C184.132,33.361,183.615,33.312,183.088,33.408z"/>
</g>
<g>
</g>
<g>
</g>
<g>
</g>
<g>
</g>
<g>
</g>
<g>
</g>
</svg>
