<?xml version="1.0" encoding="utf-8"?>
<!-- Generator: Adobe Illustrator 16.0.0, SVG Export Plug-In . SVG Version: 6.00 Build 0)  -->
<!DOCTYPE svg PUBLIC "-//W3C//DTD SVG 1.1//EN" "http://www.w3.org/Graphics/SVG/1.1/DTD/svg11.dtd">
<svg version="1.1" id="examples-svg" xmlns="http://www.w3.org/2000/svg" xmlns:xlink="http://www.w3.org/1999/xlink" x="0px" y="0px"
	 width="299px" height="82px" viewBox="0 0 299 82" enable-background="new 0 0 299 82" xml:space="preserve">
<g>
	<path fill="none" stroke="#000000" stroke-width="2" stroke-miterlimit="10" d="M80.453,41.112
		c0.335,0.288,0.407,0.601,0.216,0.936c-0.192,0.336-0.385,0.625-0.576,0.864l-1.728,1.944c-0.529,0.529-1.044,1.044-1.548,1.548
		c-0.504,0.504-1.044,1.021-1.62,1.548c-1.152,0.96-2.46,1.848-3.924,2.664c-1.464,0.816-2.988,1.128-4.572,0.936
		c-0.769-0.095-1.452-0.347-2.052-0.756c-0.601-0.407-1.069-0.972-1.404-1.692c-0.385-0.815-0.552-1.692-0.504-2.628
		c0.047-0.936,0.167-1.836,0.36-2.7c0.432-1.824,1.127-3.575,2.088-5.256c0.96-1.68,2.135-3.143,3.528-4.392
		c0.576-0.527,1.199-1.008,1.872-1.44c0.671-0.432,1.392-0.72,2.16-0.864c0.816-0.144,1.644-0.083,2.484,0.18
		c0.839,0.265,1.404,0.828,1.692,1.692c0.191,0.673,0.191,1.296,0,1.872c-0.192,0.576-0.468,1.128-0.828,1.656
		c-0.36,0.529-0.792,1.008-1.296,1.44s-0.997,0.817-1.476,1.152c-0.817,0.529-1.656,0.972-2.52,1.332
		c-0.864,0.36-1.753,0.684-2.664,0.972c-0.288,0.097-0.576,0.18-0.864,0.252c-0.288,0.072-0.576,0.156-0.864,0.252l-0.864,0.216
		c-0.097,0-0.169,0.013-0.216,0.036c-0.048,0.025-0.12,0.036-0.216,0.036c-0.048,0-0.072,0.048-0.072,0.144
		c0,0.097-0.025,0.144-0.072,0.144c-0.385,1.249-0.576,2.448-0.576,3.6c0.047,0.385,0.12,0.792,0.216,1.224
		c0.096,0.432,0.288,0.817,0.576,1.152c0.576,0.48,1.176,0.72,1.8,0.72c0.671,0.097,1.343,0.036,2.016-0.18
		c0.671-0.216,1.319-0.468,1.944-0.756c0.815-0.479,1.607-1.019,2.376-1.62c0.767-0.6,1.512-1.235,2.232-1.908
		c0.432-0.384,0.852-0.803,1.26-1.26c0.407-0.456,0.803-0.9,1.188-1.332l1.296-1.584C79.636,40.824,80.021,40.777,80.453,41.112z
		 M73.253,33.408c-0.817,0.097-1.573,0.396-2.268,0.9c-0.697,0.504-1.309,1.044-1.836,1.62c-1.296,1.44-2.401,3.144-3.312,5.112
		c1.487-0.384,2.988-0.888,4.5-1.512c1.512-0.623,2.795-1.487,3.852-2.592c0.672-0.672,1.08-1.368,1.224-2.088
		c0.096-0.672-0.108-1.104-0.612-1.296C74.297,33.361,73.781,33.312,73.253,33.408z"/>
	<path fill="none" stroke="#000000" stroke-width="2" stroke-miterlimit="10" d="M106.373,40.968
		c0.288,0.049,0.504,0.192,0.648,0.432c0.144,0.336,0.072,0.673-0.216,1.008l-1.224,1.512c-0.673,0.817-1.356,1.632-2.052,2.448
		c-0.697,0.816-1.453,1.608-2.268,2.376c-0.673,0.673-1.44,1.285-2.304,1.836c-0.864,0.552-1.8,0.853-2.808,0.9
		c-1.056,0.048-1.86-0.204-2.412-0.756c-0.553-0.551-0.961-1.248-1.224-2.088c-0.265-0.839-0.408-1.739-0.432-2.7
		c-0.025-0.959-0.036-1.8-0.036-2.52c-1.056,0.817-2.1,1.645-3.132,2.484c-1.033,0.84-2.052,1.692-3.06,2.556
		c-0.48,0.432-0.972,0.864-1.476,1.296c-0.504,0.432-0.948,0.913-1.332,1.44c-0.241,0.336-0.48,0.529-0.72,0.576
		c-0.241,0.048-0.444,0-0.612-0.144c-0.168-0.144-0.276-0.335-0.324-0.576c-0.048-0.239,0.036-0.479,0.252-0.72
		c0.216-0.24,0.396-0.456,0.54-0.648c0.671-0.672,1.343-1.296,2.016-1.872c0.671-0.576,1.343-1.152,2.016-1.728l2.88-2.376
		l1.584-1.296l0.72-0.576c0.096-0.096,0.228-0.191,0.396-0.288c0.168-0.096,0.252-0.216,0.252-0.36L91.901,37.8
		c-0.049-0.432-0.108-0.887-0.18-1.368c-0.072-0.479-0.205-0.912-0.396-1.296c-0.144-0.335-0.313-0.612-0.504-0.828
		c-0.192-0.216-0.48-0.372-0.864-0.468c-0.385-0.047-0.756,0-1.116,0.144c-0.36,0.144-0.709,0.336-1.044,0.576
		c-0.961,0.673-1.812,1.44-2.556,2.304c-0.745,0.864-1.476,1.728-2.196,2.592c-0.385,0.48-0.732,0.912-1.044,1.296
		c-0.312,0.385-0.732,0.84-1.26,1.368c-0.192,0.192-0.385,0.336-0.576,0.432c-0.192,0.097-0.408,0.072-0.648-0.072
		c-0.192-0.144-0.312-0.324-0.36-0.54c-0.048-0.216,0-0.419,0.144-0.612c0.335-0.432,0.671-0.839,1.008-1.224
		c0.335-0.384,0.695-0.792,1.08-1.224l2.376-2.808c0.671-0.767,1.428-1.523,2.268-2.268c0.839-0.744,1.764-1.235,2.772-1.476
		c1.104-0.288,1.98-0.18,2.628,0.324s1.127,1.188,1.44,2.052c0.312,0.864,0.515,1.789,0.612,2.772
		c0.095,0.984,0.144,1.836,0.144,2.556l5.544-4.32l4.104-3.168c0.239-0.144,0.479-0.312,0.72-0.504c0.24-0.191,0.504-0.191,0.792,0
		c0.191,0.097,0.312,0.264,0.36,0.504c0.047,0.241,0,0.48-0.144,0.72c-0.144,0.192-0.336,0.36-0.576,0.504
		c-0.241,0.144-0.457,0.288-0.648,0.432c-0.961,0.72-1.92,1.452-2.88,2.196c-0.961,0.745-1.92,1.501-2.88,2.268
		c-0.529,0.385-1.033,0.769-1.512,1.152c-0.48,0.385-0.961,0.769-1.44,1.152l-0.864,0.648c-0.097,0.097-0.216,0.192-0.36,0.288
		c-0.144,0.097-0.216,0.192-0.216,0.288v1.584c0.047,0.529,0.072,1.057,0.072,1.584c0,0.529,0.047,1.057,0.144,1.584
		c0.096,0.385,0.167,0.769,0.216,1.152c0.047,0.385,0.191,0.745,0.432,1.08c0.479,0.673,1.127,0.889,1.944,0.648
		c0.816-0.24,1.487-0.551,2.016-0.936c0.959-0.672,1.847-1.44,2.664-2.304c0.815-0.864,1.584-1.751,2.304-2.664l2.232-2.664
		C105.844,41.017,106.085,40.921,106.373,40.968z"/>
	<path fill="none" stroke="#000000" stroke-width="2" stroke-miterlimit="10" d="M128.764,41.184
		c0.288-0.288,0.612-0.335,0.972-0.144c0.36,0.192,0.492,0.48,0.396,0.864c-0.048,0.192-0.12,0.349-0.216,0.468
		c-0.097,0.12-0.192,0.229-0.288,0.324c-0.385,0.385-0.745,0.781-1.08,1.188c-0.336,0.409-0.673,0.805-1.008,1.188
		c-0.817,0.913-1.632,1.825-2.448,2.736c-0.817,0.912-1.704,1.752-2.664,2.52c-0.672,0.576-1.452,1.044-2.34,1.404
		c-0.889,0.36-1.789,0.324-2.7-0.108c-1.008-0.432-1.573-1.14-1.692-2.124c-0.12-0.983-0.108-1.955,0.036-2.916
		c-0.673,0.864-1.429,1.692-2.268,2.484c-0.84,0.792-1.74,1.453-2.7,1.98c-0.816,0.385-1.728,0.637-2.736,0.756
		c-1.008,0.12-1.92-0.083-2.736-0.612c-0.673-0.432-1.141-1.008-1.404-1.728c-0.264-0.72-0.396-1.463-0.396-2.232
		c0.047-0.911,0.228-1.8,0.54-2.664c0.312-0.864,0.684-1.703,1.116-2.52c0.527-1.104,1.176-2.124,1.944-3.06
		c0.768-0.936,1.608-1.811,2.52-2.628c0.72-0.671,1.487-1.307,2.304-1.908c0.815-0.6,1.68-1.116,2.592-1.548
		c1.104-0.527,2.268-0.923,3.492-1.188c1.224-0.263,2.459-0.324,3.708-0.18c0.24,0.048,0.456,0.084,0.648,0.108
		c0.191,0.025,0.407,0.084,0.648,0.18c0.288,0.097,0.456,0.252,0.504,0.468c0.047,0.216,0.036,0.457-0.036,0.72
		c-0.072,0.264-0.18,0.528-0.324,0.792c-0.144,0.264-0.241,0.468-0.288,0.612c-0.432,0.961-0.876,1.897-1.332,2.808
		c-0.457,0.912-0.948,1.848-1.476,2.808c-0.144,0.288-0.3,0.576-0.468,0.864c-0.169,0.288-0.349,0.576-0.54,0.864
		c-0.144,0.288-0.288,0.565-0.432,0.828c-0.144,0.265-0.264,0.565-0.36,0.9c-0.192,0.529-0.373,1.069-0.54,1.62
		c-0.169,0.552-0.3,1.116-0.396,1.692c-0.097,0.432-0.156,0.9-0.18,1.404c-0.024,0.504,0.083,0.972,0.324,1.404
		c0.144,0.288,0.384,0.493,0.72,0.612c0.335,0.12,0.672,0.132,1.008,0.036c0.383-0.096,0.744-0.227,1.08-0.396
		c0.335-0.167,0.648-0.371,0.936-0.612c0.383-0.335,0.767-0.672,1.152-1.008c0.384-0.335,0.744-0.695,1.08-1.08
		c0.959-0.96,1.872-1.944,2.736-2.952C127.037,43.2,127.9,42.192,128.764,41.184z M108.964,49.968c0.815-0.239,1.548-0.6,2.196-1.08
		c0.648-0.479,1.26-1.008,1.836-1.584c0.671-0.672,1.307-1.416,1.908-2.232c0.6-0.815,1.164-1.631,1.692-2.448
		c0.191-0.24,0.348-0.479,0.468-0.72c0.119-0.239,0.227-0.479,0.324-0.72l0.648-1.368c0.191-0.479,0.383-0.936,0.576-1.368
		c0.191-0.432,0.407-0.864,0.648-1.296c0.384-0.671,0.756-1.332,1.116-1.98s0.731-1.307,1.116-1.98
		c-1.104-0.144-2.208-0.096-3.312,0.144c-1.104,0.241-2.136,0.601-3.096,1.08c-0.961,0.48-1.836,1.033-2.628,1.656
		c-0.792,0.625-1.548,1.296-2.268,2.016c-0.864,0.817-1.656,1.705-2.376,2.664c-0.72,0.961-1.321,1.992-1.8,3.096
		c-0.288,0.672-0.529,1.416-0.72,2.232c-0.192,0.817-0.192,1.609,0,2.376c0.096,0.336,0.227,0.648,0.396,0.936
		c0.167,0.288,0.419,0.504,0.756,0.648c0.384,0.144,0.803,0.192,1.26,0.144C108.16,50.137,108.58,50.065,108.964,49.968z"/>
	<path fill="none" stroke="#000000" stroke-width="2" stroke-miterlimit="10" d="M172.54,40.896
		c0.384,0.336,0.456,0.684,0.216,1.044c-0.241,0.36-0.48,0.661-0.72,0.9c-0.432,0.529-0.864,1.069-1.296,1.62
		c-0.432,0.552-0.889,1.092-1.368,1.62c-0.769,0.864-1.573,1.717-2.412,2.556c-0.84,0.84-1.764,1.548-2.772,2.124
		c-0.288,0.192-0.637,0.36-1.044,0.504c-0.408,0.144-0.817,0.241-1.224,0.288c-0.408,0.049-0.792,0.025-1.152-0.072
		c-0.36-0.096-0.684-0.312-0.972-0.648c-0.576-0.623-0.768-1.404-0.576-2.34c0.191-0.936,0.407-1.739,0.648-2.412
		c0.383-1.104,0.815-2.184,1.296-3.24c0.479-1.055,0.936-2.111,1.368-3.168c0.191-0.479,0.383-0.947,0.576-1.404
		c0.191-0.456,0.36-0.947,0.504-1.476c0.096-0.335,0.191-0.684,0.288-1.044c0.096-0.36,0.119-0.731,0.072-1.116
		c-0.048-0.383-0.192-0.635-0.432-0.756c-0.241-0.119-0.517-0.18-0.828-0.18c-0.312,0-0.637,0.048-0.972,0.144
		c-0.336,0.097-0.601,0.192-0.792,0.288c-0.817,0.385-1.548,0.84-2.196,1.368c-0.648,0.529-1.285,1.08-1.908,1.656
		c-0.72,0.72-1.404,1.476-2.052,2.268s-1.285,1.597-1.908,2.412c-0.336,0.385-0.648,0.792-0.936,1.224
		c-0.288,0.432-0.576,0.864-0.864,1.296l-0.792,1.224c-0.144,0.241-0.264,0.493-0.36,0.756c-0.097,0.264-0.192,0.54-0.288,0.828
		c-0.192,0.529-0.385,1.033-0.576,1.512c-0.192,0.48-0.408,0.961-0.648,1.44c-0.144,0.241-0.288,0.504-0.432,0.792
		c-0.144,0.288-0.336,0.529-0.576,0.72c-0.432,0.385-0.84,0.385-1.224,0c-0.192-0.191-0.288-0.396-0.288-0.612
		c0-0.216,0.047-0.443,0.144-0.684c0.191-0.672,0.479-1.343,0.864-2.016L147.7,46.8c0.144-0.239,0.299-0.491,0.468-0.756
		c0.167-0.263,0.299-0.54,0.396-0.828c0.191-0.527,0.371-1.067,0.54-1.62c0.167-0.551,0.324-1.116,0.468-1.692
		c0.288-1.008,0.54-2.052,0.756-3.132c0.216-1.08,0.275-2.147,0.18-3.204c-0.048-0.432-0.156-0.875-0.324-1.332
		c-0.169-0.456-0.517-0.684-1.044-0.684c-0.336,0-0.745,0.097-1.224,0.288c-0.529,0.241-1.033,0.553-1.512,0.936
		c-0.48,0.385-0.912,0.792-1.296,1.224c-1.152,1.152-2.196,2.401-3.132,3.744c-0.936,1.344-1.836,2.712-2.7,4.104l-2.376,4.104
		l-1.008,1.872c-0.097,0.241-0.205,0.504-0.324,0.792c-0.12,0.288-0.276,0.552-0.468,0.792c-0.432,0.432-0.864,0.432-1.296,0
		c-0.192-0.288-0.192-0.624,0-1.008l0.936-1.944c0.479-1.008,0.959-2.004,1.44-2.988c0.479-0.983,0.936-1.98,1.368-2.988
		c0.335-0.767,0.648-1.536,0.936-2.304c0.288-0.767,0.528-1.559,0.72-2.376c0.144-0.527,0.275-1.152,0.396-1.872
		c0.119-0.72-0.036-1.296-0.468-1.728c-0.192-0.191-0.385-0.264-0.576-0.216c-0.192,0.048-0.385,0.121-0.576,0.216
		c-0.385,0.192-0.745,0.42-1.08,0.684c-0.336,0.265-0.673,0.54-1.008,0.828c-0.385,0.385-0.745,0.769-1.08,1.152
		c-0.336,0.385-0.696,0.769-1.08,1.152l-2.52,2.88l-0.936,1.08c-0.097,0.144-0.205,0.277-0.324,0.396
		c-0.121,0.12-0.3,0.18-0.54,0.18c-0.385-0.047-0.625-0.239-0.72-0.576c-0.097-0.335-0.024-0.624,0.216-0.864l0.648-0.72l2.448-2.88
		c0.672-0.768,1.343-1.523,2.016-2.268c0.671-0.744,1.44-1.379,2.304-1.908c0.576-0.432,1.211-0.744,1.908-0.936
		c0.695-0.191,1.355,0,1.98,0.576c0.384,0.385,0.648,0.817,0.792,1.296c0.144,0.48,0.216,0.984,0.216,1.512
		c0,0.529-0.061,1.068-0.18,1.62c-0.121,0.553-0.252,1.044-0.396,1.476c0.623-0.864,1.26-1.703,1.908-2.52
		c0.648-0.815,1.379-1.559,2.196-2.232c0.576-0.527,1.199-1.008,1.872-1.44c0.671-0.432,1.415-0.695,2.232-0.792
		c0.864-0.047,1.572,0.205,2.124,0.756c0.551,0.553,0.9,1.236,1.044,2.052c0.191,1.056,0.216,2.113,0.072,3.168
		c-0.144,1.056-0.336,2.088-0.576,3.096c0.815-1.104,1.692-2.196,2.628-3.276s1.955-2.076,3.06-2.988
		c0.72-0.624,1.5-1.188,2.34-1.692c0.839-0.504,1.739-0.803,2.7-0.9c0.432-0.047,0.875-0.036,1.332,0.036
		c0.456,0.072,0.852,0.252,1.188,0.54c0.288,0.288,0.492,0.612,0.612,0.972c0.119,0.36,0.18,0.732,0.18,1.116
		c0,1.105-0.216,2.196-0.648,3.276c-0.432,1.08-0.84,2.101-1.224,3.06c-0.432,1.008-0.864,2.005-1.296,2.988
		c-0.432,0.984-0.817,2.005-1.152,3.06c-0.097,0.336-0.205,0.684-0.324,1.044c-0.121,0.36-0.133,0.732-0.036,1.116
		c0.047,0.336,0.191,0.529,0.432,0.576c0.24,0.048,0.504,0.048,0.792,0c0.671-0.144,1.307-0.456,1.908-0.936
		c0.6-0.479,1.164-0.959,1.692-1.44c0.671-0.672,1.319-1.343,1.944-2.016c0.623-0.671,1.248-1.368,1.872-2.088l1.512-1.872
		c0.191-0.24,0.407-0.468,0.648-0.684C171.915,40.644,172.203,40.656,172.54,40.896z"/>
	<path fill="none" stroke="#000000" stroke-width="2" stroke-miterlimit="10" d="M195.436,41.256
		c0.288-0.335,0.636-0.36,1.044-0.072c0.407,0.288,0.492,0.625,0.252,1.008c-0.144,0.241-0.312,0.457-0.504,0.648
		c-0.192,0.192-0.385,0.409-0.576,0.648c-0.192,0.192-0.372,0.373-0.54,0.54c-0.168,0.169-0.324,0.373-0.468,0.612
		c-1.105,1.152-2.353,2.28-3.744,3.384c-1.537,1.152-3.204,2.124-5.004,2.916s-3.685,1.285-5.652,1.476
		c-1.249,0.144-2.568,0.097-3.96-0.144l-1.152-0.216c-0.529-0.191-0.72-0.54-0.576-1.044c0.144-0.504,0.479-0.684,1.008-0.54
		c0.479,0.144,0.959,0.216,1.44,0.216c0.24,0,0.443-0.011,0.612-0.036c0.167-0.023,0.348-0.06,0.54-0.108
		c0.768-0.144,1.536-0.407,2.304-0.792c0.72-0.384,1.404-0.828,2.052-1.332c0.648-0.504,1.26-1.067,1.836-1.692
		c1.055-1.152,1.98-2.459,2.772-3.924c0.792-1.464,1.379-2.963,1.764-4.5c0.191-0.576,0.335-1.199,0.432-1.872
		c0.047-0.432,0.083-0.888,0.108-1.368c0.024-0.479-0.061-0.911-0.252-1.296c-0.192-0.384-0.516-0.528-0.972-0.432
		c-0.457,0.097-0.828,0.216-1.116,0.36c-0.625,0.241-1.213,0.553-1.764,0.936c-0.552,0.385-1.092,0.792-1.62,1.224
		c-0.673,0.576-1.332,1.188-1.98,1.836c-0.648,0.648-1.285,1.309-1.908,1.98c-0.673,0.817-1.321,1.645-1.944,2.484
		c-0.625,0.841-1.224,1.717-1.8,2.628c-0.624,0.96-1.152,1.896-1.584,2.808c-0.097,0.144-0.18,0.277-0.252,0.396
		c-0.072,0.121-0.133,0.252-0.18,0.396l-0.36,0.792l-0.648,1.584c-0.912,2.16-1.825,4.308-2.736,6.444
		c-0.913,2.135-1.849,4.285-2.808,6.444c-0.384,0.863-0.756,1.727-1.116,2.592c-0.36,0.863-0.731,1.703-1.116,2.52
		c-0.096,0.24-0.204,0.443-0.324,0.611c-0.119,0.168-0.299,0.252-0.54,0.252c-0.527-0.096-0.792-0.385-0.792-0.863
		c0-0.193,0.036-0.373,0.108-0.541c0.072-0.168,0.156-0.322,0.252-0.467l0.432-0.936l4.104-9.504l8.424-20.016
		c-0.673,0.769-1.345,1.524-2.016,2.268c-0.673,0.745-1.344,1.524-2.016,2.34c-0.192,0.241-0.42,0.409-0.684,0.504
		c-0.264,0.097-0.516,0-0.756-0.288c-0.336-0.335-0.312-0.72,0.072-1.152l3.888-4.464c0.624-0.671,1.224-1.343,1.8-2.016
		c0.576-0.671,1.152-1.343,1.728-2.016c0.288-0.335,0.635-0.372,1.044-0.108c0.407,0.265,0.515,0.588,0.324,0.972
		c-0.097,0.192-0.168,0.36-0.216,0.504c-0.048,0.144-0.097,0.288-0.144,0.432c-0.385,0.961-0.769,1.884-1.152,2.772
		c-0.385,0.889-0.769,1.812-1.152,2.772c1.008-1.248,2.088-2.459,3.24-3.636c1.152-1.176,2.423-2.196,3.816-3.06
		c0.335-0.191,0.72-0.407,1.152-0.648c0.432-0.24,0.875-0.432,1.332-0.576c0.456-0.144,0.9-0.204,1.332-0.18
		c0.432,0.025,0.839,0.157,1.224,0.396c0.576,0.385,0.936,0.925,1.08,1.62c0.144,0.696,0.191,1.357,0.144,1.98
		c-0.048,0.913-0.18,1.825-0.396,2.736c-0.216,0.912-0.493,1.776-0.828,2.592c-0.72,1.825-1.668,3.564-2.844,5.22
		c-1.177,1.656-2.604,3.037-4.284,4.14c2.639-0.671,5.004-1.847,7.092-3.528C191.799,45.192,193.708,43.32,195.436,41.256z"/>
	<path fill="none" stroke="#000000" stroke-width="2" stroke-miterlimit="10" d="M215.308,10.584
		c0.815,0.385,1.247,1.069,1.296,2.052c0.047,0.984-0.072,1.836-0.36,2.556c-0.241,0.625-0.517,1.224-0.827,1.8
		c-0.313,0.576-0.637,1.128-0.973,1.656c-0.816,1.393-1.691,2.736-2.628,4.032c-0.937,1.296-1.884,2.592-2.845,3.888
		c-1.199,1.632-2.4,3.24-3.6,4.824c-1.2,1.584-2.424,3.168-3.672,4.752c-0.192,0.192-0.359,0.432-0.504,0.72l-0.288,0.864
		l-0.648,1.728c-0.432,1.2-0.792,2.304-1.08,3.312c-0.288,0.96-0.504,1.896-0.648,2.808c-0.097,0.529-0.144,1.068-0.144,1.62
		c0,0.553,0.12,1.093,0.36,1.62c0.335,0.817,0.888,1.116,1.656,0.9c0.768-0.216,1.571-0.659,2.412-1.332
		c0.839-0.671,1.62-1.392,2.34-2.16c0.72-0.768,1.199-1.296,1.44-1.584l2.232-2.448c0.143-0.144,0.299-0.335,0.467-0.576
		c0.168-0.24,0.36-0.443,0.576-0.612c0.217-0.167,0.432-0.275,0.648-0.324c0.216-0.047,0.42,0.048,0.611,0.288
		c0.191,0.241,0.24,0.468,0.145,0.684c-0.097,0.216-0.216,0.421-0.359,0.612c-0.241,0.241-0.457,0.48-0.648,0.72
		c-0.192,0.241-0.385,0.48-0.576,0.72l-2.376,2.52c-0.624,0.673-1.261,1.332-1.908,1.98s-1.332,1.236-2.052,1.764
		c-0.529,0.385-1.057,0.72-1.584,1.008c-0.529,0.288-1.128,0.408-1.8,0.36c-1.104,0-1.896-0.432-2.376-1.296
		c-0.48-0.864-0.745-1.775-0.792-2.736c-0.048-1.152,0.083-2.304,0.396-3.456c0.312-1.152,0.66-2.279,1.044-3.384
		c-0.241,0.288-0.468,0.576-0.684,0.864c-0.216,0.288-0.444,0.576-0.684,0.864c-0.241,0.241-0.529,0.36-0.864,0.36
		c-0.336,0-0.552-0.191-0.648-0.576c-0.097-0.335,0.024-0.684,0.36-1.044c0.335-0.36,0.6-0.659,0.792-0.9l1.728-2.232
		c0.24-0.239,0.443-0.479,0.612-0.72c0.167-0.24,0.371-0.479,0.612-0.72c0.096-0.096,0.191-0.216,0.288-0.36
		c0.096-0.144,0.167-0.288,0.216-0.432c0.096-0.096,0.155-0.216,0.18-0.36c0.023-0.144,0.083-0.288,0.18-0.432
		c0.335-0.864,0.659-1.715,0.971-2.556c0.312-0.839,0.66-1.667,1.045-2.484c0.527-1.296,1.044-2.592,1.548-3.888
		c0.504-1.296,1.044-2.567,1.62-3.816c0.383-0.864,0.792-1.728,1.224-2.592c0.433-0.864,0.864-1.728,1.296-2.592
		c0.384-0.768,0.804-1.523,1.26-2.268c0.456-0.744,0.973-1.451,1.549-2.124c0.479-0.624,1.139-1.199,1.979-1.728
		C213.662,10.2,214.49,10.152,215.308,10.584z M214.516,15.192c0.191-0.383,0.359-0.888,0.504-1.512
		c0.145-0.624,0.047-1.127-0.288-1.512c-0.097-0.144-0.241-0.216-0.433-0.216s-0.359,0.024-0.504,0.072
		c-0.672,0.288-1.248,0.756-1.728,1.404c-0.48,0.648-0.912,1.285-1.296,1.908c-0.432,0.673-0.828,1.357-1.188,2.052
		c-0.36,0.696-0.709,1.404-1.045,2.124c-0.528,1.056-1.032,2.1-1.512,3.132c-0.48,1.033-0.936,2.077-1.368,3.132l-2.159,5.4
		c1.104-1.487,2.207-2.963,3.312-4.428c1.104-1.464,2.184-2.939,3.239-4.428c0.816-1.152,1.608-2.315,2.377-3.492
		C213.195,17.652,213.891,16.441,214.516,15.192z"/>
	<path fill="none" stroke="#000000" stroke-width="2" stroke-miterlimit="10" d="M226.18,41.112
		c0.335,0.288,0.406,0.601,0.216,0.936c-0.192,0.336-0.385,0.625-0.576,0.864l-1.728,1.944c-0.529,0.529-1.045,1.044-1.549,1.548
		c-0.504,0.504-1.044,1.021-1.619,1.548c-1.152,0.96-2.461,1.848-3.925,2.664c-1.464,0.816-2.987,1.128-4.571,0.936
		c-0.77-0.095-1.453-0.347-2.053-0.756c-0.601-0.407-1.068-0.972-1.404-1.692c-0.385-0.815-0.552-1.692-0.504-2.628
		s0.168-1.836,0.36-2.7c0.433-1.824,1.128-3.575,2.088-5.256c0.96-1.68,2.136-3.143,3.528-4.392c0.576-0.527,1.199-1.008,1.872-1.44
		c0.671-0.432,1.392-0.72,2.159-0.864c0.816-0.144,1.645-0.083,2.484,0.18c0.84,0.265,1.404,0.828,1.692,1.692
		c0.19,0.673,0.19,1.296,0,1.872c-0.192,0.576-0.468,1.128-0.828,1.656c-0.36,0.529-0.792,1.008-1.296,1.44
		s-0.997,0.817-1.477,1.152c-0.816,0.529-1.655,0.972-2.52,1.332c-0.863,0.36-1.753,0.684-2.664,0.972
		c-0.288,0.097-0.576,0.18-0.863,0.252c-0.289,0.072-0.576,0.156-0.865,0.252l-0.863,0.216c-0.097,0-0.169,0.013-0.217,0.036
		c-0.048,0.025-0.119,0.036-0.215,0.036c-0.049,0-0.072,0.048-0.072,0.144c0,0.097-0.025,0.144-0.072,0.144
		c-0.385,1.249-0.576,2.448-0.576,3.6c0.047,0.385,0.119,0.792,0.217,1.224c0.096,0.432,0.287,0.817,0.575,1.152
		c0.576,0.48,1.176,0.72,1.8,0.72c0.672,0.097,1.344,0.036,2.017-0.18c0.671-0.216,1.319-0.468,1.944-0.756
		c0.814-0.479,1.607-1.019,2.375-1.62c0.768-0.6,1.513-1.235,2.232-1.908c0.432-0.384,0.852-0.803,1.26-1.26
		c0.408-0.456,0.804-0.9,1.188-1.332l1.296-1.584C225.362,40.824,225.747,40.777,226.18,41.112z M218.979,33.408
		c-0.817,0.097-1.573,0.396-2.269,0.9c-0.696,0.504-1.309,1.044-1.836,1.62c-1.296,1.44-2.4,3.144-3.312,5.112
		c1.487-0.384,2.987-0.888,4.5-1.512c1.512-0.623,2.796-1.487,3.852-2.592c0.672-0.672,1.08-1.368,1.224-2.088
		c0.096-0.672-0.107-1.104-0.611-1.296C220.023,33.361,219.507,33.312,218.979,33.408z"/>
	<path fill="none" stroke="#000000" stroke-width="2" stroke-miterlimit="10" d="M242.451,41.328c0.335-0.432,0.72-0.492,1.151-0.18
		c0.433,0.313,0.505,0.684,0.216,1.116c-0.287,0.385-0.564,0.745-0.828,1.08c-0.264,0.336-0.564,0.696-0.899,1.08
		c-0.673,0.769-1.368,1.501-2.088,2.196c-0.72,0.696-1.489,1.356-2.304,1.98c-1.584,1.249-3.373,2.244-5.365,2.988
		c-1.992,0.745-4.02,0.876-6.084,0.396c-1.008-0.24-1.955-0.612-2.844-1.116c-0.889-0.504-1.717-1.116-2.483-1.836
		c-0.191-0.144-0.396-0.324-0.612-0.54c-0.216-0.216-0.348-0.443-0.396-0.684c0-0.24,0.062-0.443,0.181-0.612
		c0.12-0.167,0.3-0.252,0.54-0.252c0.288-0.047,0.529,0.036,0.72,0.252c0.191,0.216,0.384,0.421,0.576,0.612
		c0.384,0.385,0.792,0.72,1.224,1.008c0.864,0.625,1.752,1.08,2.664,1.368c0.24,0.097,0.492,0.168,0.756,0.216
		c0.264,0.048,0.516,0.097,0.756,0.144c0.24,0.048,0.469,0.084,0.685,0.108c0.216,0.025,0.443,0.013,0.685-0.036
		c0.671-0.144,1.211-0.443,1.619-0.9c0.408-0.456,0.731-0.996,0.973-1.62c0.287-0.816,0.468-1.656,0.539-2.52
		c0.072-0.864,0.108-1.728,0.108-2.592c0-1.152-0.048-2.315-0.144-3.492c-0.098-1.176-0.098-2.364,0-3.564
		c-1.44,1.776-2.904,3.456-4.393,5.04l-1.295,1.368c-0.098,0.144-0.253,0.229-0.469,0.252c-0.216,0.025-0.396-0.036-0.54-0.18
		c-0.241-0.191-0.349-0.396-0.323-0.612c0.023-0.216,0.107-0.432,0.252-0.648c0.144-0.216,0.311-0.407,0.504-0.576
		c0.191-0.167,0.359-0.324,0.504-0.468c1.104-1.248,2.184-2.508,3.24-3.78c1.055-1.271,2.135-2.531,3.239-3.78l0.864-1.008
		c0.335-0.384,0.695-0.432,1.08-0.144c0.383,0.288,0.479,0.625,0.287,1.008c-0.096,0.241-0.24,0.444-0.432,0.612
		c-0.191,0.168-0.336,0.372-0.432,0.612c-0.192,0.432-0.312,0.889-0.359,1.368c-0.049,0.48-0.098,0.984-0.145,1.512
		c-0.049,1.201-0.025,2.401,0.072,3.6c0.096,1.2,0.119,2.401,0.072,3.6c0,1.008-0.072,2.052-0.217,3.132s-0.48,2.077-1.008,2.988
		c1.152-0.432,2.232-0.996,3.24-1.692c1.008-0.695,1.967-1.451,2.88-2.268C240.003,44.424,241.346,42.912,242.451,41.328z"/>
</g>
<g>
</g>
<g>
</g>
<g>
</g>
<g>
</g>
<g>
</g>
<g>
</g>
</svg>
