<?xml version="1.0" encoding="utf-8"?>
<!-- Generator: Adobe Illustrator 16.0.0, SVG Export Plug-In . SVG Version: 6.00 Build 0)  -->
<!DOCTYPE svg PUBLIC "-//W3C//DTD SVG 1.1//EN" "http://www.w3.org/Graphics/SVG/1.1/DTD/svg11.dtd">
<svg version="1.1" id="Layer_1" xmlns="http://www.w3.org/2000/svg" xmlns:xlink="http://www.w3.org/1999/xlink" x="0px" y="0px"
	 width="299px" height="82px" viewBox="0 0 299 82" enable-background="new 0 0 299 82" xml:space="preserve">
<g>
	<path fill="none" stroke="#000000" stroke-width="2" stroke-miterlimit="10" d="M94.566,41.256
		c0.144-0.191,0.335-0.299,0.576-0.324c0.239-0.024,0.456,0.061,0.648,0.252c0.288,0.385,0.263,0.792-0.072,1.224
		c-0.385,0.48-0.781,0.948-1.188,1.404c-0.408,0.457-0.828,0.9-1.26,1.332c-0.673,0.673-1.393,1.308-2.16,1.908
		c-0.769,0.601-1.584,1.116-2.448,1.548c-1.537,0.864-3.096,1.321-4.68,1.368c-0.241,0.049-0.457,0.072-0.648,0.072
		c-0.192,0-0.409,0-0.648,0c-0.288,0-0.504-0.023-0.648-0.072c-0.048,0.049-0.072,0.144-0.072,0.288
		c-0.097,0.385-0.12,0.792-0.072,1.224c0.047,0.432,0.096,0.84,0.144,1.224c0.144,1.104,0.299,2.232,0.468,3.384
		c0.167,1.152,0.288,2.304,0.36,3.456c0.072,1.152,0.072,2.293,0,3.42c-0.072,1.126-0.276,2.244-0.612,3.347
		c-0.432,1.393-1.152,2.664-2.16,3.816c-1.008,1.152-2.28,1.752-3.816,1.801c-0.911,0-1.703-0.252-2.376-0.756
		c-0.671-0.504-1.127-1.188-1.368-2.053c-0.144-0.672-0.155-1.355-0.036-2.051c0.12-0.697,0.252-1.381,0.396-2.053
		c0.432-1.824,0.997-3.625,1.692-5.4c0.696-1.776,1.404-3.552,2.124-5.328l5.112-11.736c-0.385,0.049-0.648-0.095-0.792-0.432
		c-0.144-0.335-0.097-0.648,0.144-0.936l0.72-0.792l0.864-0.864c0.096-0.191,0.228-0.36,0.396-0.504
		c0.168-0.144,0.299-0.335,0.396-0.576c0.288-0.576,0.6-1.248,0.936-2.016l1.08-2.592c0.959-2.448,1.944-4.86,2.952-7.236
		c1.008-2.376,2.016-4.788,3.024-7.236c0.383-0.912,0.767-1.812,1.152-2.7c0.384-0.888,0.767-1.788,1.152-2.7
		c0.384-0.815,0.864-1.559,1.44-2.232c0.576-0.671,1.319-1.127,2.232-1.368c0.671-0.24,1.355-0.263,2.052-0.072
		c0.695,0.192,1.284,0.576,1.764,1.152c0.576,0.672,0.864,1.464,0.864,2.376c0,0.912-0.12,1.776-0.36,2.592
		c-0.48,1.393-1.116,2.725-1.908,3.996c-0.792,1.272-1.62,2.509-2.484,3.708c-1.056,1.488-2.148,2.952-3.276,4.392
		c-1.128,1.44-2.268,2.88-3.42,4.32l-3.312,3.816l-1.512,1.728l-0.648,0.72c-0.288,0.336-0.48,0.648-0.576,0.936
		c-0.673,1.537-1.332,3.048-1.98,4.536c-0.648,1.488-1.308,3-1.98,4.536c0.144-0.335,0.384-0.528,0.72-0.576
		c0.335-0.047,0.671-0.072,1.008-0.072c0.288,0,0.576,0,0.864,0s0.6-0.023,0.936-0.072c1.104-0.144,2.232-0.479,3.384-1.008
		c1.392-0.671,2.652-1.572,3.78-2.7C92.561,43.549,93.605,42.408,94.566,41.256z M81.246,62.065
		c0.047-1.105,0.011-2.209-0.108-3.313c-0.12-1.104-0.252-2.208-0.396-3.312c-0.097-0.529-0.168-1.044-0.216-1.548
		c-0.048-0.504-0.097-1.02-0.144-1.548c-0.144-0.816-0.144-1.656,0-2.52c-0.625,1.393-1.236,2.796-1.836,4.212
		c-0.601,1.415-1.165,2.844-1.692,4.284c-0.432,1.104-0.852,2.208-1.26,3.312c-0.407,1.104-0.756,2.207-1.044,3.312
		c-0.096,0.336-0.167,0.672-0.216,1.008c-0.047,0.336-0.096,0.695-0.144,1.08c-0.096,0.385-0.144,0.756-0.144,1.117
		c0,0.359,0.097,0.73,0.288,1.115c0.288,0.576,0.745,0.9,1.368,0.973c0.624,0.07,1.2-0.014,1.728-0.252
		c0.72-0.289,1.332-0.732,1.836-1.332c0.504-0.602,0.9-1.273,1.188-2.018c0.288-0.744,0.491-1.512,0.612-2.303
		C81.185,63.539,81.246,62.784,81.246,62.065z M86.934,34.776c1.343-1.584,2.675-3.179,3.996-4.788
		c1.32-1.607,2.604-3.251,3.852-4.932c0.576-0.768,1.14-1.548,1.692-2.34c0.551-0.792,1.091-1.595,1.62-2.412
		c0.384-0.672,0.756-1.332,1.116-1.98c0.36-0.648,0.684-1.332,0.972-2.052c0.144-0.335,0.263-0.708,0.36-1.116
		c0.096-0.407,0.131-0.828,0.108-1.26c-0.025-0.432-0.121-0.815-0.288-1.152c-0.168-0.335-0.468-0.6-0.9-0.792
		c-0.72-0.335-1.417-0.263-2.088,0.216c-0.673,0.48-1.201,1.008-1.584,1.584c-0.241,0.385-0.457,0.804-0.648,1.26
		c-0.192,0.457-0.385,0.9-0.576,1.332l-1.152,2.736c-0.48,1.104-0.936,2.208-1.368,3.312c-0.432,1.104-0.889,2.208-1.368,3.312
		L86.934,34.776z"/>
	<path fill="none" stroke="#000000" stroke-width="2" stroke-miterlimit="10" d="M111.125,41.112
		c0.335,0.288,0.407,0.601,0.216,0.936c-0.192,0.336-0.385,0.625-0.576,0.864l-1.728,1.944c-0.529,0.529-1.044,1.044-1.548,1.548
		c-0.504,0.504-1.044,1.021-1.62,1.548c-1.152,0.96-2.46,1.848-3.924,2.664c-1.464,0.816-2.988,1.128-4.572,0.936
		c-0.769-0.095-1.452-0.347-2.052-0.756c-0.601-0.407-1.069-0.972-1.404-1.692c-0.385-0.815-0.552-1.692-0.504-2.628
		c0.047-0.936,0.167-1.836,0.36-2.7c0.432-1.824,1.127-3.575,2.088-5.256c0.96-1.68,2.135-3.143,3.528-4.392
		c0.576-0.527,1.199-1.008,1.872-1.44c0.671-0.432,1.392-0.72,2.16-0.864c0.816-0.144,1.644-0.083,2.484,0.18
		c0.839,0.265,1.404,0.828,1.692,1.692c0.191,0.673,0.191,1.296,0,1.872c-0.192,0.576-0.468,1.128-0.828,1.656
		c-0.36,0.529-0.792,1.008-1.296,1.44s-0.997,0.817-1.476,1.152c-0.817,0.529-1.656,0.972-2.52,1.332
		c-0.864,0.36-1.753,0.684-2.664,0.972c-0.288,0.097-0.576,0.18-0.864,0.252c-0.288,0.072-0.576,0.156-0.864,0.252l-0.864,0.216
		c-0.097,0-0.169,0.013-0.216,0.036c-0.048,0.025-0.12,0.036-0.216,0.036c-0.048,0-0.072,0.048-0.072,0.144
		c0,0.097-0.025,0.144-0.072,0.144c-0.385,1.249-0.576,2.448-0.576,3.6c0.047,0.385,0.12,0.792,0.216,1.224
		c0.096,0.432,0.288,0.817,0.576,1.152c0.576,0.48,1.176,0.72,1.8,0.72c0.671,0.097,1.343,0.036,2.016-0.18
		c0.671-0.216,1.319-0.468,1.944-0.756c0.815-0.479,1.607-1.019,2.376-1.62c0.767-0.6,1.512-1.235,2.232-1.908
		c0.432-0.384,0.852-0.803,1.26-1.26c0.407-0.456,0.803-0.9,1.188-1.332l1.296-1.584C110.308,40.824,110.693,40.777,111.125,41.112z
		 M103.925,33.408c-0.817,0.097-1.573,0.396-2.268,0.9c-0.697,0.504-1.309,1.044-1.836,1.62c-1.296,1.44-2.401,3.144-3.312,5.112
		c1.487-0.384,2.988-0.888,4.5-1.512c1.512-0.623,2.795-1.487,3.852-2.592c0.672-0.672,1.08-1.368,1.224-2.088
		c0.096-0.672-0.108-1.104-0.612-1.296C104.969,33.361,104.453,33.312,103.925,33.408z"/>
	<path fill="none" stroke="#000000" stroke-width="2" stroke-miterlimit="10" d="M133.301,41.184
		c0.288-0.288,0.612-0.335,0.972-0.144c0.36,0.192,0.492,0.48,0.396,0.864c-0.048,0.192-0.12,0.349-0.216,0.468
		c-0.097,0.12-0.192,0.229-0.288,0.324c-0.385,0.385-0.745,0.781-1.08,1.188c-0.336,0.409-0.673,0.805-1.008,1.188
		c-0.817,0.913-1.632,1.825-2.448,2.736c-0.817,0.912-1.704,1.752-2.664,2.52c-0.672,0.576-1.452,1.044-2.34,1.404
		c-0.889,0.36-1.789,0.324-2.7-0.108c-1.008-0.432-1.573-1.14-1.692-2.124c-0.12-0.983-0.108-1.955,0.036-2.916
		c-0.673,0.864-1.429,1.692-2.268,2.484c-0.84,0.792-1.74,1.453-2.7,1.98c-0.816,0.385-1.728,0.637-2.736,0.756
		c-1.008,0.12-1.92-0.083-2.736-0.612c-0.673-0.432-1.141-1.008-1.404-1.728c-0.264-0.72-0.396-1.463-0.396-2.232
		c0.047-0.911,0.228-1.8,0.54-2.664c0.312-0.864,0.684-1.703,1.116-2.52c0.527-1.104,1.176-2.124,1.944-3.06
		c0.768-0.936,1.608-1.811,2.52-2.628c0.72-0.671,1.487-1.307,2.304-1.908c0.815-0.6,1.68-1.116,2.592-1.548
		c1.104-0.527,2.268-0.923,3.492-1.188c1.224-0.263,2.459-0.324,3.708-0.18c0.24,0.048,0.456,0.084,0.648,0.108
		c0.191,0.025,0.407,0.084,0.648,0.18c0.288,0.097,0.456,0.252,0.504,0.468c0.047,0.216,0.036,0.457-0.036,0.72
		c-0.072,0.264-0.18,0.528-0.324,0.792c-0.144,0.264-0.241,0.468-0.288,0.612c-0.432,0.961-0.876,1.897-1.332,2.808
		c-0.457,0.912-0.948,1.848-1.476,2.808c-0.144,0.288-0.3,0.576-0.468,0.864c-0.169,0.288-0.349,0.576-0.54,0.864
		c-0.144,0.288-0.288,0.565-0.432,0.828c-0.144,0.265-0.264,0.565-0.36,0.9c-0.192,0.529-0.373,1.069-0.54,1.62
		c-0.169,0.552-0.3,1.116-0.396,1.692c-0.097,0.432-0.156,0.9-0.18,1.404c-0.024,0.504,0.083,0.972,0.324,1.404
		c0.144,0.288,0.384,0.493,0.72,0.612c0.335,0.12,0.672,0.132,1.008,0.036c0.383-0.096,0.744-0.227,1.08-0.396
		c0.335-0.167,0.648-0.371,0.936-0.612c0.383-0.335,0.767-0.672,1.152-1.008c0.384-0.335,0.744-0.695,1.08-1.08
		c0.959-0.96,1.872-1.944,2.736-2.952C131.573,43.2,132.437,42.192,133.301,41.184z M113.501,49.968
		c0.815-0.239,1.548-0.6,2.196-1.08c0.648-0.479,1.26-1.008,1.836-1.584c0.671-0.672,1.307-1.416,1.908-2.232
		c0.6-0.815,1.164-1.631,1.692-2.448c0.191-0.24,0.348-0.479,0.468-0.72c0.119-0.239,0.227-0.479,0.324-0.72l0.648-1.368
		c0.191-0.479,0.383-0.936,0.576-1.368c0.191-0.432,0.407-0.864,0.648-1.296c0.384-0.671,0.756-1.332,1.116-1.98
		s0.731-1.307,1.116-1.98c-1.104-0.144-2.208-0.096-3.312,0.144c-1.104,0.241-2.136,0.601-3.096,1.08
		c-0.961,0.48-1.836,1.033-2.628,1.656c-0.792,0.625-1.548,1.296-2.268,2.016c-0.864,0.817-1.656,1.705-2.376,2.664
		c-0.72,0.961-1.321,1.992-1.8,3.096c-0.288,0.672-0.529,1.416-0.72,2.232c-0.192,0.817-0.192,1.609,0,2.376
		c0.096,0.336,0.227,0.648,0.396,0.936c0.167,0.288,0.419,0.504,0.756,0.648c0.384,0.144,0.803,0.192,1.26,0.144
		C112.697,50.137,113.116,50.065,113.501,49.968z"/>
	<path fill="none" stroke="#000000" stroke-width="2" stroke-miterlimit="10" d="M149.752,41.004
		c0.312,0.072,0.516,0.252,0.612,0.54c0.096,0.241,0,0.552-0.288,0.936c-0.241,0.241-0.468,0.504-0.684,0.792
		s-0.444,0.552-0.684,0.792c-0.816,0.961-1.62,1.933-2.412,2.916c-0.792,0.984-1.692,1.884-2.7,2.7
		c-0.72,0.576-1.537,1.044-2.448,1.404c-0.912,0.36-1.848,0.396-2.808,0.108c-0.72-0.191-1.272-0.563-1.656-1.116
		c-0.385-0.551-0.625-1.164-0.72-1.836c-0.097-0.72-0.121-1.44-0.072-2.16c0.047-0.72,0.144-1.416,0.288-2.088
		c0.24-1.104,0.504-2.184,0.792-3.24c0.288-1.055,0.623-2.112,1.008-3.168c-0.48,0.673-0.96,1.357-1.44,2.052
		c-0.48,0.696-0.984,1.38-1.512,2.052c-0.192,0.241-0.421,0.493-0.684,0.756c-0.265,0.265-0.565,0.252-0.9-0.036
		c-0.385-0.24-0.48-0.528-0.288-0.864c0.191-0.335,0.407-0.623,0.648-0.864c0.959-1.296,1.883-2.604,2.772-3.924
		c0.888-1.319,1.739-2.675,2.556-4.068h-3.24c-0.336,0-0.588-0.119-0.756-0.36c-0.169-0.24-0.18-0.504-0.036-0.792
		c0.096-0.24,0.252-0.372,0.468-0.396c0.216-0.024,0.443-0.036,0.684-0.036h3.816l0.72-1.512c0.672-1.343,1.307-2.711,1.908-4.104
		c0.6-1.392,1.188-2.783,1.764-4.176c0.144-0.384,0.42-0.551,0.828-0.504c0.407,0.048,0.636,0.288,0.684,0.72
		c0.047,0.241,0.011,0.48-0.108,0.72c-0.121,0.241-0.229,0.457-0.324,0.648l-1.08,2.736c-0.385,0.913-0.756,1.812-1.116,2.7
		c-0.36,0.889-0.732,1.812-1.116,2.772h4.968c0.288,0,0.648-0.011,1.08-0.036c0.432-0.023,0.72,0.133,0.864,0.468
		c0.144,0.288,0.119,0.552-0.072,0.792c-0.192,0.241-0.432,0.36-0.72,0.36h-6.768c-0.097,0-0.205,0.205-0.324,0.612
		c-0.121,0.409-0.205,0.661-0.252,0.756l-0.576,1.512l-1.152,3.168c-0.336,0.961-0.637,1.933-0.9,2.916
		c-0.264,0.984-0.493,1.98-0.684,2.988c-0.097,0.673-0.18,1.368-0.252,2.088c-0.072,0.72,0.036,1.393,0.324,2.016
		c0.191,0.48,0.479,0.781,0.864,0.9c0.384,0.12,0.792,0.144,1.224,0.072c0.432-0.072,0.864-0.204,1.296-0.396
		c0.432-0.191,0.792-0.407,1.08-0.648c0.96-0.671,1.824-1.463,2.592-2.376c0.767-0.911,1.536-1.847,2.304-2.808l1.872-2.232
		C149.188,41.017,149.439,40.932,149.752,41.004z"/>
	<path fill="none" stroke="#000000" stroke-width="2" stroke-miterlimit="10" d="M173.908,41.256
		c0.24-0.239,0.492-0.335,0.756-0.288c0.263,0.049,0.468,0.192,0.612,0.432c0.144,0.336,0.072,0.696-0.216,1.08
		c-0.241,0.241-0.468,0.504-0.684,0.792c-0.216,0.288-0.444,0.552-0.684,0.792c-0.625,0.673-1.26,1.344-1.908,2.016
		c-0.648,0.673-1.309,1.344-1.98,2.016c-0.576,0.576-1.177,1.128-1.8,1.656c-0.625,0.529-1.296,0.984-2.016,1.368
		c-0.288,0.144-0.625,0.288-1.008,0.432c-0.385,0.144-0.768,0.229-1.152,0.252c-0.385,0.024-0.756-0.024-1.116-0.144
		c-0.36-0.12-0.637-0.372-0.828-0.756c-0.288-0.527-0.396-1.116-0.324-1.764c0.072-0.648,0.18-1.26,0.324-1.836
		c0.24-1.056,0.563-2.088,0.972-3.096c0.407-1.008,0.828-2.016,1.26-3.024c-1.057,1.488-2.16,2.94-3.312,4.356
		c-1.152,1.417-2.424,2.725-3.816,3.924c-0.673,0.529-1.38,1.021-2.124,1.476c-0.745,0.457-1.524,0.732-2.34,0.828
		c-0.72,0.097-1.368-0.036-1.944-0.396c-0.576-0.36-0.936-0.924-1.08-1.692c-0.097-0.672-0.072-1.368,0.072-2.088
		c0.144-0.72,0.335-1.415,0.576-2.088c0.335-1.055,0.72-2.099,1.152-3.132c0.432-1.032,0.864-2.076,1.296-3.132l-1.728,2.232
		c-0.241,0.241-0.504,0.529-0.792,0.864c-0.288,0.336-0.625,0.385-1.008,0.144c-0.385-0.24-0.493-0.528-0.324-0.864
		c0.167-0.335,0.371-0.624,0.612-0.864l1.44-1.8c0.767-0.96,1.523-1.932,2.268-2.916c0.744-0.983,1.452-1.956,2.124-2.916
		c0.096-0.096,0.168-0.216,0.216-0.36c0.047-0.144,0.119-0.263,0.216-0.36c0.335-0.335,0.72-0.335,1.152,0
		c0.191,0.192,0.264,0.385,0.216,0.576c-0.048,0.192-0.121,0.385-0.216,0.576c-0.385,0.961-0.781,1.944-1.188,2.952
		c-0.408,1.008-0.828,1.993-1.26,2.952c-0.432,0.961-0.853,1.92-1.26,2.88c-0.408,0.961-0.781,1.92-1.116,2.88
		c-0.144,0.385-0.277,0.792-0.396,1.224c-0.121,0.432-0.229,0.864-0.324,1.296c-0.192,0.673-0.216,1.249-0.072,1.728
		c0.144,0.576,0.504,0.817,1.08,0.72c0.576-0.096,1.055-0.24,1.44-0.432c0.527-0.24,1.044-0.551,1.548-0.936
		c0.504-0.383,0.972-0.792,1.404-1.224c1.199-1.104,2.304-2.304,3.312-3.6c1.008-1.296,1.992-2.616,2.952-3.96
		c0.816-1.248,1.62-2.484,2.412-3.708c0.792-1.224,1.548-2.459,2.268-3.708c0.24-0.432,0.527-0.648,0.864-0.648
		c0.432,0,0.695,0.216,0.792,0.648c0.047,0.144,0.036,0.3-0.036,0.468c-0.072,0.169-0.133,0.324-0.18,0.468
		c-0.241,0.529-0.468,1.069-0.684,1.62c-0.216,0.553-0.444,1.092-0.684,1.62c-0.529,1.296-1.056,2.581-1.584,3.852
		c-0.529,1.272-1.033,2.532-1.512,3.78c-0.288,0.769-0.565,1.524-0.828,2.268c-0.265,0.745-0.444,1.524-0.54,2.34
		c-0.048,0.144-0.072,0.349-0.072,0.612c0,0.264,0.072,0.444,0.216,0.54c0.144,0.097,0.324,0.12,0.54,0.072
		c0.216-0.047,0.371-0.096,0.468-0.144l0.792-0.36c0.816-0.432,1.548-0.947,2.196-1.548c0.648-0.6,1.307-1.212,1.98-1.836
		c0.815-0.816,1.607-1.644,2.376-2.484C172.443,43.045,173.188,42.168,173.908,41.256z"/>
	<path fill="none" stroke="#000000" stroke-width="2" stroke-miterlimit="10" d="M193.275,40.752c0.191,0,0.36,0.072,0.504,0.216
		c0.144,0.144,0.24,0.324,0.288,0.54c0.047,0.216-0.025,0.421-0.216,0.612l-0.72,0.864l-2.52,2.808
		c-0.673,0.817-1.368,1.609-2.088,2.376c-0.72,0.769-1.488,1.488-2.304,2.16c-0.529,0.432-1.069,0.84-1.62,1.224
		c-0.552,0.385-1.164,0.625-1.836,0.72c-0.529,0.048-0.972-0.023-1.332-0.216c-0.36-0.191-0.648-0.468-0.864-0.828
		s-0.36-0.756-0.432-1.188c-0.072-0.432-0.084-0.864-0.036-1.296c0.191-1.152,0.587-2.256,1.188-3.312
		c0.6-1.055,1.212-2.063,1.836-3.024c0.335-0.528,0.659-1.056,0.972-1.584c0.312-0.528,0.636-1.08,0.972-1.656
		c0.191-0.384,0.407-0.815,0.648-1.296c0.24-0.479,0.335-0.936,0.288-1.368c-0.048-0.24-0.36-0.348-0.936-0.324
		c-0.576,0.024-0.961,0.036-1.152,0.036c-0.48-0.047-0.925-0.144-1.332-0.288c-0.409-0.144-0.709-0.479-0.9-1.008
		c-0.817,1.008-1.645,1.98-2.484,2.916c-0.84,0.936-1.668,1.884-2.484,2.844l-1.368,1.44c-0.192,0.192-0.385,0.336-0.576,0.432
		c-0.192,0.097-0.409,0.072-0.648-0.072c-0.288-0.144-0.432-0.335-0.432-0.576c0-0.239,0.096-0.479,0.288-0.72
		c0.191-0.24,0.396-0.468,0.612-0.684s0.396-0.396,0.54-0.54c0.72-0.767,1.428-1.536,2.124-2.304
		c0.695-0.767,1.379-1.559,2.052-2.376l2.304-2.808l1.08-1.224c0.24-0.335,0.551-0.419,0.936-0.252
		c0.383,0.168,0.551,0.444,0.504,0.828c-0.048,0.241-0.144,0.48-0.288,0.72c-0.144,0.241-0.264,0.48-0.36,0.72
		c-0.048,0.144-0.097,0.276-0.144,0.396c-0.048,0.12-0.072,0.252-0.072,0.396c-0.049,0.192-0.061,0.312-0.036,0.36
		c0.023,0.048,0.155,0.097,0.396,0.144c0.479,0.048,0.947,0.048,1.404,0c0.456-0.047,0.9,0.025,1.332,0.216
		c0.528,0.192,0.888,0.504,1.08,0.936c0.191,0.432,0.24,0.889,0.144,1.368c-0.192,0.96-0.576,1.92-1.152,2.88
		c-0.288,0.576-0.601,1.128-0.936,1.656c-0.336,0.528-0.673,1.056-1.008,1.584c-0.529,0.864-1.056,1.752-1.584,2.664
		c-0.529,0.913-0.912,1.872-1.152,2.88c-0.048,0.288-0.061,0.648-0.036,1.08c0.024,0.432,0.228,0.696,0.612,0.792
		c0.239,0.097,0.491,0.072,0.756-0.072c0.263-0.144,0.492-0.263,0.684-0.36c0.767-0.479,1.463-1.032,2.088-1.656
		c0.623-0.623,1.248-1.271,1.872-1.944l4.968-5.544C192.891,40.849,193.083,40.752,193.275,40.752z"/>
	<path fill="none" stroke="#000000" stroke-width="2" stroke-miterlimit="10" d="M209.043,41.112
		c0.336,0.288,0.407,0.601,0.217,0.936c-0.193,0.336-0.385,0.625-0.576,0.864l-1.729,1.944c-0.529,0.529-1.044,1.044-1.548,1.548
		c-0.505,0.504-1.044,1.021-1.62,1.548c-1.152,0.96-2.461,1.848-3.924,2.664c-1.464,0.816-2.988,1.128-4.572,0.936
		c-0.769-0.095-1.452-0.347-2.052-0.756c-0.601-0.407-1.069-0.972-1.404-1.692c-0.385-0.815-0.552-1.692-0.504-2.628
		c0.047-0.936,0.167-1.836,0.36-2.7c0.432-1.824,1.127-3.575,2.088-5.256c0.96-1.68,2.135-3.143,3.528-4.392
		c0.576-0.527,1.199-1.008,1.872-1.44c0.671-0.432,1.392-0.72,2.16-0.864c0.815-0.144,1.644-0.083,2.484,0.18
		c0.839,0.265,1.403,0.828,1.692,1.692c0.19,0.673,0.19,1.296,0,1.872c-0.193,0.576-0.469,1.128-0.828,1.656
		c-0.36,0.529-0.793,1.008-1.297,1.44s-0.996,0.817-1.476,1.152c-0.817,0.529-1.656,0.972-2.52,1.332
		c-0.864,0.36-1.753,0.684-2.664,0.972c-0.288,0.097-0.576,0.18-0.864,0.252c-0.288,0.072-0.576,0.156-0.864,0.252l-0.864,0.216
		c-0.097,0-0.169,0.013-0.216,0.036c-0.048,0.025-0.12,0.036-0.216,0.036c-0.048,0-0.072,0.048-0.072,0.144
		c0,0.097-0.025,0.144-0.072,0.144c-0.385,1.249-0.576,2.448-0.576,3.6c0.047,0.385,0.12,0.792,0.216,1.224
		c0.096,0.432,0.288,0.817,0.576,1.152c0.576,0.48,1.176,0.72,1.8,0.72c0.671,0.097,1.343,0.036,2.016-0.18
		c0.671-0.216,1.319-0.468,1.944-0.756c0.815-0.479,1.607-1.019,2.376-1.62c0.767-0.6,1.513-1.235,2.231-1.908
		c0.433-0.384,0.852-0.803,1.261-1.26c0.407-0.456,0.804-0.9,1.188-1.332l1.295-1.584C208.227,40.824,208.611,40.777,209.043,41.112
		z M201.844,33.408c-0.817,0.097-1.573,0.396-2.269,0.9c-0.697,0.504-1.309,1.044-1.836,1.62c-1.296,1.44-2.401,3.144-3.312,5.112
		c1.487-0.384,2.988-0.888,4.5-1.512c1.512-0.623,2.795-1.487,3.852-2.592c0.672-0.672,1.08-1.368,1.224-2.088
		c0.096-0.672-0.108-1.104-0.612-1.296C202.887,33.361,202.371,33.312,201.844,33.408z"/>
	<path fill="none" stroke="#000000" stroke-width="2" stroke-miterlimit="10" d="M225.314,41.328
		c0.336-0.432,0.721-0.492,1.152-0.18c0.432,0.313,0.504,0.684,0.217,1.116c-0.289,0.385-0.565,0.745-0.828,1.08
		c-0.265,0.336-0.565,0.696-0.9,1.08c-0.673,0.769-1.368,1.501-2.088,2.196c-0.721,0.696-1.488,1.356-2.305,1.98
		c-1.584,1.249-3.372,2.244-5.363,2.988c-1.992,0.745-4.021,0.876-6.084,0.396c-1.008-0.24-1.957-0.612-2.844-1.116
		c-0.889-0.504-1.717-1.116-2.484-1.836c-0.191-0.144-0.396-0.324-0.612-0.54c-0.216-0.216-0.348-0.443-0.396-0.684
		c0-0.24,0.061-0.443,0.18-0.612c0.121-0.167,0.301-0.252,0.54-0.252c0.288-0.047,0.528,0.036,0.72,0.252
		c0.191,0.216,0.384,0.421,0.576,0.612c0.384,0.385,0.792,0.72,1.225,1.008c0.863,0.625,1.751,1.08,2.664,1.368
		c0.238,0.097,0.491,0.168,0.756,0.216c0.263,0.048,0.515,0.097,0.756,0.144c0.239,0.048,0.468,0.084,0.684,0.108
		c0.217,0.025,0.443,0.013,0.684-0.036c0.672-0.144,1.212-0.443,1.621-0.9c0.406-0.456,0.73-0.996,0.971-1.62
		c0.289-0.816,0.469-1.656,0.541-2.52c0.072-0.864,0.107-1.728,0.107-2.592c0-1.152-0.049-2.315-0.144-3.492
		c-0.097-1.176-0.097-2.364,0-3.564c-1.44,1.776-2.905,3.456-4.392,5.04l-1.297,1.368c-0.097,0.144-0.252,0.229-0.468,0.252
		c-0.216,0.025-0.396-0.036-0.54-0.18c-0.24-0.191-0.349-0.396-0.324-0.612c0.023-0.216,0.108-0.432,0.252-0.648
		c0.145-0.216,0.312-0.407,0.504-0.576c0.191-0.167,0.36-0.324,0.504-0.468c1.104-1.248,2.184-2.508,3.24-3.78
		c1.056-1.271,2.136-2.531,3.24-3.78l0.864-1.008c0.335-0.384,0.694-0.432,1.079-0.144s0.48,0.625,0.289,1.008
		c-0.098,0.241-0.241,0.444-0.432,0.612c-0.193,0.168-0.337,0.372-0.433,0.612c-0.192,0.432-0.313,0.889-0.36,1.368
		c-0.049,0.48-0.097,0.984-0.144,1.512c-0.048,1.201-0.024,2.401,0.071,3.6c0.096,1.2,0.119,2.401,0.072,3.6
		c0,1.008-0.072,2.052-0.216,3.132s-0.48,2.077-1.008,2.988c1.151-0.432,2.231-0.996,3.239-1.692
		c1.009-0.695,1.969-1.451,2.881-2.268C222.867,44.424,224.211,42.912,225.314,41.328z"/>
</g>
<g>
</g>
<g>
</g>
<g>
</g>
<g>
</g>
<g>
</g>
<g>
</g>
</svg>
