<?xml version="1.0" encoding="utf-8"?>
<!-- Generator: Adobe Illustrator 16.0.0, SVG Export Plug-In . SVG Version: 6.00 Build 0)  -->
<!DOCTYPE svg PUBLIC "-//W3C//DTD SVG 1.1//EN" "http://www.w3.org/Graphics/SVG/1.1/DTD/svg11.dtd">
<svg version="1.1" id="graph-svg" xmlns="http://www.w3.org/2000/svg" xmlns:xlink="http://www.w3.org/1999/xlink" x="0px" y="0px"
	 width="299px" height="82px" viewBox="0 0 299 82" enable-background="new 0 0 299 82" xml:space="preserve">
<g>
	<path fill="none" stroke="#000000" stroke-width="2" stroke-miterlimit="10" d="M117.281,41.256
		c0.144-0.191,0.324-0.288,0.54-0.288c0.216,0,0.407,0.061,0.576,0.18c0.168,0.121,0.276,0.277,0.324,0.468
		c0.047,0.192,0,0.385-0.144,0.576c-0.097,0.192-0.229,0.373-0.396,0.54c-0.169,0.169-0.349,0.349-0.54,0.54l-0.792,0.936
		c-0.625,0.625-1.236,1.224-1.836,1.8c-0.601,0.576-1.236,1.128-1.908,1.656c-0.432,0.385-0.864,0.732-1.296,1.044
		c-0.432,0.312-0.864,0.637-1.296,0.972l-1.584,1.08c-0.192,0.144-0.36,0.409-0.504,0.792l-1.8,4.104
		c-0.768,1.68-1.512,3.359-2.232,5.04c-0.72,1.68-1.512,3.335-2.376,4.968c-0.385,0.719-0.781,1.428-1.188,2.123
		c-0.408,0.695-0.876,1.379-1.404,2.053c-0.385,0.432-0.805,0.814-1.26,1.152c-0.457,0.334-0.972,0.551-1.548,0.646
		c-1.105,0.145-1.932-0.156-2.484-0.898c-0.551-0.746-0.875-1.598-0.972-2.557c-0.096-0.672-0.083-1.344,0.036-2.016
		c0.12-0.674,0.3-1.346,0.54-2.016c0.528-1.681,1.319-3.24,2.376-4.68c1.055-1.44,2.207-2.761,3.456-3.96
		c0.815-0.817,1.703-1.548,2.664-2.196c0.96-0.648,1.919-1.284,2.88-1.908l2.16-1.44c0.096-0.095,0.168-0.191,0.216-0.288
		c0.047-0.096,0.096-0.191,0.144-0.288l1.08-2.592l-0.504,0.576c-0.72,0.817-1.5,1.596-2.34,2.34
		c-0.84,0.745-1.789,1.309-2.844,1.692c-0.864,0.288-1.789,0.408-2.772,0.36c-0.984-0.047-1.812-0.432-2.484-1.152
		c-0.529-0.576-0.853-1.26-0.972-2.052c-0.12-0.792-0.132-1.572-0.036-2.34c0.144-1.008,0.432-1.98,0.864-2.916
		c0.432-0.936,0.936-1.836,1.512-2.7c0.815-1.296,1.811-2.543,2.988-3.744c1.176-1.199,2.472-2.232,3.888-3.096
		c1.415-0.864,2.916-1.512,4.5-1.944c1.584-0.432,3.191-0.504,4.824-0.216c0.24,0.048,0.516,0.121,0.828,0.216
		c0.312,0.097,0.492,0.312,0.54,0.648c0.047,0.241-0.012,0.516-0.18,0.828c-0.168,0.313-0.3,0.588-0.396,0.828l-1.08,2.448
		l-5.04,11.448c1.343-1.008,2.615-2.076,3.816-3.204C115.024,43.693,116.176,42.505,117.281,41.256z M106.193,52.632
		c-0.817,0.529-1.62,1.057-2.412,1.584c-0.792,0.528-1.573,1.127-2.34,1.8c-0.624,0.527-1.212,1.08-1.764,1.656
		c-0.553,0.576-1.092,1.176-1.62,1.8c-0.72,0.96-1.368,1.979-1.944,3.06c-0.576,1.08-0.984,2.195-1.224,3.347
		c-0.048,0.24-0.084,0.492-0.108,0.756c-0.025,0.264-0.036,0.541-0.036,0.828c-0.047,0.385-0.023,0.828,0.072,1.332
		c0.096,0.504,0.335,0.875,0.72,1.117c0.288,0.191,0.576,0.252,0.864,0.18c0.288-0.072,0.564-0.205,0.828-0.396
		c0.263-0.191,0.515-0.408,0.756-0.648c0.239-0.24,0.432-0.48,0.576-0.719c0.576-0.77,1.091-1.584,1.548-2.449
		c0.456-0.863,0.875-1.727,1.26-2.592c0.576-1.152,1.116-2.302,1.62-3.455s1.019-2.329,1.548-3.528L106.193,52.632z M102.161,49.968
		c0.528-0.144,1.104-0.407,1.728-0.792c0.671-0.432,1.296-0.936,1.872-1.512c0.576-0.576,1.127-1.176,1.656-1.8
		c0.624-0.72,1.188-1.451,1.692-2.196c0.504-0.744,1.02-1.523,1.548-2.34c0.767-1.343,1.487-2.688,2.16-4.032
		c0.672-1.343,1.32-2.711,1.944-4.104c-1.105-0.191-2.221-0.167-3.348,0.072c-1.128,0.241-2.196,0.624-3.204,1.152
		c-0.912,0.48-1.776,1.033-2.592,1.656c-0.817,0.625-1.584,1.296-2.304,2.016c-0.816,0.817-1.584,1.705-2.304,2.664
		c-0.72,0.961-1.345,1.992-1.872,3.096c-0.288,0.672-0.529,1.416-0.72,2.232c-0.192,0.817-0.192,1.609,0,2.376
		c0.191,0.769,0.6,1.296,1.224,1.584c0.384,0.144,0.803,0.192,1.26,0.144C101.357,50.137,101.776,50.065,102.161,49.968z"/>
	<path fill="none" stroke="#000000" stroke-width="2" stroke-miterlimit="10" d="M136.576,40.752c0.191,0,0.36,0.072,0.504,0.216
		c0.144,0.144,0.24,0.324,0.288,0.54c0.047,0.216-0.025,0.421-0.216,0.612l-0.72,0.864l-2.52,2.808
		c-0.673,0.817-1.368,1.609-2.088,2.376c-0.72,0.769-1.488,1.488-2.304,2.16c-0.529,0.432-1.069,0.84-1.62,1.224
		c-0.552,0.385-1.164,0.625-1.836,0.72c-0.529,0.048-0.972-0.023-1.332-0.216c-0.36-0.191-0.648-0.468-0.864-0.828
		s-0.36-0.756-0.432-1.188c-0.072-0.432-0.084-0.864-0.036-1.296c0.191-1.152,0.587-2.256,1.188-3.312
		c0.6-1.055,1.212-2.063,1.836-3.024c0.335-0.528,0.659-1.056,0.972-1.584c0.312-0.528,0.636-1.08,0.972-1.656
		c0.191-0.384,0.407-0.815,0.648-1.296c0.24-0.479,0.335-0.936,0.288-1.368c-0.048-0.24-0.36-0.348-0.936-0.324
		c-0.576,0.024-0.961,0.036-1.152,0.036c-0.48-0.047-0.925-0.144-1.332-0.288c-0.409-0.144-0.709-0.479-0.9-1.008
		c-0.817,1.008-1.645,1.98-2.484,2.916c-0.84,0.936-1.668,1.884-2.484,2.844l-1.368,1.44c-0.192,0.192-0.385,0.336-0.576,0.432
		c-0.192,0.097-0.409,0.072-0.648-0.072c-0.288-0.144-0.432-0.335-0.432-0.576c0-0.239,0.096-0.479,0.288-0.72
		c0.191-0.24,0.396-0.468,0.612-0.684s0.396-0.396,0.54-0.54c0.72-0.767,1.428-1.536,2.124-2.304
		c0.695-0.767,1.379-1.559,2.052-2.376l2.304-2.808l1.08-1.224c0.24-0.335,0.551-0.419,0.936-0.252
		c0.383,0.168,0.551,0.444,0.504,0.828c-0.048,0.241-0.144,0.48-0.288,0.72c-0.144,0.241-0.264,0.48-0.36,0.72
		c-0.048,0.144-0.097,0.276-0.144,0.396c-0.048,0.12-0.072,0.252-0.072,0.396c-0.049,0.192-0.061,0.312-0.036,0.36
		c0.023,0.048,0.155,0.097,0.396,0.144c0.479,0.048,0.947,0.048,1.404,0c0.456-0.047,0.9,0.025,1.332,0.216
		c0.528,0.192,0.888,0.504,1.08,0.936c0.191,0.432,0.24,0.889,0.144,1.368c-0.192,0.96-0.576,1.92-1.152,2.88
		c-0.288,0.576-0.601,1.128-0.936,1.656c-0.336,0.528-0.673,1.056-1.008,1.584c-0.529,0.864-1.056,1.752-1.584,2.664
		c-0.529,0.913-0.912,1.872-1.152,2.88c-0.048,0.288-0.061,0.648-0.036,1.08c0.024,0.432,0.228,0.696,0.612,0.792
		c0.239,0.097,0.491,0.072,0.756-0.072c0.263-0.144,0.492-0.263,0.684-0.36c0.767-0.479,1.463-1.032,2.088-1.656
		c0.623-0.623,1.248-1.271,1.872-1.944L136,41.04C136.191,40.849,136.384,40.752,136.576,40.752z"/>
	<path fill="none" stroke="#000000" stroke-width="2" stroke-miterlimit="10" d="M159.184,41.184
		c0.288-0.288,0.612-0.335,0.972-0.144c0.36,0.192,0.492,0.48,0.396,0.864c-0.048,0.192-0.12,0.349-0.216,0.468
		c-0.097,0.12-0.192,0.229-0.288,0.324c-0.385,0.385-0.745,0.781-1.08,1.188c-0.336,0.409-0.673,0.805-1.008,1.188
		c-0.817,0.913-1.632,1.825-2.448,2.736c-0.817,0.912-1.704,1.752-2.664,2.52c-0.672,0.576-1.452,1.044-2.34,1.404
		c-0.889,0.36-1.789,0.324-2.7-0.108c-1.008-0.432-1.573-1.14-1.692-2.124c-0.12-0.983-0.108-1.955,0.036-2.916
		c-0.673,0.864-1.429,1.692-2.268,2.484c-0.84,0.792-1.74,1.453-2.7,1.98c-0.816,0.385-1.728,0.637-2.736,0.756
		c-1.008,0.12-1.92-0.083-2.736-0.612c-0.673-0.432-1.141-1.008-1.404-1.728c-0.264-0.72-0.396-1.463-0.396-2.232
		c0.047-0.911,0.228-1.8,0.54-2.664c0.312-0.864,0.684-1.703,1.116-2.52c0.527-1.104,1.176-2.124,1.944-3.06
		c0.768-0.936,1.608-1.811,2.52-2.628c0.72-0.671,1.487-1.307,2.304-1.908c0.815-0.6,1.68-1.116,2.592-1.548
		c1.104-0.527,2.268-0.923,3.492-1.188c1.224-0.263,2.459-0.324,3.708-0.18c0.24,0.048,0.456,0.084,0.648,0.108
		c0.191,0.025,0.407,0.084,0.648,0.18c0.288,0.097,0.456,0.252,0.504,0.468c0.047,0.216,0.036,0.457-0.036,0.72
		c-0.072,0.264-0.18,0.528-0.324,0.792c-0.144,0.264-0.241,0.468-0.288,0.612c-0.432,0.961-0.876,1.897-1.332,2.808
		c-0.457,0.912-0.948,1.848-1.476,2.808c-0.144,0.288-0.3,0.576-0.468,0.864c-0.169,0.288-0.349,0.576-0.54,0.864
		c-0.144,0.288-0.288,0.565-0.432,0.828c-0.144,0.265-0.264,0.565-0.36,0.9c-0.192,0.529-0.373,1.069-0.54,1.62
		c-0.169,0.552-0.3,1.116-0.396,1.692c-0.097,0.432-0.156,0.9-0.18,1.404c-0.024,0.504,0.083,0.972,0.324,1.404
		c0.144,0.288,0.384,0.493,0.72,0.612c0.335,0.12,0.672,0.132,1.008,0.036c0.383-0.096,0.744-0.227,1.08-0.396
		c0.335-0.167,0.648-0.371,0.936-0.612c0.383-0.335,0.767-0.672,1.152-1.008c0.384-0.335,0.744-0.695,1.08-1.08
		c0.959-0.96,1.872-1.944,2.736-2.952C157.456,43.2,158.32,42.192,159.184,41.184z M139.384,49.968
		c0.815-0.239,1.548-0.6,2.196-1.08c0.648-0.479,1.26-1.008,1.836-1.584c0.671-0.672,1.307-1.416,1.908-2.232
		c0.6-0.815,1.164-1.631,1.692-2.448c0.191-0.24,0.348-0.479,0.468-0.72c0.119-0.239,0.227-0.479,0.324-0.72l0.648-1.368
		c0.191-0.479,0.383-0.936,0.576-1.368c0.191-0.432,0.407-0.864,0.648-1.296c0.384-0.671,0.756-1.332,1.116-1.98
		s0.731-1.307,1.116-1.98c-1.104-0.144-2.208-0.096-3.312,0.144c-1.104,0.241-2.136,0.601-3.096,1.08
		c-0.961,0.48-1.836,1.033-2.628,1.656c-0.792,0.625-1.548,1.296-2.268,2.016c-0.864,0.817-1.656,1.705-2.376,2.664
		c-0.72,0.961-1.321,1.992-1.8,3.096c-0.288,0.672-0.529,1.416-0.72,2.232c-0.192,0.817-0.192,1.609,0,2.376
		c0.096,0.336,0.227,0.648,0.396,0.936c0.167,0.288,0.419,0.504,0.756,0.648c0.384,0.144,0.803,0.192,1.26,0.144
		C138.58,50.137,138.999,50.065,139.384,49.968z"/>
	<path fill="none" stroke="#000000" stroke-width="2" stroke-miterlimit="10" d="M183.375,41.256
		c0.288-0.335,0.636-0.36,1.044-0.072c0.407,0.288,0.492,0.625,0.252,1.008c-0.144,0.241-0.312,0.457-0.504,0.648
		c-0.192,0.192-0.385,0.409-0.576,0.648c-0.192,0.192-0.372,0.373-0.54,0.54c-0.168,0.169-0.324,0.373-0.468,0.612
		c-1.105,1.152-2.353,2.28-3.744,3.384c-1.537,1.152-3.204,2.124-5.004,2.916s-3.685,1.285-5.652,1.476
		c-1.249,0.144-2.568,0.097-3.96-0.144l-1.152-0.216c-0.529-0.191-0.72-0.54-0.576-1.044c0.144-0.504,0.479-0.684,1.008-0.54
		c0.479,0.144,0.959,0.216,1.44,0.216c0.24,0,0.443-0.011,0.612-0.036c0.167-0.023,0.348-0.06,0.54-0.108
		c0.768-0.144,1.536-0.407,2.304-0.792c0.72-0.384,1.404-0.828,2.052-1.332c0.648-0.504,1.26-1.067,1.836-1.692
		c1.055-1.152,1.98-2.459,2.772-3.924c0.792-1.464,1.379-2.963,1.764-4.5c0.191-0.576,0.335-1.199,0.432-1.872
		c0.047-0.432,0.083-0.888,0.108-1.368c0.024-0.479-0.061-0.911-0.252-1.296c-0.192-0.384-0.516-0.528-0.972-0.432
		c-0.457,0.097-0.828,0.216-1.116,0.36c-0.625,0.241-1.213,0.553-1.764,0.936c-0.552,0.385-1.092,0.792-1.62,1.224
		c-0.673,0.576-1.332,1.188-1.98,1.836c-0.648,0.648-1.285,1.309-1.908,1.98c-0.673,0.817-1.321,1.645-1.944,2.484
		c-0.625,0.841-1.224,1.717-1.8,2.628c-0.624,0.96-1.152,1.896-1.584,2.808c-0.097,0.144-0.18,0.277-0.252,0.396
		c-0.072,0.121-0.133,0.252-0.18,0.396l-0.36,0.792l-0.648,1.584c-0.912,2.16-1.825,4.308-2.736,6.444
		c-0.913,2.135-1.849,4.285-2.808,6.444c-0.384,0.863-0.756,1.727-1.116,2.592c-0.36,0.863-0.731,1.703-1.116,2.52
		c-0.096,0.24-0.204,0.443-0.324,0.611c-0.119,0.168-0.299,0.252-0.54,0.252c-0.527-0.096-0.792-0.385-0.792-0.863
		c0-0.193,0.036-0.373,0.108-0.541c0.072-0.168,0.156-0.322,0.252-0.467l0.432-0.936l4.104-9.504l8.424-20.016
		c-0.673,0.769-1.345,1.524-2.016,2.268c-0.673,0.745-1.344,1.524-2.016,2.34c-0.192,0.241-0.42,0.409-0.684,0.504
		c-0.264,0.097-0.516,0-0.756-0.288c-0.336-0.335-0.312-0.72,0.072-1.152l3.888-4.464c0.624-0.671,1.224-1.343,1.8-2.016
		c0.576-0.671,1.152-1.343,1.728-2.016c0.288-0.335,0.635-0.372,1.044-0.108c0.407,0.265,0.515,0.588,0.324,0.972
		c-0.097,0.192-0.168,0.36-0.216,0.504c-0.048,0.144-0.097,0.288-0.144,0.432c-0.385,0.961-0.769,1.884-1.152,2.772
		c-0.385,0.889-0.769,1.812-1.152,2.772c1.008-1.248,2.088-2.459,3.24-3.636c1.152-1.176,2.423-2.196,3.816-3.06
		c0.335-0.191,0.72-0.407,1.152-0.648c0.432-0.24,0.875-0.432,1.332-0.576c0.456-0.144,0.9-0.204,1.332-0.18
		c0.432,0.025,0.839,0.157,1.224,0.396c0.576,0.385,0.936,0.925,1.08,1.62c0.144,0.696,0.191,1.357,0.144,1.98
		c-0.048,0.913-0.18,1.825-0.396,2.736c-0.216,0.912-0.493,1.776-0.828,2.592c-0.72,1.825-1.668,3.564-2.844,5.22
		c-1.177,1.656-2.604,3.037-4.284,4.14c2.639-0.671,5.004-1.847,7.092-3.528C179.739,45.192,181.647,43.32,183.375,41.256z"/>
	<path fill="none" stroke="#000000" stroke-width="2" stroke-miterlimit="10" d="M208.07,41.4c0.24-0.288,0.528-0.36,0.865-0.216
		c0.334,0.144,0.504,0.408,0.504,0.792c-0.049,0.192-0.205,0.457-0.469,0.792c-0.264,0.336-0.468,0.601-0.611,0.792
		c-0.385,0.48-0.732,0.9-1.045,1.26c-0.312,0.36-0.732,0.828-1.26,1.404c-0.863,1.008-1.848,2.077-2.951,3.204
		c-1.105,1.128-2.232,1.908-3.385,2.34c-1.104,0.385-1.944,0.205-2.52-0.54c-0.576-0.744-0.792-1.62-0.648-2.628
		c0.24-1.296,0.624-2.544,1.152-3.744c0.528-1.199,1.056-2.399,1.584-3.6c0.191-0.479,0.479-1.175,0.864-2.088
		c0.384-0.911,0.659-1.8,0.828-2.664c0.167-0.864,0.119-1.584-0.144-2.16c-0.265-0.576-0.948-0.768-2.052-0.576
		c-0.672,0.097-1.285,0.336-1.836,0.72c-0.552,0.385-1.092,0.792-1.62,1.224c-1.537,1.296-2.977,2.785-4.32,4.464
		c-1.632,2.016-3.072,4.225-4.32,6.624c-0.385,0.673-0.72,1.368-1.008,2.088c-0.288,0.72-0.576,1.44-0.864,2.16
		c-0.144,0.385-0.288,0.745-0.432,1.08c-0.144,0.336-0.432,0.408-0.864,0.216c-0.385-0.144-0.54-0.408-0.468-0.792
		c0.072-0.383,0.18-0.743,0.324-1.08c0.239-0.624,0.479-1.235,0.72-1.836c0.24-0.6,0.479-1.212,0.72-1.836l3.456-8.784l-3.672,4.176
		c-0.192,0.241-0.408,0.36-0.648,0.36c-0.241,0-0.432-0.06-0.576-0.18c-0.144-0.119-0.229-0.288-0.252-0.504
		c-0.025-0.216,0.06-0.443,0.252-0.684c0.671-0.816,1.355-1.608,2.052-2.376c0.695-0.768,1.404-1.56,2.124-2.376
		c0.288-0.384,0.587-0.744,0.9-1.08c0.312-0.335,0.636-0.695,0.972-1.08c0.384-0.479,0.708-0.983,0.972-1.512
		c0.263-0.527,0.515-1.08,0.756-1.656c0.767-1.824,1.548-3.647,2.34-5.472c0.792-1.823,1.595-3.647,2.412-5.472l2.52-5.04
		c0.479-0.816,0.996-1.631,1.548-2.448c0.551-0.815,1.235-1.44,2.053-1.872c0.959-0.527,1.871-0.563,2.735-0.108
		c0.864,0.457,1.343,1.236,1.44,2.34c0.096,1.056-0.121,2.077-0.648,3.06c-0.529,0.984-1.057,1.908-1.584,2.772
		c-1.104,1.825-2.328,3.564-3.672,5.22c-1.344,1.656-2.712,3.301-4.104,4.932l-3.672,4.176c-0.817,0.961-1.44,2.028-1.872,3.204
		c-0.432,1.177-0.889,2.316-1.368,3.42c0.911-1.104,1.86-2.196,2.844-3.276c0.983-1.08,2.052-2.027,3.204-2.844
		c0.816-0.623,1.788-1.116,2.916-1.476c1.127-0.36,2.171-0.252,3.132,0.324c0.815,0.529,1.283,1.213,1.404,2.052
		c0.119,0.84,0.059,1.752-0.181,2.736c-0.241,0.984-0.575,1.944-1.008,2.88s-0.792,1.717-1.08,2.34
		c-0.336,0.72-0.66,1.429-0.972,2.124c-0.313,0.697-0.588,1.404-0.828,2.124c-0.144,0.432-0.3,0.913-0.468,1.44
		c-0.168,0.528-0.205,1.033-0.108,1.512c0.096,0.385,0.288,0.576,0.576,0.576s0.6-0.083,0.936-0.252
		c0.335-0.168,0.648-0.372,0.936-0.612c0.288-0.239,0.504-0.407,0.647-0.504c1.297-1.104,2.484-2.315,3.564-3.636
		C205.875,44.004,206.967,42.696,208.07,41.4z M200.871,14.184c-0.576,0.864-1.105,1.776-1.584,2.736
		c-0.48,0.961-0.936,1.92-1.368,2.88c-0.817,1.584-1.573,3.193-2.268,4.824c-0.696,1.632-1.404,3.265-2.124,4.896
		c1.631-1.824,3.228-3.672,4.788-5.544c1.559-1.872,2.988-3.888,4.284-6.048c0.384-0.672,0.815-1.404,1.296-2.196
		c0.479-0.792,0.721-1.595,0.721-2.412c0-0.383-0.121-0.731-0.36-1.044c-0.241-0.312-0.576-0.396-1.008-0.252
		c-0.528,0.144-0.984,0.432-1.368,0.864C201.494,13.32,201.158,13.752,200.871,14.184z"/>
</g>
<g>
</g>
<g>
</g>
<g>
</g>
<g>
</g>
<g>
</g>
<g>
</g>
</svg>
