<?xml version="1.0" encoding="utf-8"?>
<!-- Generator: Adobe Illustrator 16.0.0, SVG Export Plug-In . SVG Version: 6.00 Build 0)  -->
<!DOCTYPE svg PUBLIC "-//W3C//DTD SVG 1.1//EN" "http://www.w3.org/Graphics/SVG/1.1/DTD/svg11.dtd">
<svg version="1.1" id="greuler-svg" xmlns="http://www.w3.org/2000/svg" xmlns:xlink="http://www.w3.org/1999/xlink" x="0px" y="0px"
	 width="194.093px" height="102.102px" viewBox="0 0 194.093 102.102" enable-background="new 0 0 194.093 102.102"
	 xml:space="preserve">
<g>
	<path fill="none" stroke="#000000" stroke-width="1.5" stroke-miterlimit="10" d="M56.62,33.969
		c0.144-0.191,0.324-0.288,0.54-0.288c0.216,0,0.407,0.061,0.576,0.18c0.168,0.121,0.276,0.277,0.324,0.468
		c0.047,0.192,0,0.385-0.144,0.576c-0.097,0.192-0.229,0.373-0.396,0.54c-0.169,0.169-0.349,0.349-0.54,0.54l-0.792,0.936
		c-0.625,0.625-1.236,1.224-1.836,1.8c-0.601,0.576-1.236,1.128-1.908,1.656c-0.432,0.385-0.864,0.732-1.296,1.044
		s-0.864,0.637-1.296,0.972l-1.584,1.079c-0.192,0.145-0.36,0.409-0.504,0.793l-1.8,4.104c-0.768,1.68-1.512,3.359-2.232,5.04
		c-0.72,1.681-1.512,3.335-2.376,4.968c-0.385,0.721-0.781,1.428-1.188,2.125c-0.408,0.695-0.876,1.379-1.404,2.051
		c-0.385,0.434-0.805,0.816-1.26,1.152c-0.457,0.336-0.972,0.551-1.548,0.648c-1.105,0.145-1.932-0.156-2.484-0.9
		c-0.551-0.744-0.875-1.596-0.972-2.557c-0.096-0.672-0.083-1.344,0.036-2.016c0.12-0.672,0.3-1.344,0.54-2.016
		c0.528-1.68,1.319-3.24,2.376-4.68c1.055-1.439,2.207-2.761,3.456-3.96c0.815-0.817,1.703-1.548,2.664-2.196
		c0.96-0.648,1.919-1.283,2.88-1.908l2.16-1.439c0.096-0.096,0.168-0.191,0.216-0.288c0.047-0.096,0.096-0.191,0.144-0.288
		l1.08-2.592l-0.504,0.576c-0.72,0.817-1.5,1.596-2.34,2.34c-0.84,0.744-1.789,1.309-2.844,1.691
		c-0.864,0.288-1.789,0.408-2.772,0.36c-0.984-0.048-1.812-0.433-2.484-1.151c-0.529-0.576-0.853-1.261-0.972-2.053
		c-0.12-0.792-0.132-1.572-0.036-2.34c0.144-1.008,0.432-1.98,0.864-2.916c0.432-0.936,0.936-1.836,1.512-2.7
		c0.815-1.296,1.811-2.543,2.988-3.744c1.176-1.199,2.472-2.232,3.888-3.096c1.415-0.864,2.916-1.512,4.5-1.944
		c1.584-0.432,3.191-0.504,4.824-0.216c0.24,0.048,0.516,0.121,0.828,0.216c0.312,0.097,0.492,0.312,0.54,0.648
		c0.047,0.241-0.012,0.516-0.18,0.828c-0.168,0.313-0.3,0.588-0.396,0.828l-1.08,2.448l-5.04,11.448
		c1.343-1.008,2.615-2.076,3.816-3.204C54.363,36.406,55.515,35.218,56.62,33.969z M45.532,45.346
		c-0.817,0.528-1.62,1.057-2.412,1.584s-1.573,1.127-2.34,1.8c-0.624,0.527-1.212,1.08-1.764,1.655
		c-0.553,0.576-1.092,1.176-1.62,1.801c-0.72,0.959-1.368,1.98-1.944,3.061c-0.576,1.08-0.984,2.195-1.224,3.348
		c-0.048,0.238-0.084,0.492-0.108,0.756c-0.025,0.264-0.036,0.539-0.036,0.828c-0.047,0.383-0.023,0.828,0.072,1.332
		c0.096,0.504,0.335,0.875,0.72,1.115c0.288,0.191,0.576,0.252,0.864,0.18c0.288-0.072,0.564-0.203,0.828-0.395
		c0.263-0.193,0.515-0.408,0.756-0.648c0.239-0.24,0.432-0.48,0.576-0.721c0.576-0.768,1.091-1.584,1.548-2.447
		c0.456-0.865,0.875-1.729,1.26-2.592c0.576-1.152,1.116-2.305,1.62-3.457c0.504-1.151,1.019-2.328,1.548-3.527L45.532,45.346z
		 M41.5,42.682c0.528-0.145,1.104-0.408,1.728-0.793c0.671-0.432,1.296-0.935,1.872-1.511c0.576-0.576,1.127-1.176,1.656-1.8
		c0.624-0.72,1.188-1.451,1.692-2.196c0.504-0.744,1.02-1.523,1.548-2.34c0.767-1.343,1.487-2.688,2.16-4.032
		c0.672-1.343,1.32-2.711,1.944-4.104c-1.105-0.191-2.221-0.167-3.348,0.072c-1.128,0.241-2.196,0.624-3.204,1.152
		c-0.912,0.48-1.776,1.033-2.592,1.656c-0.817,0.625-1.584,1.296-2.304,2.016c-0.816,0.817-1.584,1.705-2.304,2.664
		c-0.72,0.961-1.345,1.992-1.872,3.096c-0.288,0.672-0.529,1.416-0.72,2.232c-0.192,0.817-0.192,1.609,0,2.376
		c0.191,0.768,0.6,1.295,1.224,1.584c0.384,0.144,0.803,0.191,1.26,0.144C40.696,42.85,41.115,42.778,41.5,42.682z"/>
	<path fill="none" stroke="#000000" stroke-width="1.5" stroke-miterlimit="10" d="M75.915,33.465c0.191,0,0.36,0.072,0.504,0.216
		c0.144,0.144,0.24,0.324,0.288,0.54c0.047,0.216-0.025,0.421-0.216,0.612l-0.72,0.864l-2.52,2.808
		c-0.673,0.817-1.368,1.609-2.088,2.376c-0.72,0.769-1.488,1.488-2.304,2.16c-0.529,0.432-1.069,0.841-1.62,1.225
		c-0.552,0.385-1.164,0.624-1.836,0.72c-0.529,0.048-0.972-0.023-1.332-0.216c-0.36-0.191-0.648-0.469-0.864-0.828
		s-0.36-0.756-0.432-1.188c-0.072-0.433-0.084-0.865-0.036-1.297c0.191-1.152,0.587-2.255,1.188-3.312
		c0.6-1.055,1.212-2.063,1.836-3.024c0.335-0.528,0.659-1.056,0.972-1.584c0.312-0.528,0.636-1.08,0.972-1.656
		c0.191-0.384,0.407-0.815,0.648-1.296c0.24-0.479,0.335-0.936,0.288-1.368c-0.048-0.24-0.36-0.348-0.936-0.324
		c-0.576,0.024-0.961,0.036-1.152,0.036c-0.48-0.047-0.925-0.144-1.332-0.288c-0.409-0.144-0.709-0.479-0.9-1.008
		c-0.817,1.008-1.645,1.98-2.484,2.916c-0.84,0.936-1.668,1.884-2.484,2.844l-1.368,1.44c-0.192,0.192-0.385,0.336-0.576,0.432
		c-0.192,0.097-0.409,0.072-0.648-0.072c-0.288-0.144-0.432-0.335-0.432-0.576c0-0.239,0.096-0.479,0.288-0.72
		c0.191-0.24,0.396-0.468,0.612-0.684s0.396-0.396,0.54-0.54c0.72-0.767,1.428-1.536,2.124-2.304
		c0.695-0.767,1.379-1.559,2.052-2.376l2.304-2.808l1.08-1.224c0.24-0.335,0.551-0.419,0.936-0.252
		c0.383,0.168,0.551,0.444,0.504,0.828c-0.048,0.241-0.144,0.48-0.288,0.72c-0.144,0.241-0.264,0.48-0.36,0.72
		c-0.048,0.144-0.097,0.276-0.144,0.396c-0.048,0.12-0.072,0.252-0.072,0.396c-0.049,0.192-0.061,0.312-0.036,0.36
		c0.023,0.048,0.155,0.097,0.396,0.144c0.479,0.048,0.947,0.048,1.404,0c0.456-0.047,0.9,0.025,1.332,0.216
		c0.528,0.192,0.888,0.504,1.08,0.936c0.191,0.432,0.24,0.889,0.144,1.368c-0.192,0.96-0.576,1.92-1.152,2.88
		c-0.288,0.576-0.601,1.128-0.936,1.656c-0.336,0.528-0.673,1.056-1.008,1.584c-0.529,0.864-1.056,1.752-1.584,2.664
		c-0.529,0.913-0.912,1.872-1.152,2.88c-0.048,0.289-0.061,0.648-0.036,1.08c0.024,0.432,0.228,0.697,0.612,0.793
		c0.239,0.096,0.491,0.071,0.756-0.072c0.263-0.145,0.492-0.264,0.684-0.36c0.767-0.479,1.463-1.032,2.088-1.656
		c0.623-0.623,1.248-1.271,1.872-1.944l4.968-5.544C75.53,33.562,75.723,33.465,75.915,33.465z"/>
	<path fill="none" stroke="#000000" stroke-width="1.5" stroke-miterlimit="10" d="M91.683,33.825
		c0.335,0.288,0.407,0.601,0.216,0.936c-0.192,0.336-0.385,0.625-0.576,0.864l-1.728,1.944c-0.529,0.529-1.044,1.044-1.548,1.548
		c-0.504,0.504-1.044,1.021-1.62,1.548c-1.152,0.96-2.46,1.848-3.924,2.665c-1.464,0.816-2.988,1.127-4.572,0.936
		c-0.769-0.096-1.452-0.348-2.052-0.756c-0.601-0.408-1.069-0.973-1.404-1.692c-0.385-0.815-0.552-1.692-0.504-2.628
		c0.047-0.936,0.167-1.836,0.36-2.7c0.432-1.824,1.127-3.575,2.088-5.256c0.96-1.68,2.135-3.143,3.528-4.392
		c0.576-0.527,1.199-1.008,1.872-1.44c0.671-0.432,1.392-0.72,2.16-0.864c0.816-0.144,1.644-0.083,2.484,0.18
		c0.839,0.265,1.404,0.828,1.692,1.692c0.191,0.673,0.191,1.296,0,1.872c-0.192,0.576-0.468,1.128-0.828,1.656
		c-0.36,0.529-0.792,1.008-1.296,1.44s-0.997,0.817-1.476,1.152c-0.817,0.529-1.656,0.972-2.52,1.332
		c-0.864,0.36-1.753,0.684-2.664,0.972c-0.288,0.097-0.576,0.18-0.864,0.252c-0.288,0.072-0.576,0.156-0.864,0.252l-0.864,0.216
		c-0.097,0-0.169,0.013-0.216,0.036c-0.048,0.025-0.12,0.036-0.216,0.036c-0.048,0-0.072,0.048-0.072,0.144
		c0,0.097-0.025,0.144-0.072,0.144c-0.385,1.249-0.576,2.448-0.576,3.6c0.047,0.385,0.12,0.792,0.216,1.224
		c0.096,0.433,0.288,0.817,0.576,1.151c0.576,0.48,1.176,0.721,1.8,0.721c0.671,0.097,1.343,0.036,2.016-0.18
		c0.671-0.217,1.319-0.469,1.944-0.756c0.815-0.479,1.607-1.02,2.376-1.621c0.767-0.6,1.512-1.235,2.232-1.908
		c0.432-0.384,0.852-0.803,1.26-1.26c0.407-0.456,0.803-0.9,1.188-1.332l1.296-1.584C90.866,33.538,91.25,33.49,91.683,33.825z
		 M84.483,26.122c-0.817,0.097-1.573,0.396-2.268,0.9c-0.697,0.504-1.309,1.044-1.836,1.62c-1.296,1.44-2.401,3.144-3.312,5.112
		c1.487-0.384,2.988-0.888,4.5-1.512c1.512-0.623,2.795-1.487,3.852-2.592c0.672-0.672,1.08-1.368,1.224-2.088
		c0.096-0.672-0.108-1.104-0.612-1.296C85.527,26.074,85.01,26.026,84.483,26.122z"/>
	<path fill="none" stroke="#000000" stroke-width="1.5" stroke-miterlimit="10" d="M115.515,33.969
		c0.24-0.239,0.492-0.335,0.756-0.288c0.263,0.049,0.468,0.192,0.612,0.432c0.144,0.336,0.072,0.696-0.216,1.08
		c-0.241,0.241-0.468,0.504-0.684,0.792c-0.216,0.288-0.444,0.552-0.684,0.792c-0.625,0.673-1.26,1.344-1.908,2.016
		c-0.648,0.673-1.309,1.344-1.98,2.016c-0.576,0.575-1.177,1.128-1.8,1.655c-0.625,0.529-1.296,0.984-2.016,1.369
		c-0.288,0.144-0.625,0.287-1.008,0.432c-0.385,0.144-0.768,0.229-1.152,0.252c-0.385,0.024-0.756-0.023-1.116-0.145
		c-0.36-0.119-0.637-0.371-0.828-0.756c-0.288-0.527-0.396-1.115-0.324-1.764c0.072-0.648,0.18-1.26,0.324-1.836
		c0.24-1.056,0.563-2.088,0.972-3.096c0.407-1.008,0.828-2.016,1.26-3.024c-1.057,1.488-2.16,2.94-3.312,4.356
		c-1.152,1.417-2.424,2.725-3.816,3.924c-0.673,0.528-1.38,1.02-2.124,1.476c-0.745,0.457-1.524,0.732-2.34,0.828
		c-0.72,0.097-1.368-0.036-1.944-0.396c-0.576-0.36-0.936-0.924-1.08-1.692c-0.097-0.672-0.072-1.368,0.072-2.088
		c0.144-0.72,0.335-1.415,0.576-2.088c0.335-1.055,0.72-2.099,1.152-3.132c0.432-1.032,0.864-2.076,1.296-3.132l-1.728,2.232
		c-0.241,0.241-0.504,0.529-0.792,0.864c-0.288,0.336-0.625,0.385-1.008,0.144c-0.385-0.24-0.493-0.528-0.324-0.864
		c0.167-0.335,0.371-0.624,0.612-0.864l1.44-1.8c0.767-0.96,1.523-1.932,2.268-2.916c0.744-0.983,1.452-1.956,2.124-2.916
		c0.096-0.096,0.168-0.216,0.216-0.36c0.047-0.144,0.119-0.263,0.216-0.36c0.335-0.335,0.72-0.335,1.152,0
		c0.191,0.192,0.264,0.385,0.216,0.576c-0.048,0.192-0.121,0.385-0.216,0.576c-0.385,0.961-0.781,1.944-1.188,2.952
		c-0.408,1.008-0.828,1.993-1.26,2.952c-0.432,0.961-0.853,1.92-1.26,2.88c-0.408,0.961-0.781,1.92-1.116,2.88
		c-0.144,0.385-0.277,0.792-0.396,1.224c-0.121,0.432-0.229,0.864-0.324,1.296c-0.192,0.673-0.216,1.249-0.072,1.729
		c0.144,0.576,0.504,0.816,1.08,0.72c0.576-0.096,1.055-0.239,1.44-0.433c0.527-0.239,1.044-0.551,1.548-0.936
		c0.504-0.383,0.972-0.792,1.404-1.224c1.199-1.104,2.304-2.304,3.312-3.6c1.008-1.296,1.992-2.616,2.952-3.96
		c0.816-1.248,1.62-2.484,2.412-3.708c0.792-1.224,1.548-2.459,2.268-3.708c0.24-0.432,0.527-0.648,0.864-0.648
		c0.432,0,0.695,0.216,0.792,0.648c0.047,0.144,0.036,0.3-0.036,0.468c-0.072,0.169-0.133,0.324-0.18,0.468
		c-0.241,0.529-0.468,1.069-0.684,1.62c-0.216,0.553-0.444,1.092-0.684,1.62c-0.529,1.296-1.056,2.581-1.584,3.852
		c-0.529,1.272-1.033,2.532-1.512,3.78c-0.288,0.769-0.565,1.524-0.828,2.268c-0.265,0.745-0.444,1.524-0.54,2.341
		c-0.048,0.143-0.072,0.348-0.072,0.611s0.072,0.444,0.216,0.54c0.144,0.097,0.324,0.12,0.54,0.071
		c0.216-0.047,0.371-0.096,0.468-0.144l0.792-0.36c0.816-0.432,1.548-0.947,2.196-1.547c0.648-0.6,1.307-1.212,1.98-1.836
		c0.815-0.816,1.607-1.644,2.376-2.484C114.05,35.758,114.794,34.882,115.515,33.969z"/>
	<path fill="none" stroke="#000000" stroke-width="1.5" stroke-miterlimit="10" d="M135.458,3.297
		c0.815,0.385,1.248,1.069,1.296,2.052c0.047,0.984-0.072,1.836-0.36,2.556c-0.241,0.625-0.516,1.224-0.828,1.8
		c-0.313,0.576-0.637,1.128-0.972,1.656c-0.817,1.393-1.692,2.736-2.628,4.032c-0.936,1.296-1.884,2.592-2.844,3.888
		c-1.2,1.632-2.4,3.24-3.6,4.824c-1.201,1.584-2.424,3.168-3.672,4.752c-0.192,0.192-0.36,0.432-0.504,0.72l-0.288,0.864
		l-0.648,1.728c-0.432,1.2-0.792,2.304-1.08,3.312c-0.288,0.96-0.504,1.896-0.648,2.808c-0.097,0.529-0.144,1.068-0.144,1.62
		c0,0.553,0.12,1.093,0.36,1.62c0.335,0.816,0.888,1.116,1.656,0.9c0.768-0.217,1.572-0.66,2.412-1.332
		c0.839-0.672,1.62-1.392,2.34-2.16c0.72-0.768,1.199-1.296,1.44-1.584l2.232-2.448c0.144-0.144,0.299-0.335,0.468-0.576
		c0.167-0.24,0.36-0.443,0.576-0.612c0.216-0.167,0.432-0.275,0.648-0.324c0.216-0.047,0.419,0.048,0.612,0.288
		c0.191,0.241,0.24,0.468,0.144,0.684c-0.097,0.216-0.216,0.421-0.36,0.612c-0.241,0.241-0.457,0.48-0.648,0.72
		c-0.192,0.241-0.385,0.48-0.576,0.72l-2.376,2.52c-0.625,0.673-1.26,1.332-1.908,1.98s-1.332,1.237-2.052,1.764
		c-0.529,0.385-1.057,0.72-1.584,1.008c-0.529,0.288-1.128,0.408-1.8,0.359c-1.104,0-1.896-0.432-2.376-1.295
		c-0.48-0.865-0.745-1.776-0.792-2.736c-0.048-1.152,0.083-2.304,0.396-3.456c0.312-1.152,0.66-2.279,1.044-3.384
		c-0.241,0.288-0.468,0.576-0.684,0.864c-0.216,0.288-0.444,0.576-0.684,0.864c-0.241,0.241-0.529,0.36-0.864,0.36
		c-0.336,0-0.552-0.191-0.648-0.576c-0.097-0.335,0.024-0.684,0.36-1.044c0.335-0.36,0.6-0.659,0.792-0.9l1.728-2.232
		c0.24-0.239,0.443-0.479,0.612-0.72c0.167-0.24,0.371-0.479,0.612-0.72c0.096-0.096,0.191-0.216,0.288-0.36
		c0.096-0.144,0.167-0.288,0.216-0.432c0.096-0.096,0.155-0.216,0.18-0.36c0.023-0.144,0.083-0.288,0.18-0.432
		c0.335-0.864,0.659-1.715,0.972-2.556c0.312-0.839,0.66-1.667,1.044-2.484c0.528-1.296,1.044-2.592,1.548-3.888
		c0.504-1.296,1.044-2.567,1.62-3.816c0.383-0.864,0.792-1.728,1.224-2.592c0.432-0.864,0.864-1.728,1.296-2.592
		c0.383-0.768,0.803-1.523,1.26-2.268c0.456-0.744,0.972-1.451,1.548-2.124c0.479-0.624,1.14-1.199,1.98-1.728
		C133.813,2.914,134.641,2.865,135.458,3.297z M134.666,7.905c0.191-0.383,0.36-0.888,0.504-1.512
		c0.144-0.624,0.047-1.127-0.288-1.512c-0.097-0.144-0.241-0.216-0.432-0.216c-0.192,0-0.36,0.024-0.504,0.072
		c-0.673,0.288-1.249,0.756-1.728,1.404c-0.48,0.648-0.912,1.285-1.296,1.908c-0.432,0.673-0.828,1.357-1.188,2.052
		c-0.36,0.696-0.709,1.404-1.044,2.124c-0.529,1.056-1.033,2.1-1.512,3.132c-0.48,1.033-0.936,2.077-1.368,3.132l-2.16,5.4
		c1.104-1.487,2.207-2.963,3.312-4.428c1.104-1.464,2.184-2.939,3.24-4.428c0.816-1.152,1.608-2.315,2.376-3.492
		C133.345,10.366,134.042,9.154,134.666,7.905z"/>
	<path fill="none" stroke="#000000" stroke-width="1.5" stroke-miterlimit="10" d="M146.33,33.825
		c0.335,0.288,0.407,0.601,0.216,0.936c-0.192,0.336-0.385,0.625-0.576,0.864l-1.728,1.944c-0.529,0.529-1.044,1.044-1.548,1.548
		c-0.504,0.504-1.044,1.021-1.62,1.548c-1.152,0.96-2.46,1.848-3.924,2.665c-1.464,0.816-2.988,1.127-4.572,0.936
		c-0.769-0.096-1.452-0.348-2.052-0.756c-0.601-0.408-1.069-0.973-1.404-1.692c-0.385-0.815-0.552-1.692-0.504-2.628
		c0.047-0.936,0.167-1.836,0.36-2.7c0.432-1.824,1.127-3.575,2.088-5.256c0.96-1.68,2.135-3.143,3.528-4.392
		c0.576-0.527,1.199-1.008,1.872-1.44c0.671-0.432,1.392-0.72,2.16-0.864c0.816-0.144,1.644-0.083,2.484,0.18
		c0.839,0.265,1.404,0.828,1.692,1.692c0.191,0.673,0.191,1.296,0,1.872c-0.192,0.576-0.468,1.128-0.828,1.656
		c-0.36,0.529-0.792,1.008-1.296,1.44s-0.997,0.817-1.476,1.152c-0.817,0.529-1.656,0.972-2.52,1.332
		c-0.864,0.36-1.753,0.684-2.664,0.972c-0.288,0.097-0.576,0.18-0.864,0.252c-0.288,0.072-0.576,0.156-0.864,0.252l-0.864,0.216
		c-0.097,0-0.169,0.013-0.216,0.036c-0.048,0.025-0.12,0.036-0.216,0.036c-0.048,0-0.072,0.048-0.072,0.144
		c0,0.097-0.025,0.144-0.072,0.144c-0.385,1.249-0.576,2.448-0.576,3.6c0.047,0.385,0.12,0.792,0.216,1.224
		c0.096,0.433,0.288,0.817,0.576,1.151c0.576,0.48,1.176,0.721,1.8,0.721c0.671,0.097,1.343,0.036,2.016-0.18
		c0.671-0.217,1.319-0.469,1.944-0.756c0.815-0.479,1.607-1.02,2.376-1.621c0.767-0.6,1.512-1.235,2.232-1.908
		c0.432-0.384,0.852-0.803,1.26-1.26c0.407-0.456,0.803-0.9,1.188-1.332l1.296-1.584C145.513,33.538,145.897,33.49,146.33,33.825z
		 M139.13,26.122c-0.817,0.097-1.573,0.396-2.268,0.9c-0.697,0.504-1.309,1.044-1.836,1.62c-1.296,1.44-2.401,3.144-3.312,5.112
		c1.487-0.384,2.988-0.888,4.5-1.512c1.512-0.623,2.795-1.487,3.852-2.592c0.672-0.672,1.08-1.368,1.224-2.088
		c0.096-0.672-0.108-1.104-0.612-1.296C140.174,26.074,139.657,26.026,139.13,26.122z"/>
	<path fill="none" stroke="#000000" stroke-width="1.5" stroke-miterlimit="10" d="M164.474,33.465c0.191,0,0.36,0.072,0.504,0.216
		c0.144,0.144,0.24,0.324,0.288,0.54c0.047,0.216-0.025,0.421-0.216,0.612l-0.72,0.864l-2.52,2.808
		c-0.673,0.817-1.368,1.609-2.088,2.376c-0.72,0.769-1.488,1.488-2.304,2.16c-0.529,0.432-1.069,0.841-1.62,1.225
		c-0.552,0.385-1.164,0.624-1.836,0.72c-0.529,0.048-0.972-0.023-1.332-0.216c-0.36-0.191-0.648-0.469-0.864-0.828
		s-0.36-0.756-0.432-1.188c-0.072-0.433-0.084-0.865-0.036-1.297c0.191-1.152,0.587-2.255,1.188-3.312
		c0.6-1.055,1.212-2.063,1.836-3.024c0.335-0.528,0.659-1.056,0.972-1.584c0.312-0.528,0.636-1.08,0.972-1.656
		c0.191-0.384,0.407-0.815,0.648-1.296c0.24-0.479,0.335-0.936,0.288-1.368c-0.048-0.24-0.36-0.348-0.936-0.324
		c-0.576,0.024-0.961,0.036-1.152,0.036c-0.48-0.047-0.925-0.144-1.332-0.288c-0.409-0.144-0.709-0.479-0.9-1.008
		c-0.817,1.008-1.645,1.98-2.484,2.916c-0.84,0.936-1.668,1.884-2.484,2.844l-1.368,1.44c-0.192,0.192-0.385,0.336-0.576,0.432
		c-0.192,0.097-0.409,0.072-0.648-0.072c-0.288-0.144-0.432-0.335-0.432-0.576c0-0.239,0.096-0.479,0.288-0.72
		c0.191-0.24,0.396-0.468,0.612-0.684s0.396-0.396,0.54-0.54c0.72-0.767,1.428-1.536,2.124-2.304
		c0.695-0.767,1.379-1.559,2.052-2.376l2.304-2.808l1.08-1.224c0.24-0.335,0.551-0.419,0.936-0.252
		c0.383,0.168,0.551,0.444,0.504,0.828c-0.048,0.241-0.144,0.48-0.288,0.72c-0.144,0.241-0.264,0.48-0.36,0.72
		c-0.048,0.144-0.097,0.276-0.144,0.396c-0.048,0.12-0.072,0.252-0.072,0.396c-0.049,0.192-0.061,0.312-0.036,0.36
		c0.023,0.048,0.155,0.097,0.396,0.144c0.479,0.048,0.947,0.048,1.404,0c0.456-0.047,0.9,0.025,1.332,0.216
		c0.528,0.192,0.888,0.504,1.08,0.936c0.191,0.432,0.24,0.889,0.144,1.368c-0.192,0.96-0.576,1.92-1.152,2.88
		c-0.288,0.576-0.601,1.128-0.936,1.656c-0.336,0.528-0.673,1.056-1.008,1.584c-0.529,0.864-1.056,1.752-1.584,2.664
		c-0.529,0.913-0.912,1.872-1.152,2.88c-0.048,0.289-0.061,0.648-0.036,1.08c0.024,0.432,0.228,0.697,0.612,0.793
		c0.239,0.096,0.491,0.071,0.756-0.072c0.263-0.145,0.492-0.264,0.684-0.36c0.767-0.479,1.463-1.032,2.088-1.656
		c0.623-0.623,1.248-1.271,1.872-1.944l4.968-5.544C164.089,33.562,164.281,33.465,164.474,33.465z"/>
	<path fill="none" stroke="#000000" stroke-width="1.5" stroke-miterlimit="10" d="M43.804,83.541
		c0.072-0.096,0.162-0.144,0.27-0.144s0.204,0.03,0.288,0.09c0.083,0.06,0.138,0.138,0.162,0.233c0.024,0.097,0,0.192-0.072,0.288
		c-0.048,0.097-0.114,0.187-0.198,0.271s-0.174,0.174-0.27,0.27l-0.396,0.468c-0.312,0.312-0.618,0.612-0.918,0.9
		c-0.3,0.288-0.618,0.564-0.954,0.828c-0.216,0.192-0.432,0.366-0.648,0.521c-0.216,0.157-0.432,0.319-0.648,0.486l-0.792,0.54
		c-0.096,0.072-0.18,0.204-0.252,0.396l-0.9,2.052c-0.384,0.84-0.756,1.68-1.116,2.52c-0.36,0.84-0.756,1.668-1.188,2.484
		c-0.192,0.36-0.391,0.714-0.594,1.062c-0.204,0.348-0.438,0.69-0.702,1.026c-0.192,0.216-0.402,0.408-0.63,0.576
		c-0.229,0.168-0.486,0.275-0.774,0.324c-0.552,0.071-0.966-0.078-1.242-0.45c-0.275-0.372-0.438-0.798-0.486-1.278
		c-0.048-0.336-0.042-0.672,0.018-1.008c0.06-0.336,0.15-0.672,0.27-1.008c0.264-0.841,0.66-1.62,1.188-2.34
		c0.527-0.721,1.104-1.381,1.728-1.98c0.408-0.408,0.852-0.773,1.332-1.098c0.479-0.324,0.959-0.642,1.44-0.954l1.08-0.72
		c0.048-0.048,0.083-0.096,0.108-0.145c0.023-0.048,0.048-0.096,0.072-0.144l0.54-1.296l-0.252,0.288
		c-0.36,0.408-0.75,0.798-1.17,1.17c-0.42,0.372-0.895,0.653-1.422,0.846c-0.432,0.144-0.895,0.204-1.386,0.18
		c-0.492-0.023-0.906-0.216-1.242-0.576c-0.265-0.288-0.427-0.63-0.486-1.025c-0.06-0.396-0.066-0.786-0.018-1.17
		c0.072-0.504,0.216-0.99,0.432-1.458c0.216-0.469,0.468-0.918,0.756-1.351c0.408-0.647,0.906-1.271,1.494-1.872
		c0.588-0.6,1.236-1.115,1.944-1.548c0.708-0.432,1.458-0.756,2.25-0.972s1.596-0.252,2.412-0.108
		c0.12,0.024,0.258,0.061,0.414,0.108c0.156,0.048,0.246,0.156,0.27,0.324c0.023,0.12-0.006,0.258-0.09,0.414
		c-0.084,0.156-0.15,0.294-0.198,0.414l-0.54,1.224l-2.52,5.724c0.672-0.504,1.308-1.037,1.908-1.602
		C42.675,84.76,43.251,84.165,43.804,83.541z M38.26,89.229c-0.409,0.264-0.81,0.527-1.206,0.792
		c-0.396,0.264-0.787,0.563-1.17,0.899c-0.312,0.264-0.606,0.54-0.882,0.828s-0.546,0.588-0.81,0.9
		c-0.36,0.479-0.684,0.989-0.972,1.529s-0.492,1.099-0.612,1.675c-0.024,0.119-0.042,0.245-0.054,0.378
		c-0.012,0.131-0.018,0.27-0.018,0.414c-0.023,0.191-0.012,0.414,0.036,0.666s0.167,0.438,0.36,0.558
		c0.144,0.096,0.288,0.126,0.432,0.09s0.282-0.103,0.414-0.198c0.131-0.096,0.257-0.204,0.378-0.323
		c0.12-0.121,0.216-0.24,0.288-0.36c0.288-0.384,0.545-0.792,0.774-1.224c0.228-0.433,0.438-0.864,0.63-1.297
		c0.288-0.575,0.558-1.151,0.81-1.728s0.51-1.164,0.774-1.764L38.26,89.229z M36.244,87.897c0.264-0.072,0.552-0.204,0.864-0.396
		c0.336-0.216,0.648-0.468,0.936-0.756c0.288-0.288,0.564-0.588,0.828-0.9c0.312-0.359,0.594-0.726,0.846-1.098
		s0.509-0.762,0.774-1.17c0.384-0.672,0.744-1.344,1.08-2.016c0.335-0.672,0.66-1.356,0.972-2.053
		c-0.552-0.096-1.11-0.084-1.674,0.036c-0.564,0.12-1.098,0.312-1.602,0.576c-0.456,0.24-0.888,0.517-1.296,0.828
		c-0.408,0.312-0.792,0.647-1.152,1.008c-0.409,0.408-0.792,0.853-1.152,1.332c-0.36,0.48-0.672,0.996-0.936,1.548
		c-0.144,0.337-0.264,0.708-0.36,1.116c-0.096,0.408-0.096,0.805,0,1.188c0.096,0.385,0.3,0.648,0.612,0.792
		c0.191,0.072,0.401,0.097,0.63,0.072C35.841,87.981,36.051,87.945,36.244,87.897z"/>
	<path fill="none" stroke="#000000" stroke-width="1.5" stroke-miterlimit="10" d="M53.451,83.289c0.096,0,0.18,0.036,0.252,0.108
		c0.072,0.071,0.12,0.162,0.144,0.27c0.023,0.108-0.012,0.211-0.108,0.306l-0.36,0.433l-1.26,1.404
		c-0.336,0.408-0.684,0.804-1.044,1.188s-0.744,0.744-1.152,1.08c-0.265,0.216-0.535,0.42-0.81,0.612
		c-0.276,0.192-0.583,0.312-0.918,0.359c-0.265,0.024-0.486-0.012-0.666-0.107c-0.18-0.096-0.324-0.234-0.432-0.414
		c-0.108-0.181-0.18-0.378-0.216-0.595c-0.036-0.216-0.042-0.432-0.018-0.647c0.096-0.576,0.293-1.128,0.594-1.656
		c0.3-0.527,0.606-1.031,0.918-1.512c0.168-0.264,0.33-0.527,0.486-0.792c0.156-0.264,0.318-0.54,0.486-0.828
		c0.096-0.191,0.204-0.408,0.324-0.648c0.12-0.239,0.167-0.468,0.144-0.684c-0.024-0.12-0.18-0.174-0.468-0.162
		c-0.288,0.013-0.48,0.019-0.576,0.019c-0.24-0.024-0.462-0.072-0.666-0.145c-0.204-0.072-0.354-0.239-0.45-0.504
		c-0.409,0.504-0.822,0.99-1.242,1.458s-0.834,0.942-1.242,1.422l-0.684,0.72c-0.096,0.097-0.192,0.169-0.288,0.217
		c-0.096,0.048-0.204,0.035-0.324-0.036c-0.144-0.072-0.216-0.168-0.216-0.288s0.048-0.24,0.144-0.36
		c0.096-0.119,0.198-0.233,0.306-0.342c0.108-0.108,0.198-0.198,0.27-0.27c0.36-0.384,0.713-0.769,1.062-1.152
		c0.348-0.384,0.69-0.779,1.026-1.188l1.152-1.403l0.54-0.612c0.12-0.168,0.275-0.21,0.468-0.126
		c0.192,0.084,0.276,0.222,0.252,0.414c-0.024,0.12-0.072,0.24-0.144,0.36c-0.072,0.12-0.132,0.239-0.18,0.359
		c-0.024,0.072-0.048,0.139-0.072,0.198c-0.024,0.061-0.036,0.126-0.036,0.198c-0.024,0.096-0.03,0.156-0.018,0.18
		c0.012,0.024,0.078,0.049,0.198,0.072c0.24,0.023,0.474,0.023,0.702,0c0.228-0.023,0.45,0.012,0.666,0.107
		c0.264,0.097,0.444,0.252,0.54,0.469c0.096,0.216,0.12,0.444,0.072,0.684c-0.096,0.48-0.288,0.96-0.576,1.44
		c-0.144,0.287-0.3,0.563-0.468,0.827c-0.168,0.265-0.336,0.528-0.504,0.792c-0.264,0.433-0.528,0.877-0.792,1.332
		c-0.264,0.457-0.456,0.937-0.576,1.44c-0.024,0.144-0.03,0.324-0.018,0.54c0.012,0.216,0.113,0.348,0.306,0.396
		c0.12,0.049,0.246,0.036,0.378-0.035c0.132-0.072,0.246-0.132,0.342-0.181c0.384-0.239,0.732-0.516,1.044-0.828
		c0.312-0.312,0.624-0.636,0.936-0.972l2.484-2.772C53.259,83.338,53.355,83.289,53.451,83.289z"/>
	<path fill="none" stroke="#000000" stroke-width="1.5" stroke-miterlimit="10" d="M64.755,83.505
		c0.144-0.144,0.306-0.167,0.486-0.072c0.18,0.097,0.246,0.24,0.198,0.433c-0.024,0.096-0.061,0.174-0.108,0.233
		c-0.048,0.061-0.096,0.114-0.144,0.162c-0.192,0.192-0.372,0.391-0.54,0.595c-0.168,0.204-0.336,0.401-0.504,0.594
		c-0.408,0.456-0.816,0.912-1.224,1.368c-0.409,0.456-0.853,0.876-1.332,1.26c-0.336,0.288-0.727,0.521-1.17,0.702
		c-0.445,0.18-0.895,0.162-1.35-0.055c-0.504-0.216-0.787-0.569-0.846-1.062c-0.06-0.491-0.054-0.978,0.018-1.458
		c-0.336,0.432-0.714,0.846-1.134,1.242c-0.42,0.396-0.871,0.726-1.35,0.99c-0.409,0.192-0.864,0.318-1.368,0.378
		s-0.96-0.042-1.368-0.307c-0.336-0.216-0.57-0.504-0.702-0.863c-0.132-0.36-0.198-0.732-0.198-1.116
		c0.024-0.456,0.114-0.9,0.27-1.332c0.156-0.433,0.342-0.852,0.558-1.26c0.264-0.552,0.588-1.062,0.972-1.53
		c0.383-0.468,0.804-0.906,1.26-1.314c0.36-0.336,0.744-0.653,1.152-0.954c0.408-0.3,0.84-0.558,1.296-0.773
		c0.552-0.264,1.134-0.462,1.746-0.594c0.612-0.132,1.23-0.162,1.854-0.091c0.12,0.024,0.228,0.043,0.324,0.055
		c0.096,0.012,0.204,0.042,0.324,0.09c0.144,0.048,0.228,0.126,0.252,0.234c0.023,0.107,0.018,0.228-0.018,0.359
		c-0.036,0.133-0.09,0.265-0.162,0.396c-0.072,0.132-0.121,0.233-0.144,0.306c-0.216,0.48-0.438,0.948-0.666,1.404
		c-0.229,0.456-0.474,0.924-0.738,1.403c-0.072,0.145-0.15,0.288-0.234,0.433c-0.084,0.144-0.174,0.288-0.27,0.432
		c-0.072,0.145-0.144,0.282-0.216,0.414c-0.072,0.132-0.132,0.282-0.18,0.45c-0.096,0.265-0.186,0.534-0.27,0.81
		c-0.084,0.276-0.15,0.559-0.198,0.847c-0.048,0.216-0.078,0.449-0.09,0.701c-0.013,0.252,0.042,0.486,0.162,0.702
		c0.072,0.145,0.192,0.247,0.36,0.307c0.167,0.06,0.335,0.066,0.504,0.018c0.192-0.048,0.372-0.113,0.54-0.198
		c0.167-0.084,0.324-0.186,0.468-0.306c0.192-0.168,0.384-0.336,0.576-0.504c0.192-0.168,0.372-0.348,0.54-0.54
		c0.48-0.479,0.936-0.972,1.368-1.477C63.891,84.513,64.323,84.009,64.755,83.505z M54.855,87.897c0.408-0.12,0.774-0.3,1.098-0.54
		c0.324-0.24,0.63-0.504,0.918-0.792c0.336-0.336,0.654-0.708,0.954-1.116c0.3-0.408,0.582-0.815,0.846-1.225
		c0.096-0.119,0.174-0.239,0.234-0.359c0.06-0.12,0.114-0.24,0.162-0.36l0.324-0.684c0.096-0.24,0.192-0.468,0.288-0.685
		c0.096-0.216,0.204-0.432,0.324-0.647c0.191-0.336,0.378-0.666,0.558-0.99c0.18-0.324,0.366-0.653,0.558-0.99
		c-0.552-0.071-1.104-0.048-1.656,0.072c-0.553,0.12-1.068,0.301-1.548,0.54c-0.48,0.24-0.918,0.517-1.314,0.828
		c-0.396,0.312-0.774,0.647-1.134,1.008c-0.432,0.408-0.828,0.853-1.188,1.332c-0.36,0.48-0.661,0.996-0.9,1.548
		c-0.144,0.337-0.265,0.708-0.36,1.116c-0.096,0.408-0.096,0.805,0,1.188c0.048,0.169,0.114,0.324,0.198,0.469
		c0.084,0.144,0.21,0.252,0.378,0.323c0.192,0.072,0.402,0.097,0.63,0.072C54.453,87.981,54.663,87.945,54.855,87.897z"/>
	<path fill="none" stroke="#000000" stroke-width="1.5" stroke-miterlimit="10" d="M76.851,83.541
		c0.144-0.168,0.318-0.18,0.522-0.036c0.204,0.145,0.246,0.312,0.126,0.504c-0.072,0.121-0.157,0.229-0.252,0.324
		c-0.096,0.097-0.192,0.204-0.288,0.324c-0.096,0.096-0.187,0.187-0.27,0.27c-0.084,0.085-0.162,0.187-0.234,0.307
		c-0.552,0.576-1.176,1.14-1.872,1.691c-0.769,0.576-1.602,1.062-2.502,1.458c-0.9,0.396-1.842,0.643-2.826,0.738
		c-0.625,0.072-1.284,0.049-1.98-0.072l-0.576-0.107c-0.264-0.096-0.36-0.271-0.288-0.522c0.072-0.252,0.24-0.342,0.504-0.27
		c0.239,0.071,0.479,0.107,0.72,0.107c0.12,0,0.222-0.006,0.306-0.018c0.083-0.012,0.174-0.03,0.27-0.054
		c0.383-0.072,0.768-0.204,1.152-0.396c0.36-0.191,0.702-0.414,1.026-0.666c0.324-0.252,0.63-0.534,0.918-0.846
		c0.528-0.576,0.99-1.229,1.386-1.962s0.689-1.482,0.882-2.25c0.096-0.288,0.168-0.6,0.216-0.937
		c0.023-0.216,0.042-0.443,0.054-0.684c0.012-0.24-0.03-0.456-0.126-0.648c-0.096-0.191-0.258-0.264-0.486-0.216
		c-0.229,0.049-0.414,0.108-0.558,0.18c-0.312,0.121-0.606,0.276-0.882,0.469c-0.276,0.192-0.546,0.396-0.81,0.611
		c-0.336,0.288-0.666,0.595-0.99,0.918c-0.324,0.324-0.642,0.654-0.954,0.99c-0.336,0.408-0.66,0.822-0.972,1.242
		c-0.312,0.42-0.612,0.858-0.9,1.313c-0.312,0.48-0.576,0.949-0.792,1.404c-0.048,0.072-0.09,0.139-0.126,0.198
		c-0.036,0.06-0.066,0.126-0.09,0.198l-0.18,0.396l-0.324,0.792c-0.456,1.08-0.912,2.154-1.368,3.222
		c-0.456,1.068-0.924,2.143-1.404,3.223c-0.192,0.432-0.378,0.864-0.558,1.296c-0.18,0.432-0.366,0.852-0.558,1.26
		c-0.047,0.12-0.102,0.222-0.162,0.306c-0.06,0.084-0.15,0.126-0.27,0.126c-0.264-0.048-0.396-0.192-0.396-0.432
		c0-0.096,0.018-0.187,0.054-0.27c0.036-0.085,0.078-0.162,0.126-0.234l0.216-0.468l2.052-4.752l4.212-10.008
		c-0.336,0.384-0.672,0.762-1.008,1.134c-0.336,0.372-0.672,0.762-1.008,1.17c-0.096,0.12-0.21,0.204-0.342,0.252
		c-0.132,0.048-0.258,0-0.378-0.145c-0.168-0.167-0.156-0.359,0.036-0.575l1.944-2.232c0.312-0.336,0.612-0.672,0.9-1.008
		s0.576-0.672,0.864-1.008c0.144-0.168,0.318-0.186,0.522-0.055c0.204,0.133,0.257,0.295,0.162,0.486
		c-0.048,0.097-0.084,0.18-0.108,0.252s-0.048,0.145-0.072,0.216c-0.192,0.48-0.384,0.942-0.576,1.387
		c-0.192,0.444-0.384,0.905-0.576,1.386c0.504-0.624,1.044-1.229,1.62-1.818c0.576-0.588,1.212-1.098,1.908-1.53
		c0.167-0.095,0.36-0.203,0.576-0.323c0.216-0.12,0.438-0.217,0.666-0.288c0.228-0.072,0.45-0.103,0.666-0.09
		c0.216,0.012,0.419,0.078,0.612,0.197c0.288,0.192,0.468,0.463,0.54,0.811c0.072,0.348,0.096,0.678,0.072,0.99
		c-0.024,0.456-0.09,0.912-0.198,1.367c-0.108,0.457-0.247,0.889-0.414,1.296c-0.36,0.913-0.834,1.782-1.422,2.61
		c-0.588,0.828-1.302,1.519-2.142,2.07c1.319-0.336,2.502-0.924,3.546-1.765C75.033,85.509,75.987,84.573,76.851,83.541z"/>
	<path fill="none" stroke="#000000" stroke-width="1.5" stroke-miterlimit="10" d="M89.199,83.613
		c0.12-0.145,0.264-0.181,0.432-0.108s0.252,0.204,0.252,0.396c-0.024,0.096-0.102,0.229-0.234,0.396
		c-0.132,0.168-0.234,0.301-0.306,0.396c-0.192,0.24-0.366,0.45-0.522,0.63s-0.366,0.414-0.63,0.702
		c-0.432,0.504-0.924,1.038-1.476,1.602c-0.552,0.564-1.116,0.954-1.692,1.17c-0.552,0.192-0.972,0.103-1.26-0.27
		c-0.288-0.372-0.396-0.811-0.324-1.314c0.12-0.647,0.312-1.271,0.576-1.872c0.264-0.6,0.527-1.199,0.792-1.8
		c0.096-0.239,0.239-0.588,0.432-1.044c0.192-0.456,0.33-0.9,0.414-1.332s0.06-0.792-0.072-1.08
		c-0.132-0.288-0.474-0.384-1.026-0.288c-0.336,0.049-0.643,0.168-0.918,0.36c-0.276,0.192-0.546,0.396-0.81,0.612
		c-0.769,0.647-1.488,1.392-2.16,2.231c-0.816,1.008-1.536,2.112-2.16,3.312c-0.192,0.336-0.36,0.684-0.504,1.044
		c-0.144,0.359-0.288,0.72-0.432,1.08c-0.072,0.192-0.144,0.372-0.216,0.54c-0.072,0.168-0.216,0.204-0.432,0.107
		c-0.192-0.072-0.27-0.203-0.234-0.396s0.09-0.372,0.162-0.54c0.12-0.312,0.24-0.618,0.36-0.918s0.24-0.606,0.36-0.918l1.728-4.393
		l-1.836,2.088c-0.096,0.121-0.204,0.181-0.324,0.181c-0.121,0-0.216-0.03-0.288-0.091c-0.072-0.06-0.114-0.144-0.126-0.252
		c-0.013-0.107,0.03-0.222,0.126-0.342c0.336-0.407,0.678-0.804,1.026-1.188c0.348-0.384,0.702-0.78,1.062-1.188
		c0.144-0.191,0.293-0.372,0.45-0.54c0.156-0.167,0.318-0.348,0.486-0.54c0.192-0.239,0.354-0.491,0.486-0.756
		c0.132-0.264,0.258-0.54,0.378-0.828c0.384-0.911,0.774-1.823,1.17-2.735s0.797-1.824,1.206-2.736l1.26-2.521
		c0.24-0.407,0.498-0.815,0.774-1.224s0.618-0.72,1.026-0.936c0.48-0.265,0.936-0.282,1.368-0.055
		c0.432,0.229,0.672,0.618,0.72,1.17c0.048,0.528-0.061,1.039-0.324,1.53c-0.264,0.492-0.528,0.954-0.792,1.386
		c-0.552,0.913-1.165,1.782-1.836,2.61c-0.672,0.828-1.356,1.65-2.052,2.466l-1.836,2.088c-0.408,0.48-0.72,1.015-0.936,1.603
		c-0.216,0.588-0.444,1.158-0.684,1.71c0.456-0.552,0.93-1.099,1.422-1.639c0.492-0.539,1.026-1.013,1.602-1.422
		c0.408-0.312,0.894-0.558,1.458-0.737c0.563-0.181,1.085-0.126,1.566,0.162c0.408,0.264,0.642,0.605,0.702,1.025
		c0.06,0.42,0.03,0.877-0.09,1.368c-0.12,0.492-0.288,0.972-0.504,1.44c-0.216,0.468-0.396,0.858-0.54,1.17
		c-0.168,0.359-0.33,0.714-0.486,1.062c-0.156,0.349-0.294,0.702-0.414,1.062c-0.072,0.216-0.15,0.456-0.234,0.72
		c-0.084,0.265-0.103,0.517-0.054,0.756c0.048,0.192,0.144,0.288,0.288,0.288s0.3-0.042,0.468-0.126s0.324-0.186,0.468-0.306
		s0.252-0.204,0.324-0.252c0.648-0.553,1.242-1.158,1.782-1.818S88.646,84.261,89.199,83.613z M85.599,70.005
		c-0.288,0.433-0.553,0.889-0.792,1.368c-0.24,0.48-0.468,0.96-0.684,1.44c-0.408,0.792-0.787,1.596-1.134,2.411
		c-0.348,0.816-0.702,1.633-1.062,2.448c0.815-0.911,1.614-1.836,2.394-2.771c0.78-0.937,1.494-1.944,2.142-3.024
		c0.192-0.336,0.408-0.702,0.648-1.098c0.24-0.396,0.36-0.798,0.36-1.206c0-0.192-0.061-0.366-0.18-0.522
		c-0.121-0.155-0.288-0.197-0.504-0.126c-0.265,0.072-0.492,0.216-0.684,0.433C85.91,69.573,85.743,69.789,85.599,70.005z"/>
	<path fill="none" stroke="#000000" stroke-width="1.5" stroke-miterlimit="10" d="M98.307,79.869
		c0.12,0.12,0.144,0.276,0.072,0.468c-0.072,0.145-0.204,0.216-0.396,0.216h-8.784c-0.072,0-0.144,0.007-0.216,0.019
		c-0.072,0.012-0.132-0.006-0.18-0.055c-0.168-0.071-0.252-0.191-0.252-0.359s0.084-0.3,0.252-0.396h9.18
		C98.078,79.761,98.186,79.797,98.307,79.869z"/>
	<path fill="none" stroke="#000000" stroke-width="1.5" stroke-miterlimit="10" d="M110.456,83.415
		c0.156,0.036,0.257,0.126,0.306,0.271c0.048,0.12,0,0.275-0.144,0.468c-0.12,0.12-0.234,0.252-0.342,0.396
		c-0.108,0.145-0.222,0.276-0.342,0.396c-0.409,0.48-0.81,0.966-1.206,1.458s-0.846,0.942-1.35,1.35
		c-0.36,0.288-0.769,0.522-1.224,0.702c-0.456,0.18-0.924,0.198-1.404,0.054c-0.36-0.096-0.636-0.281-0.828-0.558
		c-0.192-0.275-0.312-0.582-0.36-0.918c-0.048-0.36-0.06-0.72-0.036-1.08c0.023-0.36,0.072-0.708,0.144-1.044
		c0.12-0.552,0.252-1.092,0.396-1.62c0.144-0.527,0.312-1.056,0.504-1.584c-0.24,0.336-0.48,0.679-0.72,1.026
		c-0.24,0.348-0.492,0.689-0.756,1.025c-0.096,0.121-0.21,0.247-0.342,0.378c-0.132,0.133-0.282,0.126-0.45-0.018
		c-0.192-0.12-0.24-0.264-0.144-0.432c0.096-0.168,0.204-0.312,0.324-0.433c0.48-0.647,0.941-1.302,1.386-1.962
		c0.444-0.66,0.87-1.338,1.278-2.034h-1.62c-0.168,0-0.294-0.06-0.378-0.18c-0.084-0.12-0.09-0.252-0.018-0.396
		c0.048-0.119,0.126-0.186,0.234-0.197s0.222-0.019,0.342-0.019h1.908l0.36-0.756c0.335-0.672,0.653-1.355,0.954-2.052
		c0.3-0.696,0.594-1.392,0.882-2.088c0.072-0.192,0.209-0.275,0.414-0.252c0.204,0.023,0.317,0.144,0.342,0.359
		c0.023,0.121,0.006,0.24-0.054,0.36s-0.114,0.229-0.162,0.324l-0.54,1.368c-0.192,0.456-0.378,0.906-0.558,1.35
		c-0.18,0.444-0.366,0.906-0.558,1.386h2.484c0.144,0,0.324-0.006,0.54-0.018c0.216-0.012,0.36,0.066,0.432,0.233
		c0.072,0.145,0.06,0.276-0.036,0.396c-0.096,0.12-0.216,0.18-0.36,0.18h-3.384c-0.048,0-0.103,0.103-0.162,0.307
		c-0.06,0.204-0.103,0.33-0.126,0.378l-0.288,0.756l-0.576,1.584c-0.168,0.48-0.318,0.966-0.45,1.458
		c-0.132,0.492-0.247,0.99-0.342,1.494c-0.048,0.336-0.09,0.684-0.126,1.044c-0.036,0.359,0.018,0.696,0.162,1.008
		c0.096,0.24,0.24,0.391,0.432,0.45c0.192,0.06,0.396,0.071,0.612,0.036c0.216-0.036,0.432-0.103,0.648-0.198
		c0.216-0.096,0.396-0.204,0.54-0.324c0.48-0.336,0.912-0.731,1.296-1.188s0.768-0.924,1.152-1.404l0.936-1.116
		C110.173,83.421,110.299,83.379,110.456,83.415z"/>
	<path fill="none" stroke="#000000" stroke-width="1.5" stroke-miterlimit="10" d="M122.39,83.613
		c0.12-0.145,0.264-0.181,0.432-0.108s0.252,0.204,0.252,0.396c-0.024,0.096-0.102,0.229-0.234,0.396
		c-0.132,0.168-0.234,0.301-0.306,0.396c-0.192,0.24-0.366,0.45-0.522,0.63s-0.366,0.414-0.63,0.702
		c-0.432,0.504-0.924,1.038-1.476,1.602c-0.552,0.564-1.116,0.954-1.692,1.17c-0.552,0.192-0.972,0.103-1.26-0.27
		c-0.288-0.372-0.396-0.811-0.324-1.314c0.12-0.647,0.312-1.271,0.576-1.872c0.264-0.6,0.527-1.199,0.792-1.8
		c0.096-0.239,0.239-0.588,0.432-1.044c0.192-0.456,0.33-0.9,0.414-1.332s0.06-0.792-0.072-1.08
		c-0.132-0.288-0.474-0.384-1.026-0.288c-0.336,0.049-0.643,0.168-0.918,0.36c-0.276,0.192-0.546,0.396-0.81,0.612
		c-0.769,0.647-1.488,1.392-2.16,2.231c-0.816,1.008-1.536,2.112-2.16,3.312c-0.192,0.336-0.36,0.684-0.504,1.044
		c-0.144,0.359-0.288,0.72-0.432,1.08c-0.072,0.192-0.144,0.372-0.216,0.54c-0.072,0.168-0.216,0.204-0.432,0.107
		c-0.192-0.072-0.27-0.203-0.234-0.396s0.09-0.372,0.162-0.54c0.12-0.312,0.24-0.618,0.36-0.918s0.24-0.606,0.36-0.918l1.728-4.393
		l-1.836,2.088c-0.096,0.121-0.204,0.181-0.324,0.181c-0.121,0-0.216-0.03-0.288-0.091c-0.072-0.06-0.114-0.144-0.126-0.252
		c-0.013-0.107,0.03-0.222,0.126-0.342c0.336-0.407,0.678-0.804,1.026-1.188c0.348-0.384,0.702-0.78,1.062-1.188
		c0.144-0.191,0.293-0.372,0.45-0.54c0.156-0.167,0.318-0.348,0.486-0.54c0.192-0.239,0.354-0.491,0.486-0.756
		c0.132-0.264,0.258-0.54,0.378-0.828c0.384-0.911,0.774-1.823,1.17-2.735s0.797-1.824,1.206-2.736l1.26-2.521
		c0.24-0.407,0.498-0.815,0.774-1.224s0.618-0.72,1.026-0.936c0.48-0.265,0.936-0.282,1.368-0.055
		c0.432,0.229,0.672,0.618,0.72,1.17c0.048,0.528-0.061,1.039-0.324,1.53c-0.264,0.492-0.528,0.954-0.792,1.386
		c-0.552,0.913-1.165,1.782-1.836,2.61c-0.672,0.828-1.356,1.65-2.052,2.466l-1.836,2.088c-0.408,0.48-0.72,1.015-0.936,1.603
		c-0.216,0.588-0.444,1.158-0.684,1.71c0.456-0.552,0.93-1.099,1.422-1.639c0.492-0.539,1.026-1.013,1.602-1.422
		c0.408-0.312,0.894-0.558,1.458-0.737c0.563-0.181,1.085-0.126,1.566,0.162c0.408,0.264,0.642,0.605,0.702,1.025
		c0.06,0.42,0.03,0.877-0.09,1.368c-0.12,0.492-0.288,0.972-0.504,1.44c-0.216,0.468-0.396,0.858-0.54,1.17
		c-0.168,0.359-0.33,0.714-0.486,1.062c-0.156,0.349-0.294,0.702-0.414,1.062c-0.072,0.216-0.15,0.456-0.234,0.72
		c-0.084,0.265-0.103,0.517-0.054,0.756c0.048,0.192,0.144,0.288,0.288,0.288s0.3-0.042,0.468-0.126s0.324-0.186,0.468-0.306
		s0.252-0.204,0.324-0.252c0.648-0.553,1.242-1.158,1.782-1.818S121.837,84.261,122.39,83.613z M118.79,70.005
		c-0.288,0.433-0.553,0.889-0.792,1.368c-0.24,0.48-0.468,0.96-0.684,1.44c-0.408,0.792-0.787,1.596-1.134,2.411
		c-0.348,0.816-0.702,1.633-1.062,2.448c0.815-0.911,1.614-1.836,2.394-2.771c0.78-0.937,1.494-1.944,2.142-3.024
		c0.192-0.336,0.408-0.702,0.648-1.098c0.24-0.396,0.36-0.798,0.36-1.206c0-0.192-0.061-0.366-0.18-0.522
		c-0.121-0.155-0.288-0.197-0.504-0.126c-0.265,0.072-0.492,0.216-0.684,0.433C119.102,69.573,118.934,69.789,118.79,70.005z"/>
	<path fill="none" stroke="#000000" stroke-width="1.5" stroke-miterlimit="10" d="M130.598,83.469
		c0.167,0.145,0.204,0.301,0.108,0.469c-0.096,0.168-0.192,0.312-0.288,0.432l-0.864,0.972c-0.264,0.265-0.522,0.522-0.774,0.774
		s-0.522,0.51-0.81,0.773c-0.576,0.48-1.23,0.925-1.962,1.332c-0.732,0.409-1.494,0.564-2.286,0.469
		c-0.384-0.048-0.727-0.174-1.026-0.378c-0.3-0.204-0.534-0.486-0.702-0.847c-0.192-0.407-0.276-0.846-0.252-1.313
		c0.024-0.469,0.084-0.918,0.18-1.351c0.216-0.911,0.563-1.787,1.044-2.628c0.48-0.84,1.068-1.571,1.764-2.195
		c0.288-0.265,0.6-0.505,0.936-0.721c0.336-0.216,0.696-0.359,1.08-0.432c0.408-0.072,0.822-0.042,1.242,0.09
		s0.702,0.414,0.846,0.846c0.096,0.337,0.096,0.648,0,0.937c-0.096,0.288-0.234,0.564-0.414,0.828s-0.396,0.504-0.648,0.72
		s-0.499,0.408-0.738,0.576c-0.408,0.265-0.828,0.485-1.26,0.666c-0.432,0.18-0.876,0.342-1.332,0.485
		c-0.144,0.049-0.288,0.091-0.432,0.126c-0.144,0.036-0.288,0.079-0.432,0.126l-0.432,0.108c-0.048,0-0.084,0.006-0.108,0.019
		c-0.024,0.012-0.061,0.018-0.108,0.018c-0.024,0-0.036,0.024-0.036,0.072s-0.013,0.071-0.036,0.071
		c-0.192,0.625-0.288,1.225-0.288,1.801c0.024,0.192,0.06,0.396,0.108,0.611c0.048,0.216,0.144,0.408,0.288,0.576
		c0.288,0.24,0.588,0.36,0.9,0.36c0.336,0.048,0.672,0.018,1.008-0.09c0.336-0.108,0.66-0.234,0.972-0.378
		c0.408-0.24,0.804-0.51,1.188-0.811c0.384-0.3,0.756-0.617,1.116-0.954c0.216-0.191,0.426-0.401,0.63-0.63
		c0.204-0.228,0.402-0.45,0.594-0.666l0.648-0.792C130.189,83.325,130.382,83.302,130.598,83.469z M126.998,79.617
		c-0.409,0.048-0.787,0.198-1.134,0.45c-0.348,0.252-0.654,0.521-0.918,0.81c-0.648,0.72-1.2,1.572-1.656,2.556
		c0.744-0.191,1.494-0.443,2.25-0.756c0.756-0.312,1.398-0.743,1.926-1.296c0.336-0.336,0.54-0.684,0.612-1.044
		c0.048-0.336-0.054-0.552-0.306-0.647S127.262,79.569,126.998,79.617z"/>
	<path fill="none" stroke="#000000" stroke-width="1.5" stroke-miterlimit="10" d="M140.965,83.505
		c0.192,0.192,0.216,0.385,0.072,0.576c-0.144,0.192-0.276,0.349-0.396,0.468l-0.972,0.973c-0.264,0.24-0.552,0.462-0.864,0.666
		s-0.636,0.366-0.972,0.485c-0.192,0.049-0.396,0.09-0.612,0.126c-0.216,0.036-0.432,0.03-0.648-0.018
		c-0.12-0.023-0.228-0.042-0.324-0.054c-0.096-0.013-0.204-0.042-0.324-0.091c-0.144-0.048-0.252-0.096-0.324-0.144l-0.324,0.324
		c-0.384,0.408-0.804,0.773-1.26,1.098c-0.457,0.324-0.96,0.546-1.512,0.666c-0.504,0.12-0.99,0.097-1.458-0.072
		c-0.468-0.167-0.834-0.491-1.098-0.972c-0.192-0.384-0.3-0.798-0.324-1.242c-0.024-0.443,0-0.869,0.072-1.278
		c0.168-0.887,0.474-1.733,0.918-2.537c0.444-0.805,0.978-1.53,1.602-2.179c0.36-0.359,0.744-0.707,1.152-1.044
		c0.095-0.048,0.198-0.119,0.306-0.216c0.108-0.096,0.222-0.144,0.342-0.144c0.264,0.048,0.396,0.192,0.396,0.432
		c-0.024,0.144-0.084,0.252-0.18,0.324c-0.096,0.071-0.192,0.144-0.288,0.216c-0.216,0.144-0.408,0.301-0.576,0.468
		c-0.409,0.337-0.769,0.696-1.08,1.08c-0.288,0.385-0.553,0.774-0.792,1.17c-0.24,0.396-0.444,0.822-0.612,1.278
		c-0.144,0.359-0.264,0.726-0.36,1.098c-0.096,0.373-0.132,0.763-0.108,1.17c0.023,0.48,0.167,0.9,0.432,1.261
		c0.264,0.359,0.66,0.504,1.188,0.432c0.552-0.072,1.074-0.282,1.566-0.63c0.492-0.348,0.918-0.726,1.278-1.134
		c-0.312-0.288-0.54-0.631-0.684-1.026c-0.144-0.396-0.228-0.811-0.252-1.242s0-0.864,0.072-1.296
		c0.072-0.432,0.167-0.84,0.288-1.224c0.12-0.408,0.288-0.816,0.504-1.225c0.216-0.407,0.504-0.743,0.864-1.008
		c0.384-0.264,0.786-0.365,1.206-0.306c0.419,0.06,0.738,0.294,0.954,0.702c0.264,0.479,0.383,1.025,0.36,1.638
		c-0.024,0.612-0.132,1.17-0.324,1.674c-0.192,0.553-0.438,1.093-0.738,1.62c-0.3,0.528-0.63,1.021-0.99,1.476
		c0.383,0.145,0.761,0.181,1.134,0.108c0.372-0.072,0.726-0.216,1.062-0.432c0.456-0.312,0.864-0.66,1.224-1.044l0.756-0.792
		c0.072-0.12,0.167-0.21,0.288-0.271C140.725,83.355,140.845,83.386,140.965,83.505z M135.421,85.449
		c0.384-0.504,0.708-0.984,0.972-1.44c0.312-0.504,0.563-1.037,0.756-1.602c0.192-0.563,0.264-1.158,0.216-1.782
		c-0.024-0.191-0.06-0.39-0.108-0.594c-0.048-0.204-0.168-0.366-0.36-0.486c-0.168-0.072-0.336-0.065-0.504,0.019
		c-0.168,0.084-0.312,0.186-0.432,0.306c-0.336,0.36-0.594,0.786-0.774,1.278c-0.18,0.492-0.306,0.978-0.378,1.458
		c-0.072,0.48-0.078,0.984-0.018,1.512C134.851,84.646,135.062,85.089,135.421,85.449z"/>
	<path fill="none" stroke="#000000" stroke-width="1.5" stroke-miterlimit="10" d="M150.073,83.289c0.096,0,0.18,0.036,0.252,0.108
		c0.072,0.071,0.12,0.162,0.144,0.27c0.023,0.108-0.012,0.211-0.108,0.306l-0.36,0.433l-1.26,1.404
		c-0.336,0.408-0.684,0.804-1.044,1.188s-0.744,0.744-1.152,1.08c-0.265,0.216-0.535,0.42-0.81,0.612
		c-0.276,0.192-0.583,0.312-0.918,0.359c-0.265,0.024-0.486-0.012-0.666-0.107c-0.18-0.096-0.324-0.234-0.432-0.414
		c-0.108-0.181-0.18-0.378-0.216-0.595c-0.036-0.216-0.042-0.432-0.018-0.647c0.096-0.576,0.293-1.128,0.594-1.656
		c0.3-0.527,0.606-1.031,0.918-1.512c0.168-0.264,0.33-0.527,0.486-0.792c0.156-0.264,0.318-0.54,0.486-0.828
		c0.096-0.191,0.204-0.408,0.324-0.648c0.12-0.239,0.167-0.468,0.144-0.684c-0.024-0.12-0.18-0.174-0.468-0.162
		c-0.288,0.013-0.48,0.019-0.576,0.019c-0.24-0.024-0.462-0.072-0.666-0.145c-0.204-0.072-0.354-0.239-0.45-0.504
		c-0.409,0.504-0.822,0.99-1.242,1.458s-0.834,0.942-1.242,1.422l-0.684,0.72c-0.096,0.097-0.192,0.169-0.288,0.217
		c-0.096,0.048-0.204,0.035-0.324-0.036c-0.144-0.072-0.216-0.168-0.216-0.288s0.048-0.24,0.144-0.36
		c0.096-0.119,0.198-0.233,0.306-0.342c0.108-0.108,0.198-0.198,0.27-0.27c0.36-0.384,0.713-0.769,1.062-1.152
		c0.348-0.384,0.69-0.779,1.026-1.188l1.152-1.403l0.54-0.612c0.12-0.168,0.275-0.21,0.468-0.126
		c0.192,0.084,0.276,0.222,0.252,0.414c-0.024,0.12-0.072,0.24-0.144,0.36c-0.072,0.12-0.132,0.239-0.18,0.359
		c-0.024,0.072-0.048,0.139-0.072,0.198c-0.024,0.061-0.036,0.126-0.036,0.198c-0.024,0.096-0.03,0.156-0.018,0.18
		c0.012,0.024,0.078,0.049,0.198,0.072c0.24,0.023,0.474,0.023,0.702,0c0.228-0.023,0.45,0.012,0.666,0.107
		c0.264,0.097,0.444,0.252,0.54,0.469c0.096,0.216,0.12,0.444,0.072,0.684c-0.096,0.48-0.288,0.96-0.576,1.44
		c-0.144,0.287-0.3,0.563-0.468,0.827c-0.168,0.265-0.336,0.528-0.504,0.792c-0.264,0.433-0.528,0.877-0.792,1.332
		c-0.264,0.457-0.456,0.937-0.576,1.44c-0.024,0.144-0.03,0.324-0.018,0.54c0.012,0.216,0.113,0.348,0.306,0.396
		c0.12,0.049,0.246,0.036,0.378-0.035c0.132-0.072,0.246-0.132,0.342-0.181c0.384-0.239,0.732-0.516,1.044-0.828
		c0.312-0.312,0.624-0.636,0.936-0.972l2.484-2.772C149.881,83.338,149.977,83.289,150.073,83.289z"/>
	<path fill="none" stroke="#000000" stroke-width="1.5" stroke-miterlimit="10" d="M163.465,83.541
		c0.096-0.12,0.21-0.174,0.342-0.162c0.132,0.013,0.234,0.078,0.306,0.198c0.096,0.144,0.102,0.276,0.018,0.396
		c-0.084,0.121-0.174,0.24-0.27,0.36l-1.332,1.512c-0.48,0.48-0.96,0.961-1.44,1.44c-0.48,0.48-0.984,0.948-1.512,1.404l-0.72,0.647
		c-0.121,0.097-0.204,0.216-0.252,0.36c-0.048,0.144-0.096,0.275-0.144,0.396c-0.048,0.12-0.096,0.24-0.144,0.36
		c-0.048,0.12-0.096,0.239-0.144,0.36c-0.072,0.216-0.15,0.432-0.234,0.647c-0.084,0.216-0.174,0.433-0.27,0.648
		c-0.216,0.527-0.432,1.05-0.648,1.565c-0.216,0.516-0.444,1.026-0.684,1.53c-0.192,0.408-0.409,0.81-0.648,1.206
		c-0.24,0.396-0.517,0.762-0.828,1.098c-0.264,0.312-0.582,0.582-0.954,0.811c-0.372,0.228-0.774,0.354-1.206,0.378
		c-0.504,0.048-0.912-0.103-1.224-0.45c-0.312-0.349-0.468-0.774-0.468-1.278c0.023-0.696,0.234-1.35,0.63-1.962
		c0.396-0.611,0.822-1.158,1.278-1.638c0.408-0.432,0.833-0.841,1.278-1.224c0.444-0.385,0.906-0.757,1.386-1.116l1.476-1.188
		l0.72-0.647c0.048-0.048,0.102-0.09,0.162-0.126c0.06-0.036,0.102-0.078,0.126-0.126l0.108-0.252c0.36-0.912,0.72-1.812,1.08-2.7
		c0.36-0.888,0.732-1.788,1.116-2.7c-0.552,0.744-1.122,1.471-1.71,2.178c-0.588,0.708-1.23,1.362-1.926,1.962
		c-0.288,0.265-0.606,0.504-0.954,0.721c-0.348,0.216-0.726,0.359-1.134,0.432c-0.192,0.049-0.384,0.049-0.576,0
		c-0.192-0.048-0.36-0.132-0.504-0.252s-0.247-0.258-0.306-0.414c-0.06-0.156-0.09-0.329-0.09-0.521
		c-0.024-0.24-0.013-0.474,0.036-0.702c0.048-0.229,0.096-0.462,0.144-0.702l0.576-1.729c0.192-0.504,0.384-1.014,0.576-1.529
		c0.192-0.517,0.335-1.05,0.432-1.603c0.048-0.167,0.078-0.342,0.09-0.521c0.012-0.181-0.018-0.343-0.09-0.486
		c-0.072-0.144-0.18-0.216-0.324-0.216s-0.276,0.024-0.396,0.072c-0.168,0.071-0.318,0.168-0.45,0.287
		c-0.132,0.121-0.27,0.24-0.414,0.36c-0.168,0.192-0.336,0.366-0.504,0.522c-0.168,0.156-0.324,0.33-0.468,0.521l-1.44,1.692
		l-0.54,0.647c-0.121,0.121-0.265,0.181-0.432,0.181c-0.168,0-0.276-0.096-0.324-0.288c-0.048-0.145-0.024-0.264,0.072-0.36
		c0.096-0.096,0.18-0.191,0.252-0.288l0.576-0.684c0.335-0.384,0.66-0.762,0.972-1.134c0.312-0.372,0.636-0.727,0.972-1.062
		c0.264-0.264,0.54-0.521,0.828-0.774c0.288-0.252,0.612-0.413,0.972-0.485c0.36-0.072,0.696-0.012,1.008,0.18
		c0.335,0.265,0.504,0.637,0.504,1.116c0.048,0.553-0.018,1.104-0.198,1.656c-0.18,0.552-0.366,1.08-0.558,1.584
		c-0.192,0.504-0.384,1.014-0.576,1.529c-0.192,0.517-0.348,1.039-0.468,1.566c-0.024,0.144-0.042,0.306-0.054,0.486
		c-0.012,0.18,0.018,0.33,0.09,0.449c0.072,0.097,0.18,0.139,0.324,0.126c0.144-0.012,0.264-0.029,0.36-0.054
		c0.288-0.096,0.558-0.228,0.81-0.396s0.486-0.348,0.702-0.54c0.671-0.6,1.29-1.248,1.854-1.944
		c0.563-0.695,1.122-1.404,1.674-2.124c0.264-0.384,0.528-0.762,0.792-1.134c0.264-0.372,0.528-0.762,0.792-1.17
		c0.048-0.096,0.102-0.186,0.162-0.271c0.06-0.084,0.126-0.174,0.198-0.27c0.048-0.096,0.102-0.181,0.162-0.252
		c0.06-0.072,0.149-0.108,0.27-0.108c0.167-0.023,0.282,0.036,0.342,0.18c0.06,0.145,0.066,0.288,0.018,0.433l-3.06,7.596
		c0.696-0.647,1.386-1.319,2.07-2.016S162.84,84.31,163.465,83.541z M156.913,91.821c0.072-0.216,0.15-0.427,0.234-0.63
		c0.083-0.204,0.174-0.414,0.27-0.63c-0.601,0.479-1.206,0.959-1.818,1.439c-0.612,0.479-1.194,0.996-1.746,1.548
		c-0.336,0.336-0.661,0.702-0.972,1.099c-0.312,0.396-0.564,0.821-0.756,1.277c-0.121,0.24-0.216,0.51-0.288,0.811
		c-0.072,0.3-0.036,0.581,0.108,0.846c0.12,0.216,0.306,0.324,0.558,0.324s0.474-0.049,0.666-0.145
		c0.312-0.096,0.612-0.288,0.9-0.575c0.336-0.312,0.612-0.654,0.828-1.026c0.216-0.372,0.419-0.75,0.612-1.134
		c0.264-0.528,0.51-1.057,0.738-1.584C156.475,92.913,156.697,92.373,156.913,91.821z"/>
</g>
<g>
</g>
<g>
</g>
<g>
</g>
<g>
</g>
<g>
</g>
<g>
</g>
</svg>
