<?xml version="1.0" encoding="utf-8"?>
<!-- Generator: Adobe Illustrator 16.0.0, SVG Export Plug-In . SVG Version: 6.00 Build 0)  -->
<!DOCTYPE svg PUBLIC "-//W3C//DTD SVG 1.1//EN" "http://www.w3.org/Graphics/SVG/1.1/DTD/svg11.dtd">
<svg version="1.1" id="player-svg" xmlns="http://www.w3.org/2000/svg" xmlns:xlink="http://www.w3.org/1999/xlink" x="0px" y="0px"
	 width="193.201px" height="70.992px" viewBox="0 0 193.201 70.992" enable-background="new 0 0 193.201 70.992"
	 xml:space="preserve">
<g>
</g>
<g>
	<path fill="none" stroke="#000000" stroke-width="2" stroke-miterlimit="10" d="M65.667,36.111c0.288-0.335,0.636-0.36,1.044-0.072
		c0.407,0.288,0.492,0.625,0.252,1.008c-0.144,0.241-0.312,0.457-0.504,0.648c-0.192,0.192-0.385,0.409-0.576,0.648
		c-0.192,0.192-0.372,0.373-0.54,0.54c-0.168,0.169-0.324,0.373-0.468,0.612c-1.105,1.152-2.353,2.28-3.744,3.384
		c-1.537,1.152-3.204,2.124-5.004,2.916s-3.685,1.285-5.652,1.476c-1.249,0.144-2.568,0.097-3.96-0.144l-1.152-0.216
		c-0.529-0.191-0.72-0.54-0.576-1.044c0.144-0.504,0.479-0.684,1.008-0.54c0.479,0.144,0.959,0.216,1.44,0.216
		c0.24,0,0.443-0.011,0.612-0.036c0.167-0.023,0.348-0.06,0.54-0.108c0.768-0.144,1.536-0.407,2.304-0.792
		c0.72-0.384,1.404-0.828,2.052-1.332c0.648-0.504,1.26-1.067,1.836-1.692c1.055-1.152,1.98-2.459,2.772-3.924
		c0.792-1.464,1.379-2.963,1.764-4.5c0.191-0.576,0.335-1.199,0.432-1.872c0.047-0.432,0.083-0.888,0.108-1.368
		c0.024-0.479-0.061-0.911-0.252-1.296c-0.192-0.384-0.516-0.528-0.972-0.432c-0.457,0.097-0.828,0.216-1.116,0.36
		c-0.625,0.241-1.213,0.553-1.764,0.936c-0.552,0.385-1.092,0.792-1.62,1.224c-0.673,0.576-1.332,1.188-1.98,1.836
		c-0.648,0.648-1.285,1.309-1.908,1.98c-0.673,0.817-1.321,1.645-1.944,2.484c-0.625,0.841-1.224,1.717-1.8,2.628
		c-0.624,0.96-1.152,1.896-1.584,2.808c-0.097,0.144-0.18,0.277-0.252,0.396c-0.072,0.121-0.133,0.252-0.18,0.396l-0.36,0.792
		l-0.648,1.584c-0.912,2.16-1.825,4.308-2.736,6.444c-0.913,2.135-1.849,4.284-2.808,6.444c-0.384,0.864-0.756,1.728-1.116,2.592
		c-0.36,0.864-0.731,1.703-1.116,2.52c-0.096,0.24-0.204,0.443-0.324,0.612c-0.119,0.167-0.299,0.252-0.54,0.252
		c-0.527-0.097-0.792-0.385-0.792-0.864c0-0.192,0.036-0.372,0.108-0.54c0.072-0.169,0.156-0.324,0.252-0.468l0.432-0.936
		l4.104-9.504l8.424-20.016c-0.673,0.769-1.345,1.524-2.016,2.268c-0.673,0.745-1.344,1.524-2.016,2.34
		c-0.192,0.241-0.42,0.409-0.684,0.504c-0.264,0.097-0.516,0-0.756-0.288c-0.336-0.335-0.312-0.72,0.072-1.152l3.888-4.464
		c0.624-0.671,1.224-1.343,1.8-2.016c0.576-0.671,1.152-1.343,1.728-2.016c0.288-0.335,0.635-0.372,1.044-0.108
		c0.407,0.265,0.515,0.588,0.324,0.972c-0.097,0.192-0.168,0.36-0.216,0.504c-0.048,0.144-0.097,0.288-0.144,0.432
		c-0.385,0.961-0.769,1.884-1.152,2.772c-0.385,0.889-0.769,1.812-1.152,2.772c1.008-1.248,2.088-2.459,3.24-3.636
		c1.152-1.176,2.423-2.196,3.816-3.06c0.335-0.191,0.72-0.407,1.152-0.648c0.432-0.24,0.875-0.432,1.332-0.576
		c0.456-0.144,0.9-0.204,1.332-0.18c0.432,0.025,0.839,0.157,1.224,0.396c0.576,0.385,0.936,0.925,1.08,1.62
		c0.144,0.696,0.191,1.357,0.144,1.98c-0.048,0.913-0.18,1.825-0.396,2.736c-0.216,0.912-0.493,1.776-0.828,2.592
		c-0.72,1.825-1.668,3.564-2.844,5.22c-1.177,1.656-2.604,3.037-4.284,4.14c2.639-0.671,5.004-1.847,7.092-3.528
		C62.03,40.047,63.938,38.175,65.667,36.111z"/>
	<path fill="none" stroke="#000000" stroke-width="2" stroke-miterlimit="10" d="M85.539,5.439c0.815,0.385,1.248,1.069,1.296,2.052
		c0.047,0.984-0.072,1.836-0.36,2.556c-0.241,0.625-0.516,1.224-0.828,1.8c-0.313,0.576-0.637,1.128-0.972,1.656
		c-0.817,1.393-1.692,2.736-2.628,4.032c-0.936,1.296-1.884,2.592-2.844,3.888c-1.2,1.632-2.4,3.24-3.6,4.824
		c-1.201,1.584-2.424,3.168-3.672,4.752c-0.192,0.192-0.36,0.432-0.504,0.72l-0.288,0.864l-0.648,1.728
		c-0.432,1.2-0.792,2.304-1.08,3.312c-0.288,0.96-0.504,1.896-0.648,2.808c-0.097,0.529-0.144,1.068-0.144,1.62
		c0,0.553,0.12,1.093,0.36,1.62c0.335,0.817,0.888,1.116,1.656,0.9c0.768-0.216,1.572-0.659,2.412-1.332
		c0.839-0.671,1.62-1.392,2.34-2.16c0.72-0.768,1.199-1.296,1.44-1.584l2.232-2.448c0.144-0.144,0.299-0.335,0.468-0.576
		c0.167-0.24,0.36-0.443,0.576-0.612c0.216-0.167,0.432-0.275,0.648-0.324c0.216-0.047,0.419,0.048,0.612,0.288
		c0.191,0.241,0.24,0.468,0.144,0.684c-0.097,0.216-0.216,0.421-0.36,0.612c-0.241,0.241-0.457,0.48-0.648,0.72
		c-0.192,0.241-0.385,0.48-0.576,0.72l-2.376,2.52c-0.625,0.673-1.26,1.332-1.908,1.98s-1.332,1.236-2.052,1.764
		c-0.529,0.385-1.057,0.72-1.584,1.008c-0.529,0.288-1.128,0.408-1.8,0.36c-1.104,0-1.896-0.432-2.376-1.296
		c-0.48-0.864-0.745-1.775-0.792-2.736c-0.048-1.152,0.083-2.304,0.396-3.456c0.312-1.152,0.66-2.279,1.044-3.384
		c-0.241,0.288-0.468,0.576-0.684,0.864c-0.216,0.288-0.444,0.576-0.684,0.864c-0.241,0.241-0.529,0.36-0.864,0.36
		c-0.336,0-0.552-0.191-0.648-0.576c-0.097-0.335,0.024-0.684,0.36-1.044c0.335-0.36,0.6-0.659,0.792-0.9l1.728-2.232
		c0.24-0.239,0.443-0.479,0.612-0.72c0.167-0.24,0.371-0.479,0.612-0.72c0.096-0.096,0.191-0.216,0.288-0.36
		c0.096-0.144,0.167-0.288,0.216-0.432c0.096-0.096,0.155-0.216,0.18-0.36c0.023-0.144,0.083-0.288,0.18-0.432
		c0.335-0.864,0.659-1.715,0.972-2.556c0.312-0.839,0.66-1.667,1.044-2.484c0.528-1.296,1.044-2.592,1.548-3.888
		c0.504-1.296,1.044-2.567,1.62-3.816c0.383-0.864,0.792-1.728,1.224-2.592c0.432-0.864,0.864-1.728,1.296-2.592
		c0.383-0.768,0.803-1.523,1.26-2.268c0.456-0.744,0.972-1.451,1.548-2.124c0.479-0.624,1.14-1.199,1.98-1.728
		C83.894,5.055,84.722,5.007,85.539,5.439z M84.747,10.047c0.191-0.383,0.36-0.888,0.504-1.512c0.144-0.624,0.047-1.127-0.288-1.512
		c-0.097-0.144-0.241-0.216-0.432-0.216c-0.192,0-0.36,0.024-0.504,0.072c-0.673,0.288-1.249,0.756-1.728,1.404
		c-0.48,0.648-0.912,1.285-1.296,1.908c-0.432,0.673-0.828,1.357-1.188,2.052c-0.36,0.696-0.709,1.404-1.044,2.124
		c-0.529,1.056-1.033,2.1-1.512,3.132c-0.48,1.033-0.936,2.077-1.368,3.132l-2.16,5.4c1.104-1.487,2.207-2.963,3.312-4.428
		c1.104-1.464,2.184-2.939,3.24-4.428c0.816-1.152,1.608-2.315,2.376-3.492C83.426,12.507,84.122,11.296,84.747,10.047z"/>
	<path fill="none" stroke="#000000" stroke-width="2" stroke-miterlimit="10" d="M103.25,36.039
		c0.288-0.288,0.612-0.335,0.972-0.144c0.36,0.192,0.492,0.48,0.396,0.864c-0.048,0.192-0.12,0.349-0.216,0.468
		c-0.097,0.12-0.192,0.229-0.288,0.324c-0.385,0.385-0.745,0.781-1.08,1.188c-0.336,0.409-0.673,0.805-1.008,1.188
		c-0.817,0.913-1.632,1.825-2.448,2.736c-0.817,0.912-1.704,1.752-2.664,2.52c-0.672,0.576-1.452,1.044-2.34,1.404
		c-0.889,0.36-1.789,0.324-2.7-0.108c-1.008-0.432-1.573-1.14-1.692-2.124c-0.12-0.983-0.108-1.955,0.036-2.916
		c-0.673,0.864-1.429,1.692-2.268,2.484c-0.84,0.792-1.74,1.453-2.7,1.98c-0.816,0.385-1.728,0.637-2.736,0.756
		c-1.008,0.12-1.92-0.083-2.736-0.612c-0.673-0.432-1.141-1.008-1.404-1.728c-0.264-0.72-0.396-1.463-0.396-2.232
		c0.047-0.911,0.228-1.8,0.54-2.664c0.312-0.864,0.684-1.703,1.116-2.52c0.527-1.104,1.176-2.124,1.944-3.06
		c0.768-0.936,1.608-1.811,2.52-2.628c0.72-0.671,1.487-1.307,2.304-1.908c0.815-0.6,1.68-1.116,2.592-1.548
		c1.104-0.527,2.268-0.923,3.492-1.188c1.224-0.263,2.459-0.324,3.708-0.18c0.24,0.048,0.456,0.084,0.648,0.108
		c0.191,0.025,0.407,0.084,0.648,0.18c0.288,0.097,0.456,0.252,0.504,0.468c0.047,0.216,0.036,0.457-0.036,0.72
		c-0.072,0.264-0.18,0.528-0.324,0.792c-0.144,0.264-0.241,0.468-0.288,0.612c-0.432,0.961-0.876,1.897-1.332,2.808
		c-0.457,0.912-0.948,1.848-1.476,2.808c-0.144,0.288-0.3,0.576-0.468,0.864c-0.169,0.288-0.349,0.576-0.54,0.864
		c-0.144,0.288-0.288,0.565-0.432,0.828c-0.144,0.265-0.264,0.565-0.36,0.9c-0.192,0.529-0.373,1.069-0.54,1.62
		c-0.169,0.552-0.3,1.116-0.396,1.692c-0.097,0.432-0.156,0.9-0.18,1.404c-0.024,0.504,0.083,0.972,0.324,1.404
		c0.144,0.288,0.384,0.493,0.72,0.612c0.335,0.12,0.672,0.132,1.008,0.036c0.383-0.096,0.744-0.227,1.08-0.396
		c0.335-0.167,0.648-0.371,0.936-0.612c0.383-0.335,0.767-0.672,1.152-1.008c0.384-0.335,0.744-0.695,1.08-1.08
		c0.959-0.96,1.872-1.944,2.736-2.952C101.522,38.055,102.386,37.047,103.25,36.039z M83.45,44.823
		c0.815-0.239,1.548-0.6,2.196-1.08c0.648-0.479,1.26-1.008,1.836-1.584c0.671-0.672,1.307-1.416,1.908-2.232
		c0.6-0.815,1.164-1.631,1.692-2.448c0.191-0.24,0.348-0.479,0.468-0.72c0.119-0.239,0.227-0.479,0.324-0.72l0.648-1.368
		c0.191-0.479,0.383-0.936,0.576-1.368c0.191-0.432,0.407-0.864,0.648-1.296c0.384-0.671,0.756-1.332,1.116-1.98
		s0.731-1.307,1.116-1.98c-1.104-0.144-2.208-0.096-3.312,0.144c-1.104,0.241-2.136,0.601-3.096,1.08
		c-0.961,0.48-1.836,1.033-2.628,1.656c-0.792,0.625-1.548,1.296-2.268,2.016c-0.864,0.817-1.656,1.705-2.376,2.664
		c-0.72,0.961-1.321,1.992-1.8,3.096c-0.288,0.672-0.529,1.416-0.72,2.232c-0.192,0.817-0.192,1.609,0,2.376
		c0.096,0.336,0.227,0.648,0.396,0.936c0.167,0.288,0.419,0.504,0.756,0.648c0.384,0.144,0.803,0.192,1.26,0.144
		C82.646,44.992,83.065,44.92,83.45,44.823z"/>
	<path fill="none" stroke="#000000" stroke-width="2" stroke-miterlimit="10" d="M130.753,36.111
		c0.191-0.239,0.42-0.348,0.684-0.324c0.264,0.024,0.469,0.156,0.613,0.396c0.191,0.288,0.203,0.552,0.035,0.792
		c-0.168,0.241-0.348,0.48-0.539,0.72l-2.664,3.024c-0.961,0.961-1.921,1.92-2.88,2.88c-0.961,0.96-1.969,1.896-3.024,2.808
		l-1.44,1.296c-0.241,0.192-0.409,0.432-0.504,0.72c-0.097,0.288-0.192,0.551-0.288,0.792c-0.097,0.24-0.192,0.479-0.288,0.72
		c-0.097,0.24-0.192,0.479-0.288,0.72c-0.144,0.432-0.3,0.864-0.468,1.296c-0.168,0.432-0.349,0.864-0.54,1.296
		c-0.432,1.055-0.864,2.099-1.296,3.132c-0.432,1.032-0.889,2.052-1.368,3.06c-0.385,0.815-0.817,1.62-1.296,2.412
		c-0.48,0.792-1.033,1.523-1.656,2.196c-0.529,0.624-1.165,1.164-1.908,1.62c-0.745,0.456-1.548,0.708-2.412,0.756
		c-1.008,0.096-1.825-0.205-2.448-0.9c-0.625-0.696-0.936-1.548-0.936-2.556c0.047-1.393,0.468-2.7,1.26-3.924
		s1.644-2.316,2.556-3.276c0.816-0.864,1.667-1.681,2.556-2.448c0.888-0.768,1.811-1.512,2.772-2.232l2.952-2.376l1.44-1.296
		c0.096-0.096,0.204-0.18,0.324-0.252c0.12-0.072,0.204-0.155,0.252-0.252l0.216-0.504c0.72-1.823,1.44-3.624,2.16-5.4
		c0.72-1.775,1.463-3.575,2.232-5.4c-1.105,1.488-2.245,2.941-3.42,4.356c-1.177,1.417-2.46,2.725-3.852,3.924
		c-0.576,0.528-1.213,1.008-1.908,1.44c-0.696,0.432-1.452,0.72-2.268,0.864c-0.385,0.097-0.768,0.097-1.152,0
		c-0.385-0.096-0.72-0.263-1.008-0.504c-0.288-0.24-0.493-0.515-0.612-0.828c-0.12-0.312-0.18-0.659-0.18-1.044
		c-0.048-0.479-0.024-0.947,0.072-1.404c0.096-0.456,0.191-0.924,0.288-1.404l1.152-3.456c0.384-1.008,0.767-2.027,1.152-3.06
		c0.384-1.032,0.672-2.1,0.864-3.204c0.096-0.335,0.155-0.684,0.18-1.044c0.024-0.36-0.036-0.684-0.18-0.972
		s-0.36-0.432-0.648-0.432s-0.553,0.048-0.792,0.144c-0.336,0.144-0.637,0.336-0.9,0.576c-0.265,0.241-0.54,0.48-0.828,0.72
		c-0.336,0.385-0.673,0.732-1.008,1.044c-0.336,0.313-0.648,0.661-0.936,1.044l-2.88,3.384l-1.08,1.296
		c-0.241,0.241-0.529,0.36-0.864,0.36c-0.336,0-0.552-0.191-0.648-0.576c-0.097-0.288-0.048-0.528,0.144-0.72
		c0.191-0.191,0.36-0.383,0.504-0.576l1.152-1.368c0.672-0.767,1.32-1.523,1.944-2.268c0.623-0.744,1.271-1.451,1.944-2.124
		c0.527-0.527,1.08-1.044,1.656-1.548c0.576-0.504,1.224-0.828,1.944-0.972c0.72-0.144,1.392-0.023,2.016,0.36
		c0.672,0.529,1.008,1.272,1.008,2.232c0.096,1.104-0.036,2.208-0.396,3.312c-0.36,1.104-0.732,2.16-1.116,3.168
		c-0.385,1.008-0.768,2.028-1.152,3.06c-0.385,1.033-0.696,2.077-0.936,3.132c-0.048,0.288-0.084,0.612-0.108,0.972
		c-0.025,0.36,0.036,0.66,0.18,0.9c0.144,0.192,0.36,0.277,0.648,0.252c0.288-0.024,0.527-0.06,0.72-0.108
		c0.576-0.191,1.116-0.456,1.62-0.792c0.504-0.335,0.972-0.695,1.404-1.08c1.343-1.199,2.58-2.495,3.708-3.888
		c1.127-1.392,2.243-2.808,3.348-4.248c0.528-0.767,1.055-1.523,1.584-2.268c0.528-0.744,1.055-1.523,1.584-2.34
		c0.096-0.191,0.204-0.371,0.324-0.54c0.119-0.167,0.252-0.348,0.396-0.54c0.095-0.191,0.204-0.36,0.324-0.504
		c0.119-0.144,0.299-0.216,0.539-0.216c0.336-0.047,0.564,0.072,0.684,0.36c0.121,0.288,0.133,0.576,0.037,0.864l-6.12,15.192
		c1.392-1.296,2.772-2.64,4.14-4.032C128.198,39.111,129.505,37.648,130.753,36.111z M117.649,52.671
		c0.144-0.432,0.299-0.853,0.468-1.26c0.168-0.409,0.348-0.828,0.54-1.26c-1.2,0.96-2.412,1.919-3.636,2.88
		c-1.224,0.96-2.389,1.992-3.492,3.096c-0.673,0.672-1.321,1.404-1.944,2.196c-0.625,0.792-1.128,1.644-1.512,2.556
		c-0.241,0.479-0.432,1.02-0.576,1.62c-0.144,0.6-0.072,1.163,0.216,1.692c0.24,0.432,0.612,0.648,1.116,0.648
		c0.504,0,0.947-0.097,1.332-0.288c0.624-0.192,1.224-0.576,1.8-1.152c0.671-0.625,1.224-1.308,1.656-2.052
		c0.432-0.745,0.839-1.501,1.224-2.268c0.528-1.057,1.02-2.113,1.476-3.168C116.773,54.854,117.217,53.774,117.649,52.671z"/>
	<path fill="none" stroke="#000000" stroke-width="2" stroke-miterlimit="10" d="M147.17,35.967
		c0.335,0.288,0.407,0.601,0.216,0.936c-0.192,0.336-0.385,0.625-0.576,0.864l-1.729,1.944c-0.528,0.529-1.044,1.044-1.548,1.548
		c-0.504,0.504-1.044,1.021-1.62,1.548c-1.151,0.96-2.46,1.848-3.924,2.664c-1.465,0.816-2.987,1.128-4.571,0.936
		c-0.769-0.095-1.453-0.347-2.053-0.756c-0.601-0.407-1.068-0.972-1.403-1.692c-0.385-0.815-0.553-1.692-0.505-2.628
		s0.168-1.836,0.36-2.7c0.432-1.824,1.127-3.575,2.088-5.256c0.96-1.68,2.136-3.143,3.528-4.392c0.576-0.527,1.199-1.008,1.872-1.44
		c0.672-0.432,1.392-0.72,2.16-0.864c0.815-0.144,1.644-0.083,2.483,0.18c0.84,0.265,1.404,0.828,1.692,1.692
		c0.191,0.673,0.191,1.296,0,1.872c-0.192,0.576-0.468,1.128-0.828,1.656c-0.36,0.529-0.792,1.008-1.296,1.44
		s-0.997,0.817-1.477,1.152c-0.816,0.529-1.655,0.972-2.52,1.332s-1.753,0.684-2.664,0.972c-0.288,0.097-0.576,0.18-0.864,0.252
		c-0.288,0.072-0.575,0.156-0.863,0.252l-0.864,0.216c-0.097,0-0.169,0.013-0.216,0.036c-0.049,0.025-0.121,0.036-0.216,0.036
		c-0.049,0-0.072,0.048-0.072,0.144c0,0.097-0.025,0.144-0.072,0.144c-0.385,1.249-0.576,2.448-0.576,3.6
		c0.048,0.385,0.119,0.792,0.216,1.224c0.096,0.432,0.288,0.817,0.576,1.152c0.576,0.48,1.176,0.72,1.8,0.72
		c0.672,0.097,1.344,0.036,2.017-0.18c0.672-0.216,1.319-0.468,1.943-0.756c0.816-0.479,1.608-1.019,2.376-1.62
		c0.768-0.6,1.513-1.235,2.232-1.908c0.432-0.384,0.852-0.803,1.26-1.26c0.407-0.456,0.804-0.9,1.188-1.332l1.296-1.584
		C146.353,35.679,146.737,35.632,147.17,35.967z M139.97,28.263c-0.817,0.097-1.573,0.396-2.269,0.9
		c-0.696,0.504-1.308,1.044-1.836,1.62c-1.296,1.44-2.4,3.144-3.312,5.112c1.487-0.384,2.987-0.888,4.5-1.512
		c1.512-0.623,2.796-1.487,3.852-2.592c0.672-0.672,1.08-1.368,1.225-2.088c0.096-0.672-0.108-1.104-0.612-1.296
		C141.014,28.216,140.497,28.167,139.97,28.263z"/>
	<path fill="none" stroke="#000000" stroke-width="2" stroke-miterlimit="10" d="M165.313,35.607c0.191,0,0.36,0.072,0.504,0.216
		c0.145,0.144,0.239,0.324,0.288,0.54c0.047,0.216-0.024,0.421-0.216,0.612l-0.72,0.864l-2.521,2.808
		c-0.673,0.817-1.368,1.609-2.088,2.376c-0.72,0.769-1.488,1.488-2.304,2.16c-0.529,0.432-1.069,0.84-1.62,1.224
		c-0.553,0.385-1.165,0.625-1.836,0.72c-0.529,0.048-0.973-0.023-1.332-0.216c-0.36-0.191-0.648-0.468-0.864-0.828
		s-0.36-0.756-0.432-1.188c-0.072-0.432-0.085-0.864-0.036-1.296c0.191-1.152,0.587-2.256,1.188-3.312
		c0.6-1.055,1.212-2.063,1.836-3.024c0.336-0.528,0.659-1.056,0.973-1.584c0.312-0.528,0.636-1.08,0.972-1.656
		c0.191-0.384,0.407-0.815,0.648-1.296c0.239-0.479,0.335-0.936,0.287-1.368c-0.048-0.24-0.359-0.348-0.936-0.324
		c-0.576,0.024-0.961,0.036-1.152,0.036c-0.48-0.047-0.925-0.144-1.332-0.288c-0.408-0.144-0.708-0.479-0.899-1.008
		c-0.817,1.008-1.645,1.98-2.484,2.916s-1.668,1.884-2.483,2.844l-1.368,1.44c-0.192,0.192-0.385,0.336-0.576,0.432
		c-0.192,0.097-0.408,0.072-0.648-0.072c-0.288-0.144-0.432-0.335-0.432-0.576c0-0.239,0.096-0.479,0.288-0.72
		c0.191-0.24,0.396-0.468,0.612-0.684c0.216-0.216,0.396-0.396,0.54-0.54c0.72-0.767,1.427-1.536,2.123-2.304
		c0.695-0.767,1.38-1.559,2.053-2.376l2.304-2.808l1.08-1.224c0.239-0.335,0.551-0.419,0.936-0.252
		c0.384,0.168,0.552,0.444,0.505,0.828c-0.049,0.241-0.145,0.48-0.288,0.72c-0.145,0.241-0.265,0.48-0.36,0.72
		c-0.049,0.144-0.097,0.276-0.145,0.396c-0.048,0.12-0.071,0.252-0.071,0.396c-0.049,0.192-0.061,0.312-0.036,0.36
		c0.023,0.048,0.155,0.097,0.396,0.144c0.479,0.048,0.947,0.048,1.404,0c0.456-0.047,0.9,0.025,1.332,0.216
		c0.527,0.192,0.888,0.504,1.08,0.936c0.191,0.432,0.239,0.889,0.144,1.368c-0.192,0.96-0.575,1.92-1.151,2.88
		c-0.288,0.576-0.601,1.128-0.937,1.656c-0.336,0.528-0.673,1.056-1.008,1.584c-0.528,0.864-1.057,1.752-1.584,2.664
		c-0.528,0.913-0.912,1.872-1.152,2.88c-0.048,0.288-0.061,0.648-0.035,1.08c0.023,0.432,0.227,0.696,0.611,0.792
		c0.24,0.097,0.492,0.072,0.756-0.072s0.492-0.263,0.685-0.36c0.768-0.479,1.464-1.032,2.088-1.656
		c0.623-0.623,1.248-1.271,1.872-1.944l4.968-5.544C164.929,35.704,165.121,35.607,165.313,35.607z"/>
</g>
<g>
</g>
<g>
</g>
<g>
</g>
<g>
</g>
<g>
</g>
<g>
</g>
</svg>
