<?xml version="1.0" encoding="utf-8"?>
<!-- Generator: Adobe Illustrator 16.0.0, SVG Export Plug-In . SVG Version: 6.00 Build 0)  -->
<!DOCTYPE svg PUBLIC "-//W3C//DTD SVG 1.1//EN" "http://www.w3.org/Graphics/SVG/1.1/DTD/svg11.dtd">
<svg version="1.1" id="usage-svg" xmlns="http://www.w3.org/2000/svg" xmlns:xlink="http://www.w3.org/1999/xlink" x="0px" y="0px"
	 width="299px" height="82px" viewBox="0 0 299 82" enable-background="new 0 0 299 82" xml:space="preserve">
<g>
	<path fill="none" stroke="#000000" stroke-width="2" stroke-miterlimit="10" d="M128.226,41.256
		c0.24-0.239,0.492-0.335,0.756-0.288c0.263,0.049,0.468,0.192,0.612,0.432c0.144,0.336,0.072,0.696-0.216,1.08
		c-0.241,0.241-0.468,0.504-0.684,0.792c-0.216,0.288-0.444,0.552-0.684,0.792c-0.625,0.673-1.26,1.344-1.908,2.016
		c-0.648,0.673-1.309,1.344-1.98,2.016c-0.576,0.576-1.177,1.128-1.8,1.656c-0.625,0.529-1.296,0.984-2.016,1.368
		c-0.288,0.144-0.625,0.288-1.008,0.432c-0.385,0.144-0.768,0.229-1.152,0.252c-0.385,0.024-0.756-0.024-1.116-0.144
		c-0.36-0.12-0.637-0.372-0.828-0.756c-0.288-0.527-0.396-1.116-0.324-1.764c0.072-0.648,0.18-1.26,0.324-1.836
		c0.24-1.056,0.563-2.088,0.972-3.096c0.407-1.008,0.828-2.016,1.26-3.024c-1.057,1.488-2.16,2.94-3.312,4.356
		c-1.152,1.417-2.424,2.725-3.816,3.924c-0.673,0.529-1.38,1.021-2.124,1.476c-0.745,0.457-1.524,0.732-2.34,0.828
		c-0.72,0.097-1.368-0.036-1.944-0.396c-0.576-0.36-0.936-0.924-1.08-1.692c-0.097-0.672-0.072-1.368,0.072-2.088
		c0.144-0.72,0.335-1.415,0.576-2.088c0.335-1.055,0.72-2.099,1.152-3.132c0.432-1.032,0.864-2.076,1.296-3.132l-1.728,2.232
		c-0.241,0.241-0.504,0.529-0.792,0.864c-0.288,0.336-0.625,0.385-1.008,0.144c-0.385-0.24-0.493-0.528-0.324-0.864
		c0.167-0.335,0.371-0.624,0.612-0.864l1.44-1.8c0.767-0.96,1.523-1.932,2.268-2.916c0.744-0.983,1.452-1.956,2.124-2.916
		c0.096-0.096,0.168-0.216,0.216-0.36c0.047-0.144,0.119-0.263,0.216-0.36c0.335-0.335,0.72-0.335,1.152,0
		c0.191,0.192,0.264,0.385,0.216,0.576c-0.048,0.192-0.121,0.385-0.216,0.576c-0.385,0.961-0.781,1.944-1.188,2.952
		c-0.408,1.008-0.828,1.993-1.26,2.952c-0.432,0.961-0.853,1.92-1.26,2.88c-0.408,0.961-0.781,1.92-1.116,2.88
		c-0.144,0.385-0.277,0.792-0.396,1.224c-0.121,0.432-0.229,0.864-0.324,1.296c-0.192,0.673-0.216,1.249-0.072,1.728
		c0.144,0.576,0.504,0.817,1.08,0.72c0.576-0.096,1.055-0.24,1.44-0.432c0.527-0.24,1.044-0.551,1.548-0.936
		c0.504-0.383,0.972-0.792,1.404-1.224c1.199-1.104,2.304-2.304,3.312-3.6c1.008-1.296,1.992-2.616,2.952-3.96
		c0.816-1.248,1.62-2.484,2.412-3.708c0.792-1.224,1.548-2.459,2.268-3.708c0.24-0.432,0.527-0.648,0.864-0.648
		c0.432,0,0.695,0.216,0.792,0.648c0.047,0.144,0.036,0.3-0.036,0.468c-0.072,0.169-0.133,0.324-0.18,0.468
		c-0.241,0.529-0.468,1.069-0.684,1.62c-0.216,0.553-0.444,1.092-0.684,1.62c-0.529,1.296-1.056,2.581-1.584,3.852
		c-0.529,1.272-1.033,2.532-1.512,3.78c-0.288,0.769-0.565,1.524-0.828,2.268c-0.265,0.745-0.444,1.524-0.54,2.34
		c-0.048,0.144-0.072,0.349-0.072,0.612c0,0.264,0.072,0.444,0.216,0.54c0.144,0.097,0.324,0.12,0.54,0.072
		c0.216-0.047,0.371-0.096,0.468-0.144l0.792-0.36c0.816-0.432,1.548-0.947,2.196-1.548c0.648-0.6,1.307-1.212,1.98-1.836
		c0.815-0.816,1.607-1.644,2.376-2.484C126.761,43.045,127.505,42.168,128.226,41.256z"/>
	<path fill="none" stroke="#000000" stroke-width="2" stroke-miterlimit="10" d="M145.721,41.328c0.335-0.432,0.72-0.492,1.152-0.18
		c0.432,0.313,0.504,0.684,0.216,1.116c-0.288,0.385-0.565,0.745-0.828,1.08c-0.264,0.336-0.565,0.696-0.9,1.08
		c-0.673,0.769-1.368,1.501-2.088,2.196c-0.72,0.696-1.489,1.356-2.304,1.98c-1.584,1.249-3.373,2.244-5.364,2.988
		c-1.992,0.745-4.021,0.876-6.084,0.396c-1.008-0.24-1.956-0.612-2.844-1.116c-0.889-0.504-1.717-1.116-2.484-1.836
		c-0.191-0.144-0.396-0.324-0.612-0.54c-0.216-0.216-0.348-0.443-0.396-0.684c0-0.24,0.061-0.443,0.18-0.612
		c0.121-0.167,0.3-0.252,0.54-0.252c0.288-0.047,0.529,0.036,0.72,0.252c0.191,0.216,0.384,0.421,0.576,0.612
		c0.384,0.385,0.792,0.72,1.224,1.008c0.864,0.625,1.751,1.08,2.664,1.368c0.239,0.097,0.492,0.168,0.756,0.216
		c0.263,0.048,0.515,0.097,0.756,0.144c0.24,0.048,0.468,0.084,0.684,0.108c0.216,0.025,0.443,0.013,0.684-0.036
		c0.671-0.144,1.211-0.443,1.62-0.9c0.407-0.456,0.731-0.996,0.972-1.62c0.288-0.816,0.468-1.656,0.54-2.52
		c0.072-0.864,0.108-1.728,0.108-2.592c0-1.152-0.048-2.315-0.144-3.492c-0.097-1.176-0.097-2.364,0-3.564
		c-1.44,1.776-2.905,3.456-4.392,5.04l-1.296,1.368c-0.097,0.144-0.252,0.229-0.468,0.252c-0.216,0.025-0.396-0.036-0.54-0.18
		c-0.241-0.191-0.349-0.396-0.324-0.612c0.023-0.216,0.108-0.432,0.252-0.648s0.312-0.407,0.504-0.576
		c0.191-0.167,0.36-0.324,0.504-0.468c1.104-1.248,2.184-2.508,3.24-3.78c1.055-1.271,2.135-2.531,3.24-3.78l0.864-1.008
		c0.335-0.384,0.695-0.432,1.08-0.144c0.384,0.288,0.479,0.625,0.288,1.008c-0.097,0.241-0.241,0.444-0.432,0.612
		c-0.192,0.168-0.336,0.372-0.432,0.612c-0.192,0.432-0.313,0.889-0.36,1.368c-0.049,0.48-0.097,0.984-0.144,1.512
		c-0.048,1.201-0.025,2.401,0.072,3.6c0.096,1.2,0.119,2.401,0.072,3.6c0,1.008-0.072,2.052-0.216,3.132s-0.48,2.077-1.008,2.988
		c1.152-0.432,2.232-0.996,3.24-1.692c1.008-0.695,1.968-1.451,2.88-2.268C143.273,44.424,144.617,42.912,145.721,41.328z"/>
	<path fill="none" stroke="#000000" stroke-width="2" stroke-miterlimit="10" d="M169.121,41.184
		c0.288-0.288,0.612-0.335,0.972-0.144c0.36,0.192,0.492,0.48,0.396,0.864c-0.048,0.192-0.12,0.349-0.216,0.468
		c-0.097,0.12-0.192,0.229-0.288,0.324c-0.385,0.385-0.745,0.781-1.08,1.188c-0.336,0.409-0.673,0.805-1.008,1.188
		c-0.817,0.913-1.632,1.825-2.448,2.736c-0.817,0.912-1.704,1.752-2.664,2.52c-0.672,0.576-1.452,1.044-2.34,1.404
		c-0.889,0.36-1.789,0.324-2.7-0.108c-1.008-0.432-1.573-1.14-1.692-2.124c-0.12-0.983-0.108-1.955,0.036-2.916
		c-0.673,0.864-1.429,1.692-2.268,2.484c-0.84,0.792-1.74,1.453-2.7,1.98c-0.816,0.385-1.728,0.637-2.736,0.756
		c-1.008,0.12-1.92-0.083-2.736-0.612c-0.673-0.432-1.141-1.008-1.404-1.728c-0.264-0.72-0.396-1.463-0.396-2.232
		c0.047-0.911,0.228-1.8,0.54-2.664c0.312-0.864,0.684-1.703,1.116-2.52c0.527-1.104,1.176-2.124,1.944-3.06
		c0.768-0.936,1.608-1.811,2.52-2.628c0.72-0.671,1.487-1.307,2.304-1.908c0.815-0.6,1.68-1.116,2.592-1.548
		c1.104-0.527,2.268-0.923,3.492-1.188c1.224-0.263,2.459-0.324,3.708-0.18c0.24,0.048,0.456,0.084,0.648,0.108
		c0.191,0.025,0.407,0.084,0.648,0.18c0.288,0.097,0.456,0.252,0.504,0.468c0.047,0.216,0.036,0.457-0.036,0.72
		c-0.072,0.264-0.18,0.528-0.324,0.792c-0.144,0.264-0.241,0.468-0.288,0.612c-0.432,0.961-0.876,1.897-1.332,2.808
		c-0.457,0.912-0.948,1.848-1.476,2.808c-0.144,0.288-0.3,0.576-0.468,0.864c-0.169,0.288-0.349,0.576-0.54,0.864
		c-0.144,0.288-0.288,0.565-0.432,0.828c-0.144,0.265-0.264,0.565-0.36,0.9c-0.192,0.529-0.373,1.069-0.54,1.62
		c-0.169,0.552-0.3,1.116-0.396,1.692c-0.097,0.432-0.156,0.9-0.18,1.404c-0.024,0.504,0.083,0.972,0.324,1.404
		c0.144,0.288,0.384,0.493,0.72,0.612c0.335,0.12,0.672,0.132,1.008,0.036c0.383-0.096,0.744-0.227,1.08-0.396
		c0.335-0.167,0.648-0.371,0.936-0.612c0.383-0.335,0.767-0.672,1.152-1.008c0.384-0.335,0.744-0.695,1.08-1.08
		c0.959-0.96,1.872-1.944,2.736-2.952C167.393,43.2,168.257,42.192,169.121,41.184z M149.321,49.968
		c0.815-0.239,1.548-0.6,2.196-1.08c0.648-0.479,1.26-1.008,1.836-1.584c0.671-0.672,1.307-1.416,1.908-2.232
		c0.6-0.815,1.164-1.631,1.692-2.448c0.191-0.24,0.348-0.479,0.468-0.72c0.119-0.239,0.227-0.479,0.324-0.72l0.648-1.368
		c0.191-0.479,0.383-0.936,0.576-1.368c0.191-0.432,0.407-0.864,0.648-1.296c0.384-0.671,0.756-1.332,1.116-1.98
		s0.731-1.307,1.116-1.98c-1.104-0.144-2.208-0.096-3.312,0.144c-1.104,0.241-2.136,0.601-3.096,1.08
		c-0.961,0.48-1.836,1.033-2.628,1.656c-0.792,0.625-1.548,1.296-2.268,2.016c-0.864,0.817-1.656,1.705-2.376,2.664
		c-0.72,0.961-1.321,1.992-1.8,3.096c-0.288,0.672-0.529,1.416-0.72,2.232c-0.192,0.817-0.192,1.609,0,2.376
		c0.096,0.336,0.227,0.648,0.396,0.936c0.167,0.288,0.419,0.504,0.756,0.648c0.384,0.144,0.803,0.192,1.26,0.144
		C148.517,50.137,148.936,50.065,149.321,49.968z"/>
	<path fill="none" stroke="#000000" stroke-width="2" stroke-miterlimit="10" d="M187.912,41.256
		c0.144-0.191,0.324-0.288,0.54-0.288c0.216,0,0.407,0.061,0.576,0.18c0.168,0.121,0.276,0.277,0.324,0.468
		c0.047,0.192,0,0.385-0.144,0.576c-0.097,0.192-0.229,0.373-0.396,0.54c-0.169,0.169-0.349,0.349-0.54,0.54l-0.792,0.936
		c-0.625,0.625-1.236,1.224-1.836,1.8c-0.601,0.576-1.236,1.128-1.908,1.656c-0.432,0.385-0.864,0.732-1.296,1.044
		c-0.432,0.312-0.864,0.637-1.296,0.972l-1.584,1.08c-0.192,0.144-0.36,0.409-0.504,0.792l-1.8,4.104
		c-0.768,1.68-1.512,3.359-2.232,5.04c-0.72,1.68-1.512,3.335-2.376,4.968c-0.385,0.719-0.781,1.428-1.188,2.123
		c-0.408,0.695-0.876,1.379-1.404,2.053c-0.385,0.432-0.805,0.814-1.26,1.152c-0.457,0.334-0.972,0.551-1.548,0.646
		c-1.105,0.145-1.932-0.156-2.484-0.898c-0.551-0.746-0.875-1.598-0.972-2.557c-0.096-0.672-0.083-1.344,0.036-2.016
		c0.12-0.674,0.3-1.346,0.54-2.016c0.528-1.681,1.319-3.24,2.376-4.68c1.055-1.44,2.207-2.761,3.456-3.96
		c0.815-0.817,1.703-1.548,2.664-2.196c0.96-0.648,1.919-1.284,2.88-1.908l2.16-1.44c0.096-0.095,0.168-0.191,0.216-0.288
		c0.047-0.096,0.096-0.191,0.144-0.288l1.08-2.592l-0.504,0.576c-0.72,0.817-1.5,1.596-2.34,2.34
		c-0.84,0.745-1.789,1.309-2.844,1.692c-0.864,0.288-1.789,0.408-2.772,0.36c-0.984-0.047-1.812-0.432-2.484-1.152
		c-0.529-0.576-0.853-1.26-0.972-2.052c-0.12-0.792-0.132-1.572-0.036-2.34c0.144-1.008,0.432-1.98,0.864-2.916
		c0.432-0.936,0.936-1.836,1.512-2.7c0.815-1.296,1.811-2.543,2.988-3.744c1.176-1.199,2.472-2.232,3.888-3.096
		c1.415-0.864,2.916-1.512,4.5-1.944c1.584-0.432,3.191-0.504,4.824-0.216c0.24,0.048,0.516,0.121,0.828,0.216
		c0.312,0.097,0.492,0.312,0.54,0.648c0.047,0.241-0.012,0.516-0.18,0.828c-0.168,0.313-0.3,0.588-0.396,0.828l-1.08,2.448
		l-5.04,11.448c1.343-1.008,2.615-2.076,3.816-3.204C185.655,43.693,186.807,42.505,187.912,41.256z M176.824,52.632
		c-0.817,0.529-1.62,1.057-2.412,1.584c-0.792,0.528-1.573,1.127-2.34,1.8c-0.624,0.527-1.212,1.08-1.764,1.656
		c-0.553,0.576-1.092,1.176-1.62,1.8c-0.72,0.96-1.368,1.979-1.944,3.06c-0.576,1.08-0.984,2.195-1.224,3.347
		c-0.048,0.24-0.084,0.492-0.108,0.756c-0.025,0.264-0.036,0.541-0.036,0.828c-0.047,0.385-0.023,0.828,0.072,1.332
		c0.096,0.504,0.335,0.875,0.72,1.117c0.288,0.191,0.576,0.252,0.864,0.18c0.288-0.072,0.564-0.205,0.828-0.396
		c0.263-0.191,0.515-0.408,0.756-0.648c0.239-0.24,0.432-0.48,0.576-0.719c0.576-0.77,1.091-1.584,1.548-2.449
		c0.456-0.863,0.875-1.727,1.26-2.592c0.576-1.152,1.116-2.302,1.62-3.455s1.019-2.329,1.548-3.528L176.824,52.632z M172.792,49.968
		c0.528-0.144,1.104-0.407,1.728-0.792c0.671-0.432,1.296-0.936,1.872-1.512c0.576-0.576,1.127-1.176,1.656-1.8
		c0.624-0.72,1.188-1.451,1.692-2.196c0.504-0.744,1.02-1.523,1.548-2.34c0.767-1.343,1.487-2.688,2.16-4.032
		c0.672-1.343,1.32-2.711,1.944-4.104c-1.105-0.191-2.221-0.167-3.348,0.072c-1.128,0.241-2.196,0.624-3.204,1.152
		c-0.912,0.48-1.776,1.033-2.592,1.656c-0.817,0.625-1.584,1.296-2.304,2.016c-0.816,0.817-1.584,1.705-2.304,2.664
		c-0.72,0.961-1.345,1.992-1.872,3.096c-0.288,0.672-0.529,1.416-0.72,2.232c-0.192,0.817-0.192,1.609,0,2.376
		c0.191,0.769,0.6,1.296,1.224,1.584c0.384,0.144,0.803,0.192,1.26,0.144C171.988,50.137,172.407,50.065,172.792,49.968z"/>
	<path fill="none" stroke="#000000" stroke-width="2" stroke-miterlimit="10" d="M204.398,41.112
		c0.336,0.288,0.408,0.601,0.217,0.936c-0.192,0.336-0.385,0.625-0.576,0.864l-1.729,1.944c-0.528,0.529-1.043,1.044-1.547,1.548
		c-0.504,0.504-1.044,1.021-1.62,1.548c-1.152,0.96-2.46,1.848-3.924,2.664c-1.464,0.816-2.988,1.128-4.572,0.936
		c-0.769-0.095-1.452-0.347-2.052-0.756c-0.601-0.407-1.069-0.972-1.404-1.692c-0.385-0.815-0.552-1.692-0.504-2.628
		c0.047-0.936,0.167-1.836,0.36-2.7c0.432-1.824,1.127-3.575,2.088-5.256c0.96-1.68,2.135-3.143,3.528-4.392
		c0.576-0.527,1.199-1.008,1.872-1.44c0.671-0.432,1.392-0.72,2.16-0.864c0.816-0.144,1.644-0.083,2.484,0.18
		c0.839,0.265,1.404,0.828,1.692,1.692c0.191,0.673,0.191,1.296,0,1.872c-0.192,0.576-0.468,1.128-0.828,1.656
		c-0.36,0.529-0.792,1.008-1.296,1.44s-0.997,0.817-1.476,1.152c-0.817,0.529-1.656,0.972-2.52,1.332
		c-0.864,0.36-1.753,0.684-2.664,0.972c-0.288,0.097-0.576,0.18-0.864,0.252c-0.288,0.072-0.576,0.156-0.864,0.252l-0.864,0.216
		c-0.097,0-0.169,0.013-0.216,0.036c-0.048,0.025-0.12,0.036-0.216,0.036c-0.048,0-0.072,0.048-0.072,0.144
		c0,0.097-0.025,0.144-0.072,0.144c-0.385,1.249-0.576,2.448-0.576,3.6c0.047,0.385,0.12,0.792,0.216,1.224
		c0.096,0.432,0.288,0.817,0.576,1.152c0.576,0.48,1.176,0.72,1.8,0.72c0.671,0.097,1.343,0.036,2.016-0.18
		c0.671-0.216,1.319-0.468,1.944-0.756c0.815-0.479,1.607-1.019,2.376-1.62c0.767-0.6,1.512-1.235,2.232-1.908
		c0.432-0.384,0.852-0.803,1.26-1.26c0.407-0.456,0.803-0.9,1.188-1.332l1.296-1.584C203.582,40.824,203.967,40.777,204.398,41.112z
		 M197.199,33.408c-0.817,0.097-1.573,0.396-2.268,0.9c-0.697,0.504-1.309,1.044-1.836,1.62c-1.296,1.44-2.401,3.144-3.312,5.112
		c1.487-0.384,2.988-0.888,4.5-1.512c1.512-0.623,2.795-1.487,3.852-2.592c0.672-0.672,1.08-1.368,1.224-2.088
		c0.096-0.672-0.108-1.104-0.612-1.296C198.243,33.361,197.727,33.312,197.199,33.408z"/>
</g>
<g>
</g>
<g>
</g>
<g>
</g>
<g>
</g>
<g>
</g>
<g>
</g>
</svg>
